<?xml version="1.0" encoding="UTF-8" standalone="no"?>
<svg
   xmlns:dc="http://purl.org/dc/elements/1.1/"
   xmlns:cc="http://creativecommons.org/ns#"
   xmlns:rdf="http://www.w3.org/1999/02/22-rdf-syntax-ns#"
   xmlns:svg="http://www.w3.org/2000/svg"
   xmlns="http://www.w3.org/2000/svg"
   viewBox="0 0 800 533.33331"
   height="533.33331"
   width="800"
   xml:space="preserve"
   version="1.1"
   id="svg2"><metadata
     id="metadata8"><rdf:RDF><cc:Work
         rdf:about=""><dc:format>image/svg+xml</dc:format><dc:type
           rdf:resource="http://purl.org/dc/dcmitype/StillImage" /></cc:Work></rdf:RDF></metadata><defs
     id="defs6"><clipPath
       id="clipPath20"
       clipPathUnits="userSpaceOnUse"><path
         id="path22"
         d="m 0,0 599.999,0 0,400 L 0,400 0,0 Z" /></clipPath></defs><g
     transform="matrix(1.3333333,0,0,-1.3333333,0,533.33333)"
     id="g10"><path
       id="path12"
       style="fill:#78adde;fill-opacity:1;fill-rule:nonzero;stroke:none"
       d="m 0.013,0 599.988,0 0,399.999 -599.988,0 L 0.013,0 Z" /><path
       id="path14"
       style="fill:#ffffff;fill-opacity:1;fill-rule:nonzero;stroke:none"
       d="m 0.013,142.77 599.988,0 0,125.092 -599.988,0 0,-125.092 z" /><g
       id="g16"><g
         clip-path="url(#clipPath20)"
         id="g18"><g
           transform="translate(297.6396,204.3354)"
           id="g24"><path
             id="path26"
             style="fill:#f7b625;fill-opacity:1;fill-rule:nonzero;stroke:#873e25;stroke-width:1.11199999;stroke-linecap:butt;stroke-linejoin:miter;stroke-miterlimit:4;stroke-dasharray:none;stroke-opacity:1"
             d="m 0,0 21.341,-46.529 c 0,0 0.366,-0.887 0.96,-0.641 0.592,0.244 0.222,1.133 0.222,1.133 L 4.739,1.964 m -0.51,-18.101 c -0.26,-7.078 4.087,-10.968 3.521,-17.287 -0.567,-6.32 2.9,-9.892 3.704,-12.352 0.804,-2.458 -0.87,-3.926 -0.15,-4.274 0.723,-0.349 2.303,1.592 1.79,5.085 -0.515,3.493 -3.166,4.531 -2.542,12.247 0.621,7.718 -3.155,9.518 -2.238,16.556" /></g><g
           transform="translate(297.4438,205.3193)"
           id="g28"><path
             id="path30"
             style="fill:#f7b625;fill-opacity:1;fill-rule:nonzero;stroke:#873e25;stroke-width:1.11199999;stroke-linecap:butt;stroke-linejoin:miter;stroke-miterlimit:4;stroke-dasharray:none;stroke-opacity:1"
             d="m 0,0 1.924,-51.158 c 0,0 0,-0.963 0.641,-0.964 0.642,0 0.642,0.964 0.642,0.964 L 5.13,0 m -7.395,-16.53 c -2.945,-6.438 -0.416,-11.699 -3.358,-17.319 -2.94,-5.624 -1.103,-10.251 -1.299,-12.829 -0.197,-2.58 -2.307,-3.295 -1.772,-3.894 0.532,-0.601 2.735,0.589 3.596,4.014 0.859,3.425 -1.192,5.397 2.334,12.29 3.527,6.892 0.724,9.999 4.266,16.152" /></g><g
           transform="translate(297.6396,206.3008)"
           id="g32"><path
             id="path34"
             style="fill:#f7b625;fill-opacity:1;fill-rule:nonzero;stroke:#873e25;stroke-width:1.11199999;stroke-linecap:butt;stroke-linejoin:miter;stroke-miterlimit:4;stroke-dasharray:none;stroke-opacity:1"
             d="m 0,0 -17.787,-48 c 0,0 -0.369,-0.89 0.224,-1.136 0.593,-0.245 0.96,0.646 0.96,0.646 L 4.739,-1.964 m -13.153,-12.44 c -5.183,-4.819 -4.858,-10.649 -9.725,-14.713 -4.867,-4.068 -4.939,-9.05 -6.107,-11.356 -1.168,-2.307 -3.39,-2.161 -3.126,-2.92 0.263,-0.757 2.751,-0.503 4.858,2.333 2.103,2.835 0.962,5.444 6.855,10.46 5.895,5.016 4.494,8.96 10.118,13.288" /></g><g
           transform="translate(298.1948,207.1333)"
           id="g36"><path
             id="path38"
             style="fill:#f7b625;fill-opacity:1;fill-rule:nonzero;stroke:#873e25;stroke-width:1.11199999;stroke-linecap:butt;stroke-linejoin:miter;stroke-miterlimit:4;stroke-dasharray:none;stroke-opacity:1"
             d="m 0,0 -34.788,-37.536 c 0,0 -0.68,-0.678 -0.228,-1.132 0.454,-0.455 1.134,0.226 1.134,0.226 L 3.627,-3.63 m -16.909,-6.454 c -6.632,-2.468 -8.56,-7.981 -14.611,-9.871 -6.051,-1.894 -8.023,-6.467 -9.984,-8.152 -1.959,-1.683 -3.957,-0.698 -4.004,-1.499 -0.047,-0.802 2.349,-1.519 5.379,0.293 3.027,1.814 2.97,4.66 10.335,7.04 7.363,2.377 7.577,6.558 14.429,8.401" /></g><g
           transform="translate(303.2422,186.999)"
           id="g40"><path
             id="path42"
             style="fill:#873e25;fill-opacity:1;fill-rule:nonzero;stroke:none"
             d="m 0,0 c 0.341,-6.794 4.19,-9.804 3.435,-15.998 1.66,4.895 -2.342,8.693 -2.116,15.929 M -4.417,17.759 10.197,-14.196 -2.048,18.742" /></g><g
           transform="translate(295.9907,187.1562)"
           id="g44"><path
             id="path46"
             style="fill:#873e25;fill-opacity:1;fill-rule:nonzero;stroke:none"
             d="m 0,0 c -2.286,-6.409 0.122,-10.663 -2.946,-16.095 3.407,3.89 1.161,8.93 4.137,15.525 m 1.518,18.669 1.283,-35.12 1.283,35.12" /></g><g
           transform="translate(289.3516,190.0762)"
           id="g48"><path
             id="path50"
             style="fill:#873e25;fill-opacity:1;fill-rule:nonzero;stroke:none"
             d="m 0,0 c -4.562,-5.046 -3.966,-9.897 -8.876,-13.738 4.634,2.285 4.486,7.801 9.757,12.755 M 9.424,15.685 -2.821,-17.253 11.795,14.704" /></g><g
           transform="translate(284.334,195.3203)"
           id="g52"><path
             id="path54"
             style="fill:#873e25;fill-opacity:1;fill-rule:nonzero;stroke:none"
             d="m 0,0 c -6.145,-2.916 -7.448,-7.627 -13.456,-9.297 5.157,0.34 7.131,5.492 13.895,8.049 M 14.705,10.879 -9.205,-14.86 16.519,9.066" /></g><g
           transform="translate(299.0264,207.6909)"
           id="g56"><path
             id="path58"
             style="fill:#f7b625;fill-opacity:1;fill-rule:nonzero;stroke:#873e25;stroke-width:1.11199999;stroke-linecap:butt;stroke-linejoin:miter;stroke-miterlimit:4;stroke-dasharray:none;stroke-opacity:1"
             d="m 0,0 -46.493,-21.356 c 0,0 -0.888,-0.368 -0.643,-0.961 0.244,-0.591 1.134,-0.224 1.134,-0.224 L 1.963,-4.742 m -18.089,0.51 c -7.072,0.261 -10.96,-4.093 -17.274,-3.524 -6.316,0.569 -9.885,-2.904 -12.34,-3.706 -2.456,-0.805 -3.925,0.872 -4.274,0.15 -0.351,-0.725 1.59,-2.307 5.081,-1.79 3.492,0.516 4.527,3.167 12.24,2.544 7.714,-0.625 9.509,3.156 16.544,2.235" /></g><g
           transform="translate(300.0107,207.8872)"
           id="g60"><path
             id="path62"
             style="fill:#f7b625;fill-opacity:1;fill-rule:nonzero;stroke:#873e25;stroke-width:1.11199999;stroke-linecap:butt;stroke-linejoin:miter;stroke-miterlimit:4;stroke-dasharray:none;stroke-opacity:1"
             d="m 0,0 -51.123,-1.926 c 0,0 -0.962,10e-4 -0.962,-0.64 -10e-4,-0.643 0.961,-0.643 0.961,-0.643 L 0,-5.134 m -16.519,7.4 c -6.434,2.948 -11.691,0.417 -17.307,3.359 -5.617,2.944 -10.243,1.105 -12.818,1.301 -2.578,0.198 -3.293,2.308 -3.893,1.775 -0.599,-0.534 0.589,-2.738 4.012,-3.599 3.422,-0.861 5.394,1.192 12.28,-2.337 6.888,-3.528 9.993,-0.725 16.141,-4.269" /></g><g
           transform="translate(300.9912,207.6904)"
           id="g64"><path
             id="path66"
             style="fill:#f7b625;fill-opacity:1;fill-rule:nonzero;stroke:#873e25;stroke-width:1.11199999;stroke-linecap:butt;stroke-linejoin:miter;stroke-miterlimit:4;stroke-dasharray:none;stroke-opacity:1"
             d="m 0,0 -47.967,17.799 c 0,0 -0.887,0.37 -1.134,-0.223 -0.245,-0.592 0.644,-0.961 0.644,-0.961 L -1.963,-4.741 M -14.394,8.421 c -4.815,5.186 -10.641,4.86 -14.704,9.731 -4.064,4.871 -9.04,4.943 -11.345,6.112 -2.307,1.168 -2.161,3.392 -2.917,3.129 -0.759,-0.265 -0.503,-2.756 2.329,-4.861 2.833,-2.106 5.439,-0.964 10.453,-6.862 5.012,-5.899 8.954,-4.497 13.278,-10.126" /></g><g
           transform="translate(301.8242,207.1348)"
           id="g68"><path
             id="path70"
             style="fill:#f7b625;fill-opacity:1;fill-rule:nonzero;stroke:#873e25;stroke-width:1.11199999;stroke-linecap:butt;stroke-linejoin:miter;stroke-miterlimit:4;stroke-dasharray:none;stroke-opacity:1"
             d="m 0,0 -37.51,34.813 c 0,0 -0.679,0.681 -1.132,0.228 -0.455,-0.454 0.225,-1.135 0.225,-1.135 l 34.79,-37.535 m -6.452,16.92 c -2.466,6.636 -7.972,8.567 -9.864,14.622 -1.89,6.056 -6.462,8.028 -8.144,9.991 -1.684,1.962 -0.699,3.96 -1.498,4.007 -0.802,0.048 -1.519,-2.351 0.293,-5.382 1.812,-3.031 4.657,-2.974 7.032,-10.343 2.377,-7.368 6.554,-7.582 8.396,-14.439" /></g><g
           transform="translate(281.7021,202.0825)"
           id="g72"><path
             id="path74"
             style="fill:#873e25;fill-opacity:1;fill-rule:nonzero;stroke:none"
             d="m 0,0 c -6.79,-0.339 -9.797,-4.192 -15.985,-3.433 4.893,-1.663 8.686,2.342 15.915,2.115 M 17.748,4.423 -14.186,-10.204 18.729,2.051" /></g><g
           transform="translate(281.8594,209.3418)"
           id="g76"><path
             id="path78"
             style="fill:#873e25;fill-opacity:1;fill-rule:nonzero;stroke:none"
             d="m 0,0 c -6.403,2.286 -10.655,-0.123 -16.083,2.946 3.886,-3.408 8.921,-1.16 15.513,-4.138 m 18.656,-1.521 -35.095,-1.283 35.097,-1.283" /></g><g
           transform="translate(284.7788,215.9854)"
           id="g80"><path
             id="path82"
             style="fill:#873e25;fill-opacity:1;fill-rule:nonzero;stroke:none"
             d="m 0,0 c -5.042,4.564 -9.891,3.969 -13.731,8.882 2.286,-4.637 7.798,-4.489 12.75,-9.765 M 15.672,-9.431 -17.242,2.823 14.693,-11.803" /></g><g
           transform="translate(290.0171,221.0063)"
           id="g84"><path
             id="path86"
             style="fill:#873e25;fill-opacity:1;fill-rule:nonzero;stroke:none"
             d="M 0,0 C -2.913,6.148 -7.62,7.454 -9.289,13.465 -8.951,8.305 -3.801,6.33 -1.246,-0.439 M 10.873,-14.715 -14.85,9.209 9.061,-16.531" /></g><g
           transform="translate(302.3789,206.3027)"
           id="g88"><path
             id="path90"
             style="fill:#f7b625;fill-opacity:1;fill-rule:nonzero;stroke:#873e25;stroke-width:1.11199999;stroke-linecap:butt;stroke-linejoin:miter;stroke-miterlimit:4;stroke-dasharray:none;stroke-opacity:1"
             d="m 0,0 -21.339,46.527 c 0,0 -0.368,0.888 -0.96,0.643 -0.593,-0.244 -0.225,-1.134 -0.225,-1.134 L -4.737,-1.965 m 0.51,18.103 c 0.26,7.076 -4.09,10.967 -3.521,17.286 0.569,6.32 -2.9,9.891 -3.705,12.35 -0.805,2.458 0.87,3.927 0.149,4.276 -0.722,0.349 -2.302,-1.591 -1.787,-5.084 0.513,-3.495 3.164,-4.532 2.542,-12.249 -0.622,-7.719 3.154,-9.516 2.235,-16.555" /></g><g
           transform="translate(302.5752,205.3193)"
           id="g92"><path
             id="path94"
             style="fill:#f7b625;fill-opacity:1;fill-rule:nonzero;stroke:#873e25;stroke-width:1.11199999;stroke-linecap:butt;stroke-linejoin:miter;stroke-miterlimit:4;stroke-dasharray:none;stroke-opacity:1"
             d="m 0,0 -1.923,51.159 c 0,0 0,0.961 -0.64,0.963 -0.643,0 -0.643,-0.963 -0.643,-0.963 L -5.129,0 M 2.266,16.53 C 5.211,22.967 2.682,28.229 5.624,33.848 8.563,39.47 6.728,44.099 6.923,46.676 7.12,49.254 9.229,49.972 8.695,50.57 8.162,51.17 5.959,49.982 5.1,46.557 4.24,43.132 6.291,41.159 2.765,34.268 -0.761,27.376 2.04,24.268 -1.501,18.116" /></g><g
           transform="translate(302.3789,204.3364)"
           id="g96"><path
             id="path98"
             style="fill:#f7b625;fill-opacity:1;fill-rule:nonzero;stroke:#873e25;stroke-width:1.11199999;stroke-linecap:butt;stroke-linejoin:miter;stroke-miterlimit:4;stroke-dasharray:none;stroke-opacity:1"
             d="m 0,0 17.788,48.002 c 0,0 0.368,0.889 -0.225,1.135 -0.59,0.244 -0.959,-0.645 -0.959,-0.645 L -4.736,1.964 m 13.151,12.44 c 5.185,4.821 4.858,10.65 9.725,14.715 4.866,4.067 4.939,9.048 6.106,11.353 1.168,2.309 3.392,2.162 3.127,2.92 -0.264,0.759 -2.753,0.504 -4.856,-2.331 C 20.411,38.226 21.552,35.617 15.659,30.601 9.766,25.584 11.167,21.64 5.541,17.312" /></g><g
           transform="translate(301.8242,203.5029)"
           id="g100"><path
             id="path102"
             style="fill:#f7b625;fill-opacity:1;fill-rule:nonzero;stroke:#873e25;stroke-width:1.11199999;stroke-linecap:butt;stroke-linejoin:miter;stroke-miterlimit:4;stroke-dasharray:none;stroke-opacity:1"
             d="m 0,0 34.788,37.536 c 0,0 0.681,0.681 0.228,1.134 -0.453,0.455 -1.133,-0.227 -1.133,-0.227 L -3.626,3.631 m 16.908,6.456 c 6.631,2.466 8.562,7.977 14.612,9.87 6.05,1.893 8.021,6.467 9.983,8.151 1.961,1.684 3.96,0.698 4.007,1.498 0.045,0.803 -2.352,1.52 -5.38,-0.293 -3.03,-1.814 -2.972,-4.66 -10.337,-7.038 C 18.804,19.898 18.59,15.717 11.74,13.874" /></g><g
           transform="translate(296.7764,223.6401)"
           id="g104"><path
             id="path106"
             style="fill:#873e25;fill-opacity:1;fill-rule:nonzero;stroke:none"
             d="M 0,0 C -0.339,6.794 -4.188,9.804 -3.433,15.996 -5.092,11.1 -1.091,7.302 -1.318,0.07 M 4.419,-17.761 -10.196,14.195 2.049,-18.744" /></g><g
           transform="translate(304.0303,223.4834)"
           id="g108"><path
             id="path110"
             style="fill:#873e25;fill-opacity:1;fill-rule:nonzero;stroke:none"
             d="M 0,0 C 2.283,6.408 -0.123,10.661 2.943,16.094 -0.463,12.206 1.782,7.166 -1.192,0.569 M -2.711,-18.1 -3.994,17.02 -5.276,-18.102" /></g><g
           transform="translate(310.668,220.5615)"
           id="g112"><path
             id="path114"
             style="fill:#873e25;fill-opacity:1;fill-rule:nonzero;stroke:none"
             d="M 0,0 C 4.562,5.045 3.966,9.897 8.877,13.741 4.243,11.453 4.391,5.936 -0.883,0.982 M -9.424,-15.685 2.82,17.253 -11.793,-14.704" /></g><g
           transform="translate(315.6875,215.3193)"
           id="g116"><path
             id="path118"
             style="fill:#873e25;fill-opacity:1;fill-rule:nonzero;stroke:none"
             d="M 0,0 C 6.142,2.914 7.447,7.625 13.455,9.296 8.297,8.957 6.322,3.803 -0.44,1.246 M -14.706,-10.881 9.202,14.86 -16.521,-9.067" /></g><g
           transform="translate(300.9932,202.9478)"
           id="g120"><path
             id="path122"
             style="fill:#f7b625;fill-opacity:1;fill-rule:nonzero;stroke:#873e25;stroke-width:1.11199999;stroke-linecap:butt;stroke-linejoin:miter;stroke-miterlimit:4;stroke-dasharray:none;stroke-opacity:1"
             d="m 0,0 46.493,21.355 c 0,0 0.888,0.367 0.644,0.961 -0.245,0.593 -1.134,0.224 -1.134,0.224 L -1.964,4.741 M 16.126,4.23 c 7.071,-0.259 10.96,4.093 17.275,3.524 6.314,-0.568 9.885,2.903 12.339,3.707 2.457,0.806 3.925,-0.871 4.274,-0.149 0.349,0.724 -1.59,2.305 -5.081,1.79 C 41.441,12.586 40.404,9.935 32.693,10.558 24.98,11.181 23.184,7.401 16.149,8.321" /></g><g
           transform="translate(300.0098,202.7524)"
           id="g124"><path
             id="path126"
             style="fill:#f7b625;fill-opacity:1;fill-rule:nonzero;stroke:#873e25;stroke-width:1.11199999;stroke-linecap:butt;stroke-linejoin:miter;stroke-miterlimit:4;stroke-dasharray:none;stroke-opacity:1"
             d="m 0,0 51.123,1.923 c 0,0 0.96,-0.001 0.962,0.642 10e-4,0.642 -0.962,0.642 -0.962,0.642 L 0,5.131 m 16.519,-7.399 c 6.432,-2.948 11.689,-0.417 17.307,-3.36 5.616,-2.943 10.241,-1.102 12.818,-1.299 2.576,-0.198 3.292,-2.308 3.892,-1.774 0.6,0.532 -0.59,2.737 -4.011,3.598 -3.423,0.86 -5.394,-1.193 -12.281,2.335 -6.888,3.53 -9.994,0.725 -16.14,4.27" /></g><g
           transform="translate(299.0283,202.9458)"
           id="g128"><path
             id="path130"
             style="fill:#f7b625;fill-opacity:1;fill-rule:nonzero;stroke:#873e25;stroke-width:1.11199999;stroke-linecap:butt;stroke-linejoin:miter;stroke-miterlimit:4;stroke-dasharray:none;stroke-opacity:1"
             d="m 0,0 47.968,-17.799 c 0,0 0.886,-0.369 1.133,0.223 0.245,0.595 -0.644,0.963 -0.644,0.963 L 1.964,4.743 M 14.395,-8.419 c 4.816,-5.186 10.64,-4.862 14.703,-9.731 4.065,-4.871 9.042,-4.944 11.345,-6.111 2.307,-1.169 2.161,-3.393 2.918,-3.13 0.757,0.263 0.503,2.755 -2.33,4.86 -2.833,2.107 -5.44,0.964 -10.453,6.864 -5.013,5.897 -8.954,4.496 -13.277,10.125" /></g><g
           transform="translate(298.1968,203.5029)"
           id="g132"><path
             id="path134"
             style="fill:#f7b625;fill-opacity:1;fill-rule:nonzero;stroke:#873e25;stroke-width:1.11199999;stroke-linecap:butt;stroke-linejoin:miter;stroke-miterlimit:4;stroke-dasharray:none;stroke-opacity:1"
             d="m 0,0 37.506,-34.813 c 0,0 0.681,-0.681 1.135,-0.227 0.454,0.454 -0.227,1.133 -0.227,1.133 L 3.626,3.628 m 6.451,-16.92 c 2.465,-6.637 7.972,-8.567 9.865,-14.62 1.891,-6.057 6.461,-8.029 8.143,-9.991 1.684,-1.963 0.699,-3.961 1.499,-4.008 0.801,-0.047 1.518,2.35 -0.292,5.381 -1.813,3.03 -4.658,2.974 -7.035,10.344 -2.376,7.369 -6.553,7.582 -8.394,14.439" /></g><g
           transform="translate(318.3164,208.5537)"
           id="g136"><path
             id="path138"
             style="fill:#873e25;fill-opacity:1;fill-rule:nonzero;stroke:none"
             d="M 0,0 C 6.79,0.34 9.797,4.193 15.986,3.437 11.093,5.098 7.299,1.093 0.071,1.32 M -17.746,-4.42 14.187,10.205 -18.728,-2.05" /></g><g
           transform="translate(318.1611,201.2964)"
           id="g140"><path
             id="path142"
             style="fill:#873e25;fill-opacity:1;fill-rule:nonzero;stroke:none"
             d="M 0,0 C 6.402,-2.285 10.655,0.122 16.081,-2.946 12.195,0.463 7.16,-1.786 0.569,1.192 m -18.657,1.519 35.096,1.284 -35.096,1.283" /></g><g
           transform="translate(315.2412,194.6523)"
           id="g144"><path
             id="path146"
             style="fill:#873e25;fill-opacity:1;fill-rule:nonzero;stroke:none"
             d="M 0,0 C 5.042,-4.565 9.891,-3.97 13.73,-8.883 11.445,-4.246 5.932,-4.391 0.981,0.884 M -15.673,9.433 17.241,-2.822 -14.692,11.804" /></g><g
           transform="translate(310.0029,189.6318)"
           id="g148"><path
             id="path150"
             style="fill:#873e25;fill-opacity:1;fill-rule:nonzero;stroke:none"
             d="M 0,0 C 2.911,-6.149 7.62,-7.453 9.289,-13.463 8.95,-8.303 3.802,-6.329 1.245,0.44 M -10.874,14.716 14.85,-9.21 -9.06,16.531" /></g><g
           transform="translate(300.0107,226.167)"
           id="g152"><path
             id="path154"
             style="fill:#f7b625;fill-opacity:1;fill-rule:nonzero;stroke:none"
             d="m 0,0 c 11.505,0 20.833,-9.334 20.833,-20.848 0,-11.512 -9.328,-20.849 -20.833,-20.849 -11.507,0 -20.834,9.337 -20.834,20.849 C -20.834,-9.334 -11.507,0 0,0" /></g><g
           transform="translate(300.0107,226.167)"
           id="g156"><path
             id="path158"
             style="fill:none;stroke:#873e25;stroke-width:1.5;stroke-linecap:butt;stroke-linejoin:miter;stroke-miterlimit:4;stroke-dasharray:none;stroke-opacity:1"
             d="m 0,0 c 11.505,0 20.833,-9.334 20.833,-20.848 0,-11.512 -9.328,-20.849 -20.833,-20.849 -11.507,0 -20.834,9.337 -20.834,20.849 C -20.834,-9.334 -11.507,0 0,0 Z" /></g><g
           transform="translate(307.1133,209.7764)"
           id="g160"><path
             id="path162"
             style="fill:#873e25;fill-opacity:1;fill-rule:nonzero;stroke:none"
             d="M 0,0 C -1.423,0 -2.786,-0.616 -3.587,-1.9 -1.984,-3.342 1.556,-3.5 3.96,-1.735 2.918,-0.611 1.421,0 0,0 m -0.024,-0.328 c 1.383,0.025 2.677,-0.611 2.859,-1.243 -1.604,-1.763 -4.163,-1.61 -5.766,-0.329 0.702,1.124 1.83,1.553 2.907,1.572" /></g><g
           transform="translate(307.3828,210.7671)"
           id="g164"><path
             id="path166"
             style="fill:#873e25;fill-opacity:1;fill-rule:nonzero;stroke:none"
             d="m 0,0 c -2.083,0 -2.564,-0.481 -3.526,-1.282 -0.962,-0.802 -1.443,-0.642 -1.602,-0.802 -0.159,-0.161 0,-0.643 0.319,-0.481 0.321,0.161 0.962,0.481 1.924,1.283 0.961,0.803 1.921,0.801 2.884,0.801 2.884,0 4.486,-2.404 4.807,-2.245 C 5.125,-2.565 3.203,0 -0.001,0 L 0,0 Z" /></g><g
           transform="translate(313.1484,209.8071)"
           id="g168"><path
             id="path170"
             style="fill:#873e25;fill-opacity:1;fill-rule:nonzero;stroke:none"
             d="m 0,0 c -3.684,3.208 -8.331,3.689 -10.897,1.282 -0.627,-0.842 -1.03,-1.741 -1.194,-2.678 -0.323,-1.827 0.247,-3.8 1.677,-5.822 -0.16,0 -0.483,-0.16 -0.643,-0.32 -1.271,2.435 -1.721,4.935 -1.304,7.313 0.109,0.622 0.28,1.233 0.502,1.829 C -8.334,4.49 -3.526,4.812 0,0" /></g><g
           transform="translate(307.0605,209.6519)"
           id="g172"><path
             id="path174"
             style="fill:#873e25;fill-opacity:1;fill-rule:nonzero;stroke:none"
             d="M 0,0 C 0.797,0 1.443,-0.646 1.443,-1.444 1.443,-2.24 0.797,-2.888 0,-2.888 c -0.795,0 -1.441,0.648 -1.441,1.444 C -1.441,-0.646 -0.795,0 0,0" /></g><g
           transform="translate(311.2295,207.2397)"
           id="g176"><path
             id="path178"
             style="fill:#873e25;fill-opacity:1;fill-rule:nonzero;stroke:none"
             d="M 0,0 C -2.725,-2.084 -5.449,-1.924 -7.051,-0.961 -8.653,0 -8.653,0.321 -8.334,0.321 -8.014,0.321 -7.693,0 -6.411,-0.641 -5.127,-1.282 -3.207,-1.282 -0.003,0 L 0,0 Z" /></g><g
           transform="translate(296.8223,202.4365)"
           id="g180"><path
             id="path182"
             style="fill:#873e25;fill-opacity:1;fill-rule:nonzero;stroke:none"
             d="m 0,0 c -0.685,-0.125 -1.173,-0.733 -1.173,-1.431 0,-0.796 0.658,-1.43 1.453,-1.43 0.47,0 0.904,0.223 1.174,0.609 0.553,-0.417 1.323,-0.46 1.734,-0.47 l 0.188,0 c 0.409,0.01 1.179,0.053 1.734,0.47 0.269,-0.386 0.702,-0.609 1.17,-0.609 0.795,0 1.454,0.634 1.454,1.43 0,0.698 -0.487,1.306 -1.171,1.431 0.384,-0.136 0.632,-0.508 0.632,-0.915 0,-0.531 -0.428,-0.96 -0.961,-0.96 -0.509,0 -0.929,0.404 -0.96,0.913 -0.157,-0.312 -0.777,-1.242 -1.994,-1.29 -1.215,0.048 -1.833,0.978 -1.991,1.29 -0.03,-0.509 -0.45,-0.913 -0.962,-0.913 -0.53,0 -0.96,0.429 -0.96,0.96 0,0.407 0.25,0.779 0.633,0.915" /></g><g
           transform="translate(298.3906,198.167)"
           id="g184"><path
             id="path186"
             style="fill:#873e25;fill-opacity:1;fill-rule:nonzero;stroke:none"
             d="m 0,0 c -1.603,0 -2.239,-1.454 -3.681,-2.415 0.802,0.319 1.432,0.951 2.555,1.595 1.123,0.639 2.079,-0.141 2.72,-0.141 l 0.023,0 c 0.641,0 1.597,0.78 2.718,0.141 C 5.457,-1.464 6.111,-2.096 6.914,-2.415 5.472,-1.454 4.814,0 3.211,0 2.89,0 2.258,-0.173 1.617,-0.492 l -0.023,0 C 0.953,-0.173 0.319,0 0,0" /></g><g
           transform="translate(297.8506,196.2676)"
           id="g188"><path
             id="path190"
             style="fill:#873e25;fill-opacity:1;fill-rule:nonzero;stroke:none"
             d="m 0,0 c -0.634,-0.027 -1.47,-0.155 -2.673,-0.516 2.887,0.64 3.523,-0.328 4.805,-0.328 l 0.023,0 c 1.283,0 1.919,0.968 4.805,0.328 -3.206,0.961 -3.843,0.329 -4.805,0.329 l -0.023,0 C 1.531,-0.187 1.054,0.047 -0.001,0 L 0,0 Z" /></g><g
           transform="translate(295.3223,195.7725)"
           id="g192"><path
             id="path194"
             style="fill:#873e25;fill-opacity:1;fill-rule:nonzero;stroke:none"
             d="m 0,0 c -0.186,-0.002 -0.389,-0.004 -0.609,-0.024 3.366,-0.321 1.746,-2.251 5.273,-2.251 l 0.023,0 c 3.527,0 1.933,1.93 5.297,2.251 -3.525,0.321 -2.41,-1.758 -5.297,-1.758 l -0.023,0 C 1.958,-1.782 2.793,0.036 0,0" /></g><g
           transform="translate(302.8975,190.5635)"
           id="g196"><path
             id="path198"
             style="fill:#873e25;fill-opacity:1;fill-rule:nonzero;stroke:none"
             d="M 0,0 C 0,1.594 -1.293,2.887 -2.885,2.887 -4.477,2.887 -5.77,1.594 -5.77,0 -5.453,1.336 -4.257,2.28 -2.885,2.28 -1.51,2.28 -0.316,1.336 0,0" /></g><g
           transform="translate(287.0576,209.8071)"
           id="g200"><path
             id="path202"
             style="fill:#873e25;fill-opacity:1;fill-rule:nonzero;stroke:none"
             d="m 0,0 c 3.686,3.208 8.332,3.689 10.896,1.282 0.628,-0.842 1.031,-1.741 1.197,-2.678 0.322,-1.827 -0.25,-3.8 -1.678,-5.822 0.162,0 0.481,-0.16 0.643,-0.32 1.272,2.435 1.721,4.935 1.304,7.313 C 12.253,0.397 12.082,1.008 11.86,1.604 8.335,4.49 3.527,4.812 0.002,0 L 0,0 Z" /></g><g
           transform="translate(292.8257,210.7671)"
           id="g204"><path
             id="path206"
             style="fill:#873e25;fill-opacity:1;fill-rule:nonzero;stroke:none"
             d="m 0,0 c 2.082,0 2.563,-0.481 3.525,-1.282 0.962,-0.802 1.442,-0.642 1.602,-0.802 0.16,-0.161 0,-0.643 -0.32,-0.481 -0.32,0.161 -0.963,0.481 -1.923,1.283 -0.96,0.803 -1.922,0.801 -2.884,0.801 -2.886,0 -4.487,-2.404 -4.807,-2.245 C -5.126,-2.565 -3.204,0 0,0" /></g><g
           transform="translate(292.7275,209.7764)"
           id="g208"><path
             id="path210"
             style="fill:#873e25;fill-opacity:1;fill-rule:nonzero;stroke:none"
             d="M 0,0 C -1.424,0 -2.787,-0.616 -3.587,-1.9 -1.984,-3.342 1.555,-3.5 3.96,-1.735 2.918,-0.611 1.422,0 -0.001,0 L 0,0 Z M -0.023,-0.328 C 1.36,-0.303 2.654,-0.939 2.836,-1.571 1.232,-3.334 -1.327,-3.181 -2.93,-1.9 c 0.701,1.124 1.828,1.553 2.907,1.572" /></g><g
           transform="translate(292.915,209.6519)"
           id="g212"><path
             id="path214"
             style="fill:#873e25;fill-opacity:1;fill-rule:nonzero;stroke:none"
             d="M 0,0 C 0.797,0 1.442,-0.646 1.442,-1.444 1.442,-2.24 0.797,-2.888 0,-2.888 c -0.797,0 -1.443,0.648 -1.443,1.444 C -1.443,-0.646 -0.797,0 0,0" /></g><g
           transform="translate(288.9775,207.2397)"
           id="g216"><path
             id="path218"
             style="fill:#873e25;fill-opacity:1;fill-rule:nonzero;stroke:none"
             d="M 0,0 C 2.725,-2.084 5.45,-1.924 7.051,-0.961 8.653,0 8.653,0.321 8.333,0.321 8.014,0.321 7.693,0 6.411,-0.641 5.129,-1.282 3.206,-1.282 0.001,0 L 0,0 Z" /></g></g></g></g></svg>