<?xml version="1.0" encoding="UTF-8" standalone="no"?>
<svg
   xmlns:dc="http://purl.org/dc/elements/1.1/"
   xmlns:cc="http://creativecommons.org/ns#"
   xmlns:rdf="http://www.w3.org/1999/02/22-rdf-syntax-ns#"
   xmlns:svg="http://www.w3.org/2000/svg"
   xmlns="http://www.w3.org/2000/svg"
   viewBox="0 0 800 533.33331"
   height="533.33331"
   width="800"
   xml:space="preserve"
   version="1.1"
   id="svg2"><metadata
     id="metadata8"><rdf:RDF><cc:Work
         rdf:about=""><dc:format>image/svg+xml</dc:format><dc:type
           rdf:resource="http://purl.org/dc/dcmitype/StillImage" /></cc:Work></rdf:RDF></metadata><defs
     id="defs6" /><g
     transform="matrix(1.3333333,0,0,-1.3333333,0,533.33333)"
     id="g10"><path
       id="path12"
       style="fill:#333a73;fill-opacity:1;fill-rule:nonzero;stroke:none"
       d="M 0.001,0 600,0 l 0,400 -599.999,0 0,-400 z" /><g
       transform="translate(150.0742,136.9521)"
       id="g14"><path
         id="path16"
         style="fill:#ffffff;fill-opacity:1;fill-rule:nonzero;stroke:none"
         d="M 0,0 8.682,-26.999 35.199,-16.955 19.508,-40.578 43.894,-55.054 15.644,-57.512 19.535,-85.604 0,-65.047 l -19.535,-20.557 3.89,28.092 -28.249,2.458 24.386,14.476 -15.691,23.623 L -8.682,-26.999 0,0 Z" /></g><g
       transform="translate(450.2217,126.7725)"
       id="g18"><path
         id="path20"
         style="fill:#ffffff;fill-opacity:1;fill-rule:nonzero;stroke:none"
         d="M 0,0 4.134,-12.856 16.762,-8.071 9.288,-19.322 20.9,-26.216 7.45,-27.387 9.303,-40.765 0,-30.975 l -9.302,-9.79 1.853,13.378 -13.453,1.171 11.613,6.894 -7.472,11.251 12.625,-4.785 L 0,0 Z" /></g><g
       transform="translate(375.1846,245.6064)"
       id="g22"><path
         id="path24"
         style="fill:#ffffff;fill-opacity:1;fill-rule:nonzero;stroke:none"
         d="m 0,0 4.135,-12.857 12.627,4.784 -7.474,-11.25 11.612,-6.892 -13.45,-1.17 1.853,-13.379 -9.303,9.79 -9.302,-9.79 1.853,13.379 -13.452,1.17 11.612,6.892 -7.472,11.25 12.625,-4.784 L 0,0 Z" /></g><g
       transform="translate(450.2217,350.9321)"
       id="g26"><path
         id="path28"
         style="fill:#ffffff;fill-opacity:1;fill-rule:nonzero;stroke:none"
         d="M 0,0 4.134,-12.858 16.762,-8.074 9.288,-19.323 20.9,-26.216 7.45,-27.387 9.303,-40.765 0,-30.975 l -9.302,-9.79 1.853,13.378 -13.453,1.171 11.613,6.893 -7.472,11.249 12.625,-4.784 L 0,0 Z" /></g><g
       transform="translate(516.9199,289.6387)"
       id="g30"><path
         id="path32"
         style="fill:#ffffff;fill-opacity:1;fill-rule:nonzero;stroke:none"
         d="M 0,0 4.134,-12.857 16.762,-8.075 9.291,-19.323 20.902,-26.216 7.45,-27.387 9.303,-40.764 0,-30.975 l -9.302,-9.789 1.853,13.377 -13.452,1.171 11.614,6.893 -7.474,11.248 12.627,-4.782 L 0,0 Z" /></g><g
       transform="translate(480.2363,205.4004)"
       id="g34"><path
         id="path36"
         style="fill:#ffffff;fill-opacity:1;fill-rule:nonzero;stroke:none"
         d="m 0,0 3.268,-8.01 8.626,-0.635 -6.609,-5.582 2.067,-8.4 -7.352,4.56 -7.351,-4.56 2.064,8.4 -6.608,5.582 8.626,0.635 L 0,0 Z" /></g><g
       transform="translate(125.0622,399.9996)"
       id="g38"><path
         id="path40"
         style="fill:#ffffff;fill-opacity:1;fill-rule:nonzero;stroke:none"
         d="m 0,0 0,-65.727 -125.061,0 0,-66.928 125.061,0 0,-66.926 50.024,0 0,66.926 125.061,0 0,66.928 -125.061,0 L 50.024,0 0,0 Z" /></g><g
       transform="translate(9e-4,399.9996)"
       id="g42"><path
         id="path44"
         style="fill:#ffffff;fill-opacity:1;fill-rule:nonzero;stroke:none"
         d="m 0,0 0,-21.248 266.589,-178.333 33.557,0 0,22.446 L 35.354,0 0,0 Z" /></g><g
       transform="translate(264.7935,399.9996)"
       id="g46"><path
         id="path48"
         style="fill:#ffffff;fill-opacity:1;fill-rule:nonzero;stroke:none"
         d="m 0,0 -264.793,-177.135 0,-22.446 33.558,0 L 35.356,-21.248 35.356,0 0,0 Z" /></g><g
       transform="translate(135.0666,399.9996)"
       id="g50"><path
         id="path52"
         style="fill:#e5322e;fill-opacity:1;fill-rule:nonzero;stroke:none"
         d="m 0,0 0,-79.112 -135.066,0 0,-40.156 135.066,0 0,-80.313 30.015,0 0,80.313 135.066,0 0,40.156 -135.066,0 L 30.015,0 0,0 Z" /></g><g
       transform="translate(275.9805,399.9996)"
       id="g54"><path
         id="path56"
         style="fill:#e5322e;fill-opacity:1;fill-rule:nonzero;stroke:none"
         d="m 0,0 -98.253,-65.727 22.37,0 L 22.371,0 0,0 Z m -275.98,0 0,-13.764 77.678,-51.963 22.371,0 L -274.183,0 -275.98,0 Z" /></g><g
       transform="translate(200.0988,267.345)"
       id="g58"><path
         id="path60"
         style="fill:#e5322e;fill-opacity:1;fill-rule:nonzero;stroke:none"
         d="m 0,0 100.05,-66.927 0,14.965 L 22.372,0 0,0 Z m -100.05,0 -100.049,-66.927 22.372,0 L -77.677,0 -100.05,0 Z" /></g></g></svg>