<?xml version="1.0" encoding="UTF-8" standalone="no"?>
<svg
   xmlns:dc="http://purl.org/dc/elements/1.1/"
   xmlns:cc="http://creativecommons.org/ns#"
   xmlns:rdf="http://www.w3.org/1999/02/22-rdf-syntax-ns#"
   xmlns:svg="http://www.w3.org/2000/svg"
   xmlns="http://www.w3.org/2000/svg"
   viewBox="0 0 800 533.33331"
   height="533.33331"
   width="800"
   xml:space="preserve"
   version="1.1"
   id="svg2"><metadata
     id="metadata8"><rdf:RDF><cc:Work
         rdf:about=""><dc:format>image/svg+xml</dc:format><dc:type
           rdf:resource="http://purl.org/dc/dcmitype/StillImage" /></cc:Work></rdf:RDF></metadata><defs
     id="defs6"><clipPath
       id="clipPath18"
       clipPathUnits="userSpaceOnUse"><path
         id="path20"
         d="M 0,400 600,400 600,0 0,0 0,400 Z" /></clipPath></defs><g
     transform="matrix(1.3333333,0,0,-1.3333333,0,533.33333)"
     id="g10"><path
       id="path12"
       style="fill:#209244;fill-opacity:1;fill-rule:nonzero;stroke:none"
       d="M 0,0 600,0 600,400 0,400 0,0 Z" /><g
       id="g14"><g
         clip-path="url(#clipPath18)"
         id="g16"><g
           transform="translate(537.1582,200.1143)"
           id="g22"><path
             id="path24"
             style="fill:#fcc023;fill-opacity:1;fill-rule:nonzero;stroke:none"
             d="m 0,0 -236.629,-151.429 -236.173,150.983 0,0.663 236.173,150.755 L 0,0 Z m -136.709,0 c 0,-55.839 -45.281,-100.057 -99.92,-100.057 -38.58,0 -82.959,23.223 -97.01,76.377 -0.445,1.566 -2.683,13.852 -2.683,18.537 l 0,10.058 c 0.228,6.468 1.564,14.068 3.127,20.32 3.117,13.177 9.817,27.473 21.414,40.422 22.966,25.908 51.067,34.172 75.152,34.172 55.758,0 99.92,-45.109 99.92,-99.829" /></g><g
           transform="translate(307.4453,299.7256)"
           id="g26"><path
             id="path28"
             style="fill:#35376e;fill-opacity:1;fill-rule:nonzero;stroke:none"
             d="m 0,0 c 60.439,-5.588 93.004,-54.274 93.004,-99.611 0,-2.686 -1.119,-12.96 -1.119,-13.852 -42.154,34.617 -85.412,50.252 -127.349,55.166 -5.124,0.446 -15.386,1.337 -16.06,1.337 l -24.529,0 -21.63,-2.228 0,0.891 c 2.009,4.24 4.235,8.709 6.917,12.732 C -70.472,-14.526 -39.47,-1.566 -13.822,0 L 0,0 Z m 25.203,-67.234 c 0.891,-0.217 2.009,-0.217 2.9,-0.217 -0.891,-0.446 -2.455,-1.338 -2.455,-1.783 0,-0.675 0.673,-1.795 0.891,-2.686 -0.673,0.445 -1.78,1.566 -2.453,1.566 -0.446,0 -1.566,-1.121 -2.228,-1.566 0.218,0.891 0.892,2.011 0.892,2.686 0,0.445 -1.564,1.109 -2.454,1.783 0.89,0 2.008,0 2.899,0.217 0.445,0.674 0.891,1.795 1.117,2.457 0.218,-0.892 0.447,-1.783 0.891,-2.457" /></g><g
           transform="translate(255.2598,228.2515)"
           id="g30"><path
             id="path32"
             style="fill:#35376e;fill-opacity:1;fill-rule:nonzero;stroke:none"
             d="m 0,0 c 8.697,-0.446 17.841,-1.337 26.767,-2.902 6.243,-1.339 13.149,-2.457 19.621,-4.241 6.471,-1.795 12.932,-3.795 19.404,-6.034 4.019,-1.338 8.252,-3.12 12.487,-4.914 12.042,-5.132 24.758,-11.841 37.245,-20.322 4.018,-2.684 8.025,-5.587 12.042,-8.707 3.127,-2.458 12.932,-10.274 12.932,-11.165 0,-2.012 -5.125,-12.962 -5.352,-13.407 -6.016,-14.514 -24.53,-34.845 -39.701,-42.878 -2.441,-1.121 -4.451,-2.459 -6.687,-3.578 -13.15,-6.697 -29.883,-10.046 -43.489,-10.046 -36.799,0 -80.505,21.441 -95.891,72.365 -0.674,2.23 -1.347,4.687 -1.793,7.143 -0.89,4.24 -1.78,12.504 -1.78,12.949 l 0,14.971 c 0.217,2.457 0.674,5.132 0.89,7.589 0.674,3.348 1.336,6.697 2.226,10.045 9.154,1.566 18.069,2.915 27.44,3.132 L 0,0 Z m -32.565,-9.154 c -0.662,-0.446 -2.227,-1.12 -2.227,-1.784 0,-0.456 0.663,-1.564 0.892,-2.456 -0.674,0.446 -1.781,1.554 -2.454,1.554 -0.446,0 -1.564,-1.108 -2.227,-1.784 0.446,0.893 0.891,2.23 0.891,2.686 0,0.664 -1.335,1.109 -2.238,1.784 0.903,0 1.793,0 2.683,0.216 0.445,0.675 0.891,1.795 1.119,2.687 0,-1.783 1.552,-3.578 3.561,-2.903 M 74.936,-22.331 c -0.447,-0.446 -1.336,-0.892 -1.336,-1.337 0,-0.675 0.216,-1.121 0.444,-1.566 -0.444,0.217 -0.89,0.891 -1.563,0.891 -0.446,0 -0.89,-0.674 -1.335,-0.891 0,0.445 0.445,1.12 0.445,1.566 0,0.662 -0.891,0.891 -1.565,1.337 0.674,-0.229 1.335,-0.229 1.782,0 0.444,0.445 0.673,1.12 0.9,1.565 -0.456,-1.12 1.108,-2.24 2.228,-1.565 M 10.478,-31.269 C 9.816,-31.713 8.47,-32.16 8.47,-32.834 c 0,-0.446 0.445,-1.337 0.673,-1.999 -0.446,0.215 -1.335,1.107 -1.781,1.107 -0.673,0 -1.347,-0.892 -2.009,-1.337 0.217,0.674 0.662,1.566 0.662,2.229 0,0.445 -1.107,1.121 -1.78,1.565 0.673,0 1.563,0 2.225,0.229 0.457,0.446 0.674,1.337 0.902,2.012 -0.228,-1.348 1.335,-2.685 3.116,-2.241 m 38.135,-12.056 c -0.662,-0.446 -2.009,-0.892 -2.009,-1.567 0,-0.445 0.458,-1.338 0.673,-2.012 -0.673,0.447 -1.335,1.338 -2.008,1.338 -0.445,0 -1.107,-0.891 -1.781,-1.338 0.217,0.674 0.674,1.567 0.674,2.012 0,0.675 -1.348,1.121 -2.009,1.567 1.552,-0.446 3.116,0.891 3.344,2.228 -0.673,-1.337 1.565,-2.674 3.116,-2.228 m -64.673,-2.458 c -0.228,-0.229 -0.89,-0.229 -0.89,-0.674 0,-0.663 0.217,-0.891 0.445,-1.109 -0.228,0 -0.445,0.662 -1.119,0.662 -0.444,0 -0.662,-0.444 -0.89,-0.662 0.446,0.662 0.228,1.554 -0.673,1.783 0.901,-0.229 1.563,0.891 1.563,1.337 0.674,-1.337 0,-1.12 1.564,-1.337 m -10.261,-5.142 c 0.89,-0.217 1.792,-0.217 2.682,-0.217 -0.674,-0.447 -2.237,-1.339 -2.237,-1.784 0,-0.673 0.673,-1.794 0.89,-2.685 -0.662,0.445 -1.552,1.119 -2.443,1.782 -0.673,-0.663 -1.563,-1.337 -2.237,-1.782 0.229,0.891 0.89,2.012 0.89,2.685 0,0.445 -1.552,1.337 -2.453,1.784 2.237,-0.675 3.572,1.12 4.017,2.674 0.229,-0.893 0.445,-1.783 0.891,-2.457 m 86.314,-1.338 c -0.673,-0.445 -1.792,-1.11 -1.792,-1.566 0,-0.663 0.457,-1.554 0.674,-2.229 -0.674,0.675 -1.335,1.121 -2.009,1.566 -0.445,-0.445 -1.107,-0.891 -1.781,-1.337 0.217,0.663 0.674,1.337 0.674,2 0,0.456 -1.347,1.121 -2.009,1.566 l 2.671,0 c 0,0.674 0.227,1.564 0.445,2.241 0,-1.351 1.335,-2.686 3.127,-2.241 m -24.312,-0.218 2.009,0 c -0.445,-0.445 -1.336,-0.892 -1.336,-1.348 0,-0.663 0.217,-1.108 0.446,-1.554 -0.446,0.446 -0.891,1.11 -1.564,1.11 -0.445,0 -0.89,-0.664 -1.336,-1.11 0,0.446 0.446,1.11 0.446,1.554 0,0.674 -0.891,0.903 -1.564,1.348 0.673,-0.227 2.899,0.664 2.454,1.782 0.228,-0.443 0.445,-1.118 0.445,-1.782 m 6.244,-7.153 c -0.217,-0.217 -0.891,-0.446 -0.891,-1.109 0,-0.446 0.229,-0.674 0.445,-0.904 -0.216,0 -0.673,0.676 -1.118,0.676 -0.662,0 -0.662,-0.446 -1.108,-0.676 0.217,0.23 0.446,0.458 0.446,1.121 0,0.446 -0.673,0.675 -1.118,0.892 0.228,0.228 1.78,-0.217 1.78,1.119 -0.217,-0.674 0.902,-1.336 1.564,-1.119 m -78.953,-0.892 c -0.445,-0.217 -1.553,-0.663 -1.553,-1.337 0,-0.446 0.446,-1.12 0.446,-1.564 -0.446,0.444 -0.89,1.118 -1.564,1.118 -0.446,0 -0.89,-0.674 -1.336,-1.118 0.217,0.444 0.446,0.89 0.446,1.564 0,0.446 -0.891,0.892 -1.564,1.337 0.89,-0.217 2.671,0.675 2.671,1.784 -0.663,-1.109 1.564,-2.001 2.454,-1.784 m 31.23,-0.445 c 0.662,-0.218 1.563,-0.218 2.454,-0.218 -0.674,-0.458 -2.01,-1.12 -2.01,-1.564 0,-0.674 0.446,-1.567 0.674,-2.243 -0.456,0.448 -1.347,1.35 -1.792,1.35 -0.662,0 -1.336,-0.902 -2.009,-1.35 0.229,0.676 0.673,1.568 0.673,2.013 0,0.674 -1.335,1.336 -1.78,1.794 1.552,-0.458 2.899,0.892 3.116,2.23 0,-0.675 0.445,-1.567 0.674,-2.012 m 122.213,-0.892 c 0.89,-0.227 2.009,-0.227 2.898,-0.227 -0.889,-0.663 -2.453,-1.337 -2.453,-2.014 0,-0.444 0.445,-1.554 0.891,-2.444 -0.663,0.445 -1.782,1.552 -2.456,1.552 -0.445,0 -1.551,-1.107 -2.225,-1.552 0.228,0.89 0.891,2 0.891,2.673 0,0.448 -1.565,1.122 -2.456,1.785 0.891,0 2.01,0 2.901,0.227 0.444,0.674 0.673,1.566 0.889,2.457 0.458,-0.891 0.674,-1.783 1.12,-2.457 m 15.168,-1.783 c -0.445,-0.229 -1.336,-0.674 -1.336,-1.12 0,-0.674 0.218,-1.119 0.446,-1.566 -0.446,0.229 -0.901,0.892 -1.345,0.892 -0.663,0 -1.109,-0.663 -1.554,-0.892 0.218,0.447 0.445,0.892 0.445,1.566 0,0.446 -0.889,0.891 -1.346,1.12 1.564,-0.674 1.792,1.337 2.455,1.783 -0.218,-1.12 0.899,-2.012 2.235,-1.783 m -140.28,-7.371 c 0.661,-0.23 1.563,-0.23 2.225,-0.23 -0.662,-0.445 -1.78,-1.118 -1.78,-1.565 0,-0.662 0.444,-1.337 0.673,-2.012 -0.673,0.459 -1.347,1.35 -2.009,1.35 -0.445,0 -1.119,-0.891 -1.792,-1.35 0.228,0.675 0.673,1.567 0.673,2.012 0,0.674 -1.335,1.12 -2.008,1.565 0.89,-0.216 3.343,0.23 3.127,2.242 0.216,-0.674 0.662,-1.565 0.891,-2.012 m 131.355,-0.23 c -0.662,-0.445 -2.01,-0.891 -2.01,-1.336 0,-0.674 0.447,-1.566 0.673,-2.241 -0.673,0.459 -1.335,1.35 -2.008,1.35 -0.445,0 -1.118,-0.891 -1.78,-1.35 0.218,0.675 0.662,1.35 0.662,2.012 0,0.447 -1.107,1.12 -1.78,1.565 1.563,-0.216 2.682,0.675 3.126,2.242 -0.228,-1.35 1.337,-2.687 3.117,-2.242 m -76.27,-0.445 c 0.889,-0.217 2.009,-0.217 2.899,-0.217 -0.89,-0.674 -2.455,-1.348 -2.455,-1.794 0,-0.662 0.674,-1.783 0.891,-2.673 -0.661,0.443 -1.781,1.552 -2.454,1.552 -0.445,0 -1.564,-1.109 -2.226,-1.552 0.217,0.89 0.891,2.011 0.891,2.673 0,0.446 -1.565,1.12 -2.455,1.794 0.89,0 2.009,0 2.9,0.217 0.445,0.675 0.89,1.783 1.118,2.459 0.217,-0.893 0.445,-1.784 0.891,-2.459 m 70.027,-7.589 c -0.662,-0.444 -1.781,-1.119 -1.781,-1.564 0,-0.674 0.445,-1.338 0.661,-2.012 -0.661,0.445 -1.334,1.338 -1.997,1.338 -0.445,0 -1.118,-0.893 -1.793,-1.338 0.229,0.674 0.675,1.565 0.675,2.229 0,0.446 -1.336,0.903 -2.009,1.347 0.89,-0.227 3.344,0.218 3.127,2.23 -0.228,-1.338 1.781,-2.674 3.117,-2.23 M 9.143,-80.182 c -0.673,-0.446 -2.454,-1.11 -2.454,-1.784 0,-0.446 0.673,-1.784 0.89,-2.674 -0.662,0.664 -1.781,1.783 -2.226,1.783 -0.673,0 -1.563,-1.119 -2.454,-1.783 0.217,0.89 0.891,2 0.891,2.674 0,0.447 -1.564,1.338 -2.227,1.784 0.891,0 1.781,0 2.672,0.227 0.445,0.674 0.89,1.784 1.118,2.674 -0.228,-1.782 1.336,-3.564 3.79,-2.901 m 88.312,-2.458 c -0.444,-0.217 -1.552,-0.662 -1.552,-1.11 0,-0.673 0.446,-1.118 0.446,-1.564 -0.446,0.228 -0.904,0.891 -1.347,0.891 -0.663,0 -1.108,-0.663 -1.555,-1.119 0.218,0.456 0.663,1.347 0.663,1.792 0,0.665 -1.105,0.893 -1.562,1.11 0.899,-0.217 2.454,0.674 2.454,1.795 -0.219,-1.121 1.347,-2.012 2.453,-1.795 m -27.644,-0.892 c -0.458,-0.444 -1.348,-0.891 -1.348,-1.336 0,-0.674 0.228,-1.12 0.444,-1.566 -0.444,0.446 -1.105,1.12 -1.552,1.12 -0.672,0 -1.118,-0.892 -1.563,-1.12 0.217,0.446 0.662,1.12 0.662,1.566 0,0.673 -0.891,0.892 -1.553,1.336 0.891,-0.218 2.67,0.675 2.454,1.795 -0.227,-1.12 1.336,-2.013 2.456,-1.795 m 37.905,-0.891 c -0.445,-0.445 -1.335,-0.891 -1.335,-1.338 0,-0.673 0.217,-1.118 0.446,-1.565 -0.446,0.229 -0.89,0.892 -1.565,0.892 -0.445,0 -0.891,-0.445 -1.334,-0.892 0,0.447 0.443,0.892 0.443,1.565 0,0.447 -1.117,1.121 -1.562,1.338 0.673,-0.217 2.898,0.673 2.453,1.783 -0.217,-1.11 1.336,-2 2.454,-1.783 m -21.413,-1.565 c -0.445,-0.218 -1.552,-0.664 -1.552,-1.109 0,-0.674 0.444,-1.121 0.444,-1.565 -0.444,0.217 -0.89,0.891 -1.345,0.891 -0.662,0 -0.891,-0.674 -1.335,-0.891 0,0.444 0.444,0.891 0.444,1.565 0,0.445 -1.107,0.891 -1.552,1.109 0.89,-0.218 2.671,0.674 2.443,1.793 -0.445,-1.119 1.345,-2.011 2.453,-1.793 m 12.27,-6.252 c -0.673,-0.445 -2.009,-0.89 -2.009,-1.338 0,-0.673 0.447,-1.564 0.673,-2.24 -0.673,0.457 -1.334,1.35 -2.008,1.35 -0.446,0 -1.119,-0.893 -1.782,-1.35 0.218,0.675 0.663,1.35 0.663,2.014 0,0.443 -1.106,1.119 -1.78,1.564 1.564,-0.445 2.899,0.674 3.115,2.457 -0.216,-1.783 1.348,-2.902 3.128,-2.457 m -20.294,-2.459 c -0.673,-0.443 -1.781,-0.889 -1.781,-1.564 0,-0.446 0.446,-1.337 0.663,-2 -0.663,0.446 -1.336,1.338 -2.01,1.338 -0.446,0 -1.107,-0.892 -1.78,-1.338 0.229,0.663 0.673,1.554 0.673,2 0,0.675 -1.118,1.121 -1.792,1.564 0.674,0 1.347,0 2.01,0.231 0.443,0.446 0.889,1.338 1.117,2.011 -0.443,-1.347 1.565,-2.685 2.9,-2.242 m 19.405,-7.816 c -0.447,-0.216 -1.12,-0.662 -1.565,-1.108 0.23,-0.457 0.445,-1.119 0.674,-1.794 -0.444,0.446 -0.89,1.12 -1.564,1.12 -0.446,0 -0.89,-0.674 -1.335,-0.892 0,0.447 0.445,0.892 0.445,1.566 0,0.446 -1.118,0.892 -1.565,1.108 0.891,-0.216 2.671,0.674 2.455,1.795 -0.227,-1.121 1.335,-2.011 2.455,-1.795 m -51.296,-3.565 c -0.446,-0.229 -0.891,-0.457 -0.446,-1.347 -0.228,0.226 0,0.443 -0.673,0.443 -0.445,0 -0.445,-0.217 -0.445,-0.443 0,0.226 0.228,0.226 0.228,0.674 0,0.673 -0.446,0.444 -0.446,0.444 0.446,0.229 0.663,0.674 0.663,0.892 0.228,-0.218 0,-0.446 1.119,-0.663" /></g><g
           transform="translate(240.3179,240.3081)"
           id="g34"><path
             id="path36"
             style="fill:#1f8f40;fill-opacity:1;fill-rule:nonzero;stroke:none"
             d="m 0,0 c 2.672,-0.446 3.345,-3.12 3.345,-4.685 0,-2.686 -1.564,-4.686 -4.691,-4.686 l -3.562,0 0,9.371 L 0,0 Z m 15.387,0 0,-1.554 -6.689,0 0,-2.011 c 1.781,-0.229 3.562,-0.229 5.353,0 l 0,-1.565 -5.353,0 0,-2.686 c 5.353,0 6.244,-0.217 6.906,-0.217 -0.217,-0.446 -0.217,-1.121 -0.217,-1.566 -0.228,0 -0.445,0 -0.674,0.228 -4.907,-0.228 -6.905,0.446 -7.579,0 0.229,4.011 0.229,8.925 0,9.371 6.027,-0.216 7.134,-0.216 8.253,0 M -9.142,-3.348 c 0,-0.446 -1.119,-1.783 -1.119,-2.458 0,-0.445 0.89,-2.456 1.119,-3.565 l -1.564,-0.228 c -0.89,2.902 0,3.348 -2.454,3.348 -0.674,0 -1.564,-0.217 -2.454,-0.217 l 0,-3.577 -1.781,0 0.217,0.229 c 0,1.554 0,3.348 -0.217,9.37 1.553,-0.217 4.235,0 4.68,0 2.226,0 3.573,-0.89 3.573,-2.902 m 31.446,2.685 c 0.217,-2.011 0.662,-4.25 1.335,-6.48 0.891,2.012 1.781,4.023 2.454,6.035 l 2.226,0 -0.89,-9.383 c -0.89,0 -1.118,0.217 -1.336,0.217 0.218,1.795 0.218,2.903 0.218,5.817 -0.663,-1.794 -1.553,-3.805 -2.227,-5.588 l -1.334,0 -1.348,6.034 C 20.74,-5.576 20.74,-7.816 20.512,-9.816 l -1.107,0 0,3.565 c 0.217,1.794 0.445,3.794 0.662,5.588 l 2.237,0 z m -43.717,-5.805 c 0,-2.24 -1.335,-4.469 -4.018,-4.469 -3.115,0 -4.006,2.675 -4.006,4.686 0,1.794 0.445,4.469 3.79,4.469 3.116,0 4.234,-2.458 4.234,-4.686 m 21.185,4.686 c 2.009,-0.892 1.792,-1.566 1.792,-2.903 0,-1.337 -0.673,-2.903 -2.682,-2.903 l -2.226,0 0,5.806 3.116,0 z M -11.151,-3.12 c 0,-1.337 -3.128,-1.565 -3.573,-1.565 l -0.89,0 c 0,0.445 0,1.12 -0.228,2.456 0.902,-0.228 2.237,0 2.682,0 1.335,0 2.009,0 2.009,-0.891 m -12.042,-3.348 c 0,-1.12 -0.446,-2.686 -2.238,-2.686 -1.78,0 -2.453,2.011 -2.453,2.903 0,1.337 0.445,2.686 2.237,2.686 2.008,0 2.454,-2.011 2.454,-2.903 m 70.243,1.555 c -0.216,-0.218 -0.216,-0.663 -0.216,-1.338 -2.01,0.229 -3.573,0.675 -5.126,0.891 -0.228,-0.216 -0.228,-0.662 -0.457,-1.554 1.348,-0.457 2.9,-0.674 4.247,-0.902 l 0,-1.338 c -2.009,0.229 -3.344,0.446 -4.463,0.675 -0.228,-0.446 -0.228,-1.12 -0.446,-2.24 1.565,-0.446 3.345,-0.663 5.126,-0.892 0.228,-0.446 0,-1.12 0,-1.566 -2.226,0.446 -4.464,0.903 -6.689,1.12 0.445,2.686 0.891,5.589 1.335,8.263 2.683,-0.446 4.692,-0.663 6.689,-1.119 m 12.944,-1.784 c 1.552,-1.119 6.689,0 6.689,-4.022 0,-1.783 -1.563,-2.904 -2.9,-2.904 -0.444,0 -2.899,0.675 -4.235,1.121 -0.444,-0.892 -0.673,-2.012 -0.901,-3.349 -0.891,0 -1.336,0.217 -1.552,0.217 l 2.226,8.937 0.673,0 z m 4.908,-4.022 c 0,-0.446 -0.673,-1.11 -1.119,-1.11 -0.674,0 -2.453,0.664 -3.789,1.11 l 0.662,2.011 c 0,0 4.246,-0.217 4.246,-2.011 m 13.823,-3.349 c 0,-1.12 -1.335,-2.229 -2.226,-3.12 0,-0.446 0.216,-0.674 0.216,-1.12 0,-0.674 -0.216,-1.783 -0.673,-2.686 -1.551,0 -1.107,1.349 -0.889,2.012 l 0,0.674 c 0,0.446 0,0.674 -0.218,1.12 -0.891,0.445 -2.899,1.337 -3.345,1.337 -0.673,0 -1.117,-2.24 -1.563,-3.348 -0.89,0.662 -1.118,0.445 -1.118,1.108 0,0.457 1.792,5.36 2.681,8.046 2.454,-0.446 7.135,-0.892 7.135,-4.023 m -2.01,0 c 0,-1.12 -0.889,-1.12 -1.118,-1.12 -0.662,0 -2.454,0.674 -3.561,1.12 l 0.662,2.011 c 0.902,-0.217 4.017,-0.217 4.017,-2.011 m 13.162,-5.131 c 0,-2.241 -1.781,-4.915 -4.462,-4.915 -3.345,0 -3.79,2.903 -3.79,4.469 0,2.228 1.334,4.686 4.235,4.686 2.898,0 4.017,-2.012 4.017,-4.24 m -1.781,0 c 0,-1.567 -1.119,-3.132 -2.899,-3.132 -1.118,0 -2.01,1.565 -2.01,2.457 0,1.337 0.892,3.131 2.9,3.131 1.563,0 2.009,-1.565 2.009,-2.456 m 13.149,-4.915 c -0.445,0.218 -1.335,0.663 -1.552,0.892 -0.229,0.445 -0.229,1.12 -0.673,1.337 -0.228,0.445 -1.119,0.674 -1.563,0.674 -2.227,0 -2.9,-1.783 -2.9,-3.131 0,-1.338 0.444,-2.903 2.236,-2.903 0.446,0 1.108,0.445 1.781,0.891 -0.227,0.229 -0.673,0.446 -1.118,0.674 0,0.229 0.228,0.675 0.445,1.12 0.891,-0.445 2.009,-0.891 3.128,-1.348 -0.674,-1.337 -1.336,-2.903 -2.009,-4.24 -0.228,0.445 -1.564,0.445 -0.673,1.337 -4.008,-0.217 -5.353,1.794 -5.353,4.469 0,2.24 1.345,4.697 4.462,4.697 2.237,0 3.789,-1.349 3.789,-4.469 m 11.825,-4.24 c 0,-0.674 -0.228,-1.794 -1.564,-2.457 -0.215,-0.229 -0.661,-0.457 -1.119,-0.674 0,-0.229 0.23,0 0.23,-0.675 0,-0.445 -0.673,-2.01 -1.119,-2.903 -0.217,0 -0.663,0.23 -1.109,0.447 0.218,0.891 0.663,2.239 0.663,2.685 0,2.012 -1.562,1.337 -3.344,2.674 -0.663,-0.891 -1.335,-2.011 -1.781,-3.12 -0.444,0.217 -1.118,0.663 -1.118,1.109 l 4.018,7.817 c 2.225,-1.783 6.243,-1.337 6.243,-4.903 m -1.779,0.217 c 0,-0.891 -0.904,-1.337 -1.347,-1.337 -0.446,0 -2.454,1.337 -3.563,1.783 0.446,0.674 0.662,1.337 1.109,2.011 0.673,-0.228 3.801,-1.12 3.801,-2.457 m 13.376,-4.686 c 0,-0.445 -0.444,-1.12 -0.674,-1.565 l -5.569,3.12 c -0.445,-0.446 -0.89,-1.109 -1.119,-1.555 1.565,-0.902 3.128,-1.793 4.691,-2.902 -0.227,-0.229 -0.456,-0.675 -0.673,-1.12 l -4.68,2.675 c -0.457,-0.663 -0.902,-1.555 -1.347,-2.23 2.009,-1.12 4.017,-2.456 6.027,-3.577 -0.229,-0.445 -0.445,-0.891 -0.89,-1.337 -0.891,0.674 -6.918,3.578 -6.918,4.469 0,0.445 0.891,2.229 1.564,3.12 0.662,1.348 2.01,4.023 2.9,4.468 l 6.688,-3.566 z m 9.817,-7.599 c 0,-0.662 0,-1.337 -0.674,-1.337 -0.444,0 -0.891,0.675 -1.335,0.891 0.444,1.337 -1.564,2.903 -2.454,2.903 -0.445,0 -0.892,-0.446 -0.892,-0.891 0,-1.338 3.564,-3.35 3.564,-5.133 0,-1.794 -1.554,-2.457 -2.672,-2.457 -2.454,0 -4.908,2.675 -4.908,4.457 0,0.457 0,0.675 0.228,1.121 2.226,-0.891 1.335,-0.891 1.335,-1.565 0,-1.338 2.454,-2.458 2.9,-2.458 0.445,0 1.119,0.445 1.119,0.902 0,1.11 -3.573,3.121 -3.573,5.133 0,1.782 1.118,2.228 2.226,2.228 2.009,0 5.136,-1.783 5.136,-3.794 m 10.25,-7.143 c 0,-0.446 0,-1.337 -0.662,-1.337 -0.446,0 -0.891,0.663 -1.336,1.109 l 0,0.903 c 0,1.107 -2.01,1.999 -2.454,1.999 -0.446,0 -0.229,-0.217 -0.673,-0.217 0,-0.228 -0.218,-0.228 -0.218,-0.675 0,-1.337 3.345,-3.119 3.345,-5.36 0,-1.565 -1.564,-2.228 -2.454,-2.228 -2.237,0 -5.136,2.674 -5.136,4.469 0,0.663 0.228,0.891 0.444,1.337 0.447,-0.228 1.119,-0.892 1.348,-1.12 -0.673,-0.891 1.335,-3.121 2.671,-3.121 0.444,0 1.117,0.219 1.117,0.892 0,0.445 -3.344,4.686 -3.344,5.361 0,1.564 1.336,2.011 2.454,2.011 1.553,0 4.898,-2.011 4.898,-4.023 m 9.371,-7.816 c 0,-2.906 -2.455,-4.916 -4.68,-4.916 -2.682,0 -3.79,1.784 -3.79,4.023 0,2.675 1.336,4.687 4.452,4.687 2.899,0 4.018,-1.567 4.018,-3.794 m -1.781,0 c 0,-1.785 -1.564,-3.132 -2.899,-3.132 -1.564,0 -2.238,1.119 -2.238,2.239 0,1.338 1.347,3.12 3.128,3.12 1.335,0 2.009,-0.891 2.009,-2.227" /></g><g
           transform="translate(255.7046,242.5483)"
           id="g38"><path
             id="path40"
             style="fill:#ffffff;fill-opacity:1;fill-rule:nonzero;stroke:none"
             d="m 0,0 c 9.816,-0.674 20.066,-1.565 30.111,-3.349 6.46,-1.12 12.932,-2.457 19.404,-4.251 6.015,-1.554 12.259,-3.566 18.285,-5.577 15.16,-5.143 30.328,-12.285 45.499,-21.44 2.671,-1.566 30.544,-20.331 30.544,-22.114 0,-3.132 -3.561,-15.189 -3.561,-15.407 -4.234,3.568 -8.926,7.59 -13.16,10.937 -37.691,28.596 -75.826,41.772 -113.516,46.013 -4.463,0.445 -13.389,1.119 -14.051,1.119 l -23.638,0 c -9.372,-0.228 -17.396,-1.565 -27.44,-3.13 l 0,0.674 c 1.346,4.468 2.898,10.045 5.136,14.285 6.917,1.12 14.495,1.794 21.858,2.24 L 0,0 Z m -15.387,-2.24 c 2.672,-0.446 3.345,-3.12 3.345,-4.685 0,-2.686 -1.563,-4.686 -4.691,-4.686 l -3.79,0 0,9.371 5.136,0 z m 15.387,0 0,-1.554 -6.688,0 0,-2.012 c 1.78,-0.228 3.561,-0.228 5.353,0 l 0,-1.565 -5.353,0 0,-2.686 c 5.353,0 6.243,-0.216 6.905,-0.216 C 0,-10.72 0,-11.394 0,-11.839 c -0.228,0 -0.445,0 -0.673,0.228 -4.908,-0.228 -6.906,0.445 -7.579,0 0.228,4.011 0.228,8.925 0,9.371 6.026,-0.217 7.133,-0.217 8.252,0 m -24.529,-3.348 c 0,-0.446 -1.118,-1.783 -1.118,-2.458 0,-0.446 0.444,-0.662 0.444,-1.108 0.229,-0.675 0.445,-1.566 0.674,-2.685 l -1.564,0 c -0.89,2.902 0,3.347 -2.453,3.347 -0.675,0 -1.565,-0.216 -2.455,-0.216 l 0,-3.578 -1.335,0 c -0.228,2.903 -0.445,6.035 -0.674,9.155 1.564,0.228 4.464,0.445 4.908,0.445 2.226,0 3.573,-0.891 3.573,-2.902 m 31.446,2.685 c 0.217,-2.011 0.663,-4.25 1.335,-6.48 0.891,2.012 1.781,4.023 2.455,6.034 l 2.226,0 -0.891,-9.382 c -0.89,0 -1.118,0.216 -1.335,0.216 0.217,1.795 0.217,2.904 0.445,4.699 l -0.445,0.445 C 10.033,-8.937 9.371,-10.72 8.698,-12.286 l -1.335,0 c -0.446,1.784 -0.891,3.794 -1.348,5.589 -0.662,-1.795 -0.662,-3.576 -0.89,-5.36 l -1.335,0 0.89,9.371 c 0.89,-0.217 1.564,-0.217 2.237,-0.217 m -43.716,-5.805 c 0,-2.24 -1.336,-4.469 -4.018,-4.469 -3.116,0 -4.235,3.348 -4.235,4.915 0,2.228 1.564,4.24 4.018,4.24 3.117,0 4.235,-2.458 4.235,-4.686 m 21.185,4.686 c 2.009,-0.892 1.792,-1.566 1.792,-2.903 0,-1.337 -0.674,-2.904 -2.683,-2.904 l -2.008,0 0,5.807 2.899,0 z M -26.538,-5.36 c 0,-1.337 -3.128,-1.565 -3.573,-1.565 l -0.89,0 0,2.228 c 0.89,0 2.009,0.228 2.455,0.228 1.335,0 2.008,0 2.008,-0.891 M -38.58,-8.708 c 0,-1.121 -0.445,-2.686 -2.237,-2.686 -2.009,0 -2.226,2.011 -2.226,2.902 0,1.338 0,2.686 2.009,2.686 2.009,0 2.454,-2.01 2.454,-2.902 m 70.244,1.555 c -0.217,-0.447 -0.217,-0.893 -0.217,-1.339 -2.01,0.23 -3.573,0.676 -5.125,0.892 -0.229,-0.216 -0.229,-0.662 -0.457,-1.554 1.347,-0.457 2.9,-0.675 4.246,-0.903 l 0,-1.337 c -2.009,0.228 -3.573,0.674 -4.246,0.674 l -0.445,-0.228 c 0,-0.446 -0.217,-0.891 -0.217,-1.566 0,-1.109 4.018,-1.338 5.125,-1.338 0.228,-0.445 0,-1.119 0,-1.565 -2.226,0.446 -4.463,0.903 -6.689,1.12 0.445,2.686 0.891,5.589 1.336,8.263 2.682,-0.446 4.691,-0.663 6.689,-1.119 m 12.943,-1.784 c 1.553,-1.12 6.689,0 6.689,-4.022 0,-1.784 -1.563,-2.904 -2.9,-2.904 -0.443,0 -2.898,0.675 -4.234,1.12 -0.445,-0.891 -0.673,-2.011 -0.902,-3.348 -0.89,0 -1.336,0.216 -1.552,0.216 l 2.226,8.938 0.673,0 z m 1.553,-2.229 c 1.118,-0.445 3.355,0 3.355,-1.793 0,-0.446 -0.673,-1.11 -1.119,-1.11 -0.674,0 -2.453,0.664 -3.572,0.892 0,1.12 0.228,1.566 0.228,2.011 l 1.108,0 z m 17.178,-5.142 c 0,-1.121 -1.335,-2.23 -2.226,-3.121 0,-0.446 0.217,-0.674 0.217,-1.119 0,-0.674 -0.217,-1.783 -0.446,-2.686 -1.779,-0.446 -1.117,1.566 -1.117,2.686 0,0.445 0,0.673 -0.218,1.119 -0.89,0.446 -2.899,1.338 -3.344,1.338 -0.674,0 -1.118,-2.24 -1.564,-3.348 -0.445,0.217 -0.89,0.445 -1.335,0.445 l 2.899,8.937 c 2.454,-0.902 7.134,-1.12 7.134,-4.251 m -5.125,1.794 c 1.553,-0.457 3.116,-0.457 3.116,-1.794 0,-1.121 -0.89,-1.121 -1.119,-1.121 -0.662,0 -2.454,0.675 -3.561,1.121 0,0.445 0.218,1.12 0.446,1.794 l 1.118,0 z m 16.278,-6.925 c 0,-2.241 -1.782,-4.915 -4.463,-4.915 -2.455,0 -4.019,2.229 -4.019,4.24 0,2.457 2.009,4.915 4.464,4.915 2.899,0 4.018,-2.012 4.018,-4.24 m -1.782,0 c 0,-1.567 -1.119,-3.132 -2.899,-3.132 -1.563,0 -1.793,1.565 -1.793,2.457 0,1.337 0.445,3.131 2.684,3.131 1.562,0 2.008,-1.565 2.008,-2.456 m 13.377,-4.252 0,-0.663 c -3.126,1.12 -1.336,2.903 -4.017,2.903 -2.226,0 -2.899,-1.783 -2.899,-3.132 0,-1.337 0.445,-2.902 2.237,-2.902 0.445,0 1.107,0.445 1.78,0.891 -0.227,0.228 -0.673,0.446 -1.118,0.674 0,0.229 0.228,0.675 0.445,1.12 0.891,-0.445 2.009,-0.891 3.128,-1.348 -0.674,-1.337 -1.336,-2.903 -2.009,-4.24 -0.228,0.445 -1.564,0.445 -0.673,1.337 -4.007,-0.217 -5.353,1.794 -5.353,4.468 0,2.241 1.346,4.698 4.462,4.698 2.009,0 3.345,-0.903 4.017,-3.806 m 11.597,-4.903 c 0,-0.674 -0.227,-1.794 -1.563,-2.457 -0.216,-0.229 -0.662,-0.457 -1.12,-0.674 0,-0.229 0.23,0 0.23,-0.675 0,-0.445 -0.673,-2.011 -1.119,-2.903 -0.217,0 -0.662,0.229 -1.109,0.447 0.218,0.891 0.664,2.239 0.664,2.685 0,2.011 -1.563,1.337 -3.345,2.674 -0.662,-0.891 -1.335,-2.011 -1.78,-3.12 l -1.336,0.663 c 1.336,2.686 2.671,5.588 4.235,8.263 2.226,-1.783 6.243,-1.337 6.243,-4.903 m -5.353,2.446 c 0.23,0 3.574,-1.109 3.574,-2.229 0,-0.891 -0.904,-1.337 -1.347,-1.337 -0.446,0 -3.346,1.566 -3.346,2.011 0,0.663 0.446,1.109 0.674,1.555 l 0.445,0 z m 16.951,-6.915 c 0,-0.445 -0.445,-1.12 -0.675,-1.565 l -5.568,3.12 c -0.446,-0.446 -0.891,-1.109 -1.12,-1.555 l 4.691,-2.686 -0.673,-1.337 -4.68,2.675 c -0.457,-0.663 -0.902,-1.554 -1.346,-2.229 2.008,-1.12 4.016,-2.457 6.026,-3.577 -0.228,-0.446 -0.444,-0.891 -0.89,-1.337 l -7.145,4.24 4.463,8.046 6.917,-3.795 z m 9.816,-7.6 c 0,-0.662 0,-1.337 -0.674,-1.337 -0.444,0 -0.89,0.675 -1.335,0.892 0.445,1.337 -1.564,2.902 -2.454,2.902 -0.445,0 -0.891,-0.445 -0.891,-0.891 0,-1.337 3.563,-3.349 3.563,-5.132 0,-1.794 -1.554,-2.457 -2.672,-2.457 -2.226,0 -5.125,2.675 -5.125,4.457 0,0.457 0.217,0.675 0.446,1.121 0.444,-0.217 1.105,-0.664 1.335,-1.121 0,-1.337 1.78,-2.902 2.899,-2.902 0.445,0 1.119,0.445 1.119,0.902 0,1.109 -3.573,3.121 -3.573,5.132 0,1.566 1.118,2.457 2.226,2.457 2.009,0 5.136,-2.228 5.136,-4.023 m 10.25,-7.142 c 0,-0.446 0,-1.337 -0.662,-1.337 -0.445,0 -0.891,0.663 -1.336,1.108 l 0,0.904 c 0,1.107 -2.01,1.999 -2.454,1.999 -0.445,0 -0.228,-0.217 -0.673,-0.217 0,-0.229 -0.218,-0.229 -0.218,-0.675 0,-1.337 3.345,-3.119 3.345,-5.36 0,-1.565 -1.563,-2.228 -2.454,-2.228 -2.236,0 -5.136,2.674 -5.136,4.469 0,0.663 0.228,0.891 0.445,1.337 0.446,-0.229 1.119,-0.892 1.347,-1.12 -0.673,-0.891 1.335,-3.121 2.671,-3.121 0.445,0 1.117,0.218 1.117,0.892 0,0.445 -3.343,4.686 -3.343,5.361 0,1.336 1.553,2.227 2.226,2.227 2.01,0 5.125,-2.457 5.125,-4.239 m 9.371,-7.817 c 0,-2.905 -2.455,-4.916 -4.679,-4.916 -2.455,0 -4.019,1.785 -4.019,4.024 0,2.457 2.009,4.914 4.681,4.914 2.898,0 4.017,-2.011 4.017,-4.022 m -1.781,0 c 0,-1.784 -1.563,-3.131 -2.898,-3.131 -1.792,0 -2.01,1.119 -2.01,2.239 0,1.566 0.675,2.903 2.899,2.903 1.335,0 2.009,-0.446 2.009,-2.011" /></g><g
           transform="translate(332.6484,232.4917)"
           id="g42"><path
             id="path44"
             style="fill:#ffffff;fill-opacity:1;fill-rule:nonzero;stroke:none"
             d="M 0,0 C 0.663,-0.217 1.563,-0.217 2.453,-0.446 1.78,-0.892 0.445,-1.555 0.445,-2 c 0,-0.675 0.673,-1.795 0.891,-2.458 -0.673,0.218 -2.009,1.338 -2.453,1.338 -0.663,0 -1.336,-0.892 -2.01,-1.338 0.228,1.109 0.674,1.783 0.674,2.458 0,0.445 -1.119,0.891 -1.781,1.783 0.662,0 1.55,0 2.224,0.217 0.23,0.445 0.675,1.348 0.893,2.011 C -0.673,1.565 -0.444,0.674 0,0 m -112.853,-12.949 c 0.445,-0.675 2.237,-0.446 2.899,-0.446 -0.662,-0.445 -2.008,-1.337 -2.008,-2.011 0,-0.446 0.444,-1.337 0.444,-2.228 -0.662,0.663 -1.552,1.554 -2.225,1.554 0,0 -2.009,-1.554 -2.009,-0.891 0,0.446 0.673,1.337 0.673,1.793 0,0.663 -1.335,1.109 -1.792,1.783 1.564,-0.445 2.899,0.664 3.128,2.457 0.445,-0.445 0.445,-1.336 0.89,-2.011 M -4.018,-26.354 c 0.446,-0.217 1.119,-0.217 1.565,-0.446 -0.446,-0.217 -1.337,-0.663 -1.337,-1.109 0,-0.674 0.218,-0.903 0.445,-1.348 -0.445,0 -1.118,0.674 -1.562,0.674 -0.674,0 -0.891,-0.674 -1.336,-0.674 0.216,0.445 0.445,0.903 0.445,1.348 0,0.662 -0.673,0.662 -1.118,1.338 0.889,0 1.562,0 2.009,1.119 0.444,-0.229 0.444,-0.674 0.889,-0.902 m -65.118,-8.926 c 0.662,-0.229 1.335,-0.229 2.009,-0.446 -0.446,-0.228 -1.119,-0.903 -1.792,-1.349 0.228,-0.445 0.445,-1.109 0.445,-1.999 -0.445,0.445 -1.107,1.108 -1.552,1.108 -0.674,0 -1.12,-0.663 -1.792,-1.108 0,0.662 0.444,1.337 0.444,1.999 0,0.446 -0.89,0.903 -1.335,1.566 0.891,-0.217 2.683,0.675 2.454,1.794 0.445,-0.457 0.674,-1.119 1.119,-1.565 m 37.69,-12.285 2.455,0 c -0.675,-0.446 -1.793,-0.893 -1.793,-1.567 0,-0.446 0.457,-1.12 0.457,-2.012 -0.457,0.447 -1.119,1.338 -1.793,1.338 -0.445,0 -1.107,-0.891 -1.78,-1.11 0.216,0.446 0.673,1.338 0.673,1.784 0,0.674 -1.118,1.121 -1.564,1.567 l 2.226,0 c 0,0.445 0.228,1.119 0.445,1.782 0.228,-0.217 0.446,-0.663 0.674,-1.782 m -62.003,-2.458 c -0.89,-0.447 -0.673,-0.893 -0.89,-1.565 -0.228,0.228 0,0.444 -0.673,0.444 -0.445,0 -0.662,-0.444 -0.89,-0.444 0,0.444 0.228,0.891 -0.217,1.336 0.217,0.229 0.89,0.674 1.107,1.12 0.228,0 0.673,-1.12 1.563,-0.891 m -7.579,-5.359 c -0.674,-0.448 -2.237,-1.339 -2.237,-1.785 0,-0.672 0.445,-1.346 0.674,-2.457 -0.674,0.447 -1.564,1.337 -2.226,1.337 -0.456,0 -1.348,-0.89 -2.009,-1.337 0,0.664 0.661,2.011 0.661,2.457 0,0.664 -1.552,1.11 -2.008,1.785 0.673,0 1.564,0 2.454,0.216 0.229,0.458 0.229,1.794 1.347,2.012 0.217,-3.121 1.781,-2.012 3.344,-2.228 m 81.395,-0.893 c 0.674,-0.228 1.347,-0.228 2.009,-0.446 -0.662,-0.446 -1.563,-0.892 -1.563,-1.348 0,-0.663 0.228,-1.108 0.228,-1.782 -0.445,0.227 -1.118,0.891 -1.563,0.891 -0.663,0 -1.108,-0.664 -1.782,-0.891 0.217,0.445 0.674,1.338 0.674,1.782 0,0.674 -1.119,0.902 -1.563,1.566 0.889,-0.218 2.671,0.673 2.671,1.795 0.445,-0.458 0.673,-1.122 0.889,-1.567 m -21.63,-0.228 c 0.445,-0.218 0.89,-0.218 1.336,-0.446 -1.552,-0.446 -0.891,-1.564 -0.891,-2.457 -0.445,0.229 -0.89,0.893 -1.335,0.893 -0.673,0 -0.89,-0.664 -1.335,-0.664 0.217,0.217 0.445,0.664 0.445,1.108 0,0.674 -0.445,0.674 -0.891,1.348 0.218,0 1.781,0.218 1.781,1.339 0.228,-0.231 0.445,-0.893 0.89,-1.121 m 5.799,-7.588 c -1.119,-0.229 -0.445,-0.892 -0.89,-1.566 -0.229,0.228 -0.229,0.446 -0.891,0.446 -0.445,0 -0.228,-0.218 -0.445,-0.446 -0.228,0.228 0,0.228 0,0.891 0,0.446 -0.445,0.446 -0.673,0.675 0,0.216 0.445,0.216 1.118,0.216 l 0,0.675 c 0.445,-0.229 1.12,-0.675 1.781,-0.891 m -80.733,-0.447 c 0.445,-0.228 0.89,-0.228 1.336,-0.445 -0.446,-0.446 -1.108,-0.446 -1.108,-1.12 0,-0.446 0.217,-0.674 0.217,-1.338 -0.445,0.218 -0.662,0.892 -1.336,0.892 -0.445,0 -0.89,-0.674 -1.335,-0.674 0.216,0.229 0.445,0.674 0.445,1.12 0,0.674 -0.445,0.674 -0.891,1.337 0.218,0 1.781,0.228 1.781,1.337 0.217,-0.217 0.446,-0.891 0.891,-1.109 m 32.781,-0.891 c 0.674,0 1.564,0 2.454,-0.228 -0.662,-0.446 -1.78,-0.892 -1.78,-1.337 0,-0.673 0.445,-1.35 0.445,-2.012 -0.445,0.446 -1.119,1.12 -1.564,1.12 -0.661,0 -1.107,-0.674 -1.78,-1.12 0,0.446 0.445,1.339 0.445,1.783 0,0.674 -1.119,1.12 -1.564,1.794 0.89,0 2.682,0 2.682,1.783 0.217,-0.229 0.446,-0.674 0.662,-1.783 m 122.442,-0.674 c 0.673,-0.228 1.563,-0.228 2.453,-0.446 -0.672,-0.445 -2.007,-1.118 -2.007,-1.566 0,-0.674 0.444,-1.336 0.673,-2.457 -0.673,0.447 -1.565,1.336 -2.239,1.336 -0.445,0 -1.551,-1.107 -2.224,-1.336 0.227,0.674 0.89,1.783 0.89,2.457 0,0.448 -1.564,1.121 -2.009,1.784 0.673,0 1.563,0 2.453,0.228 0.229,0.446 0.674,1.337 0.89,2.012 0.458,-0.447 0.674,-1.338 1.12,-2.012 m 14.941,-1.783 c -0.218,-0.229 -1.109,-0.674 -1.109,-1.12 0,-0.674 0.218,-1.119 0.447,-1.337 -0.447,0 -0.902,0.663 -1.346,0.663 -0.663,0 -1.108,-0.663 -1.554,-0.663 0.218,0.445 0.446,0.663 0.446,1.337 0,0.446 -0.673,0.662 -0.89,1.12 0.444,0 1.107,0 1.335,0.445 0.217,0.218 0.217,0.664 0.445,0.892 0.662,-0.892 0.891,-1.337 2.226,-1.337 m -137.828,-7.601 c -0.661,-0.445 -1.78,-0.891 -1.78,-1.565 0,-0.446 0.217,-1.108 0.217,-1.782 -0.446,0.445 -1.107,1.12 -1.553,1.12 -0.673,0 -0.228,-0.675 -1.792,-0.891 0.228,0.445 0.673,1.107 0.673,1.553 0,0.674 -1.118,0.903 -1.563,1.565 0.228,0 1.792,-0.217 2.009,0.446 0.228,0.446 0.445,1.122 0.89,1.568 0,-1.568 0.89,-2.231 2.899,-2.014 m 52.86,-0.445 c 0.674,-0.217 1.564,-0.217 2.453,-0.446 -0.674,-0.445 -2.009,-1.12 -2.009,-1.565 0,-0.662 0.446,-1.337 0.674,-2.457 -0.674,0.445 -1.563,1.336 -2.237,1.336 -0.445,0 -1.335,-0.891 -2.008,-1.336 0.228,1.12 0.673,1.795 0.673,2.457 0,0.445 -1.119,0.891 -1.781,1.794 0.662,0 1.552,0 2.226,0.217 0.445,0.445 0.673,1.337 0.89,2.013 0.446,-0.448 0.674,-1.338 1.119,-2.013 m 69.81,-7.589 c -0.445,-0.444 -1.564,-0.901 -1.564,-1.564 0,-0.448 0.216,-1.122 0.216,-1.795 -0.443,0.457 -1.106,1.121 -1.552,1.121 -0.673,0 -0.227,-0.664 -1.793,-0.893 0.23,0.445 0.675,1.119 0.675,1.783 0,0.447 -1.119,0.674 -1.563,1.348 0.227,0 1.78,-0.228 2.008,0.446 0.228,0.446 0.446,1.11 0.89,1.554 -0.217,-1.554 1.119,-2.228 2.683,-2 m -110.183,-0.444 c 0.445,-0.675 2.238,-0.457 2.9,-0.457 -0.662,-0.447 -2.226,-1.111 -2.226,-1.785 0,-0.445 0.674,-1.565 0.674,-2.457 -0.674,0.448 -1.348,0.892 -2.01,1.567 -0.673,-0.445 -1.563,-1.119 -2.236,-1.567 0,0.674 0.673,1.784 0.673,2.457 0,0.448 -1.336,1.122 -1.781,1.785 1.552,-0.447 2.9,0.673 3.116,2.457 0.446,-0.447 0.446,-1.338 0.89,-2 m 88.987,-1.568 c -0.218,-0.89 1.347,-1.564 2.236,-1.347 -0.445,-0.446 -0.889,-0.662 -1.334,-1.11 0.215,-0.226 0.215,-0.674 0.445,-1.564 -0.445,0.227 -0.903,0.89 -1.347,0.89 -0.663,0 -0.891,-0.663 -1.337,-0.89 0,0.446 0.229,1.119 0.446,1.564 -0.446,0.448 -0.89,0.664 -1.106,1.11 0.889,-0.217 1.779,0.228 1.779,1.347 l 0.218,0 z m -25.42,-2.457 c -1.564,-0.445 -1.119,-1.564 -0.89,-2.456 -0.447,0.218 -0.89,0.892 -1.336,0.892 -0.673,0 -1.347,0 -1.347,-0.447 0,0.447 0.445,0.447 0.445,1.121 0,0.445 -0.891,0.664 -1.106,1.108 1.335,-0.444 1.562,1.12 2.224,1.349 -0.444,-1.119 1.336,-1.349 2.01,-1.567 m 37.918,-0.89 c -0.446,-0.447 -1.119,-0.674 -1.119,-1.121 0,-0.673 0.217,-0.891 0.217,-1.565 -0.445,0.446 -0.891,0.892 -1.336,0.892 -0.661,0 -0.891,-0.446 -1.334,-0.446 0.217,0.228 0.443,0.674 0.443,1.119 0,0.674 -0.672,0.674 -1.117,1.337 1.347,-0.444 1.564,1.122 2.238,1.338 -0.447,-1.109 1.335,-1.338 2.008,-1.554 M 8.698,-90.446 c -0.446,-0.228 -1.336,-0.446 -1.336,-0.891 0,-0.674 0.217,-1.121 0.445,-1.121 0,0 0,-0.227 -0.228,-0.444 -0.217,0.217 -0.663,0.891 -1.118,0.891 -0.662,0 -1.336,0 -1.336,-0.447 0,0.447 0.445,0.447 0.445,1.121 0,0.445 -0.889,0.663 -1.107,1.109 1.554,-0.446 1.336,0.901 2.226,1.348 -0.446,-1.121 1.335,-1.348 2.009,-1.566 m 10.032,-5.806 c 0.674,-0.228 1.565,-0.228 2.227,-0.228 -0.662,-0.664 -1.781,-0.891 -1.781,-1.338 0,-0.674 0.446,-1.336 0.446,-2.011 -0.446,0.229 -1.107,1.121 -1.782,1.121 -0.444,0 -1.564,-0.231 -1.564,-0.674 0,0.443 0.446,0.674 0.446,1.338 0,0.444 -0.89,0.9 -1.336,1.564 0.89,-0.217 2.454,0.446 2.454,2.011 0.446,-0.446 0.675,-1.119 0.89,-1.783 m -19.847,-2.456 c 0.673,-0.231 1.335,-0.231 2.008,-0.231 -0.673,-0.443 -1.782,-0.89 -1.782,-1.336 0,-0.675 0.447,-1.337 0.663,-1.782 -0.889,0.217 -1.782,0.891 -2.009,0.891 -0.447,0 -1.108,-0.891 -1.781,-1.121 0.229,0.447 0.673,1.337 0.673,1.784 0,0.674 -0.889,0.902 -1.336,1.564 0.891,-0.215 2.444,0.677 2.444,1.795 0.457,-0.457 0.674,-1.118 1.12,-1.564 m 21.183,-8.047 c -0.217,-0.216 -0.89,-0.446 -1.106,-1.108 -0.23,-0.229 0.216,-0.904 0,-1.348 -0.23,0 -0.445,0.673 -1.12,0.673 -0.445,0 -1.335,0 -1.335,-0.444 0,0.444 0.445,0.444 0.445,1.119 0,0.446 -0.891,0.662 -1.118,1.108 1.335,-0.446 1.118,0.891 2.225,1.566 -0.217,-0.893 1.119,-1.782 2.009,-1.566" /></g><g
           transform="translate(301.6475,121.9424)"
           id="g46"><path
             id="path48"
             style="fill:#ffffff;fill-opacity:1;fill-rule:nonzero;stroke:none"
             d="m 0,0 c -0.229,0 -0.445,-0.444 -0.673,-0.892 l -0.663,0 c -0.228,0.217 -0.228,0.664 -0.445,0.892 0,0.229 0.217,0.446 0.662,0.446 C -0.445,0.446 -0.229,0.229 0,0" /></g></g></g></g></svg>