<?xml version="1.0" encoding="UTF-8" standalone="no"?>
<svg
   xmlns:dc="http://purl.org/dc/elements/1.1/"
   xmlns:cc="http://creativecommons.org/ns#"
   xmlns:rdf="http://www.w3.org/1999/02/22-rdf-syntax-ns#"
   xmlns:svg="http://www.w3.org/2000/svg"
   xmlns="http://www.w3.org/2000/svg"
   viewBox="0 0 800 533.33331"
   height="533.33331"
   width="800"
   xml:space="preserve"
   version="1.1"
   id="svg2"><metadata
     id="metadata8"><rdf:RDF><cc:Work
         rdf:about=""><dc:format>image/svg+xml</dc:format><dc:type
           rdf:resource="http://purl.org/dc/dcmitype/StillImage" /></cc:Work></rdf:RDF></metadata><defs
     id="defs6"><clipPath
       id="clipPath20"
       clipPathUnits="userSpaceOnUse"><path
         id="path22"
         d="M 0,0 600,0 600,400 0,400 0,0 Z" /></clipPath></defs><g
     transform="matrix(1.3333333,0,0,-1.3333333,0,533.33333)"
     id="g10"><path
       id="path12"
       style="fill:#e5322e;fill-opacity:1;fill-rule:nonzero;stroke:none"
       d="m 0.518,0 599.483,0 0,399.999 -599.483,0 L 0.518,0 Z" /><path
       id="path14"
       style="fill:#ffffff;fill-opacity:1;fill-rule:nonzero;stroke:none"
       d="m 150.516,0 300,0 0,399.999 -300,0 0,-399.999 z" /><g
       id="g16"><g
         clip-path="url(#clipPath20)"
         id="g18"><g
           transform="translate(300.5117,333.1567)"
           id="g24"><path
             id="path26"
             style="fill:#e5322e;fill-opacity:1;fill-rule:nonzero;stroke:none"
             d="m 0,0 -20.468,-38.781 c -2.322,-4.215 -6.484,-3.824 -10.645,-1.47 l -14.818,7.795 11.044,-59.565 c 2.323,-10.884 -5.129,-10.884 -8.807,-6.178 l -25.86,29.41 -4.197,-14.936 c -0.485,-1.961 -2.614,-4.02 -5.808,-3.53 l -32.7,6.985 8.588,-31.723 c 1.839,-7.057 3.274,-9.98 -1.855,-11.842 l -11.656,-5.565 56.292,-46.449 c 2.228,-1.756 3.354,-4.916 2.561,-7.779 l -4.927,-16.425 c 19.382,2.269 36.75,5.684 56.141,7.786 1.713,0.187 4.578,-2.683 4.567,-4.698 l -2.569,-60.174 9.426,0 -1.483,60.047 c -0.013,2.014 2.586,5.012 4.299,4.825 19.392,-2.102 36.758,-5.517 56.141,-7.786 l -4.927,16.425 c -0.793,2.863 0.334,6.023 2.561,7.779 l 56.292,46.449 -11.656,5.565 c -5.13,1.862 -3.695,4.785 -1.856,11.842 l 8.591,31.723 -32.702,-6.985 c -3.194,-0.49 -5.324,1.569 -5.806,3.53 l -4.2,14.936 -25.86,-29.41 c -3.678,-4.706 -11.129,-4.706 -8.807,6.178 l 11.043,59.565 -14.816,-7.795 c -4.162,-2.354 -8.323,-2.744 -10.646,1.47" /></g></g></g></g></svg>