<?xml version="1.0" encoding="UTF-8" standalone="no"?>
<svg
   xmlns:dc="http://purl.org/dc/elements/1.1/"
   xmlns:cc="http://creativecommons.org/ns#"
   xmlns:rdf="http://www.w3.org/1999/02/22-rdf-syntax-ns#"
   xmlns:svg="http://www.w3.org/2000/svg"
   xmlns="http://www.w3.org/2000/svg"
   viewBox="0 0 800 533.33331"
   height="533.33331"
   width="800"
   xml:space="preserve"
   version="1.1"
   id="svg2"><metadata
     id="metadata8"><rdf:RDF><cc:Work
         rdf:about=""><dc:format>image/svg+xml</dc:format><dc:type
           rdf:resource="http://purl.org/dc/dcmitype/StillImage" /></cc:Work></rdf:RDF></metadata><defs
     id="defs6" /><g
     transform="matrix(1.3333333,0,0,-1.3333333,0,533.33333)"
     id="g10"><path
       id="path12"
       style="fill:#207e64;fill-opacity:1;fill-rule:nonzero;stroke:none"
       d="M 0,0 200,0 200,400 0,400 0,0 Z" /><path
       id="path14"
       style="fill:#d02533;fill-opacity:1;fill-rule:nonzero;stroke:none"
       d="m 200,0 200,0 0,400 -200,0 0,-400 z" /><path
       id="path16"
       style="fill:#fdd228;fill-opacity:1;fill-rule:nonzero;stroke:none"
       d="m 400,0 200.001,0 0,400 L 400,400 400,0 Z" /><g
       transform="translate(300,253.3335)"
       id="g18"><path
         id="path20"
         style="fill:#fdd228;fill-opacity:1;fill-rule:nonzero;stroke:none"
         d="M 0,0 -16.481,-50.723 8.881,-58.963 0,0 Z" /></g><g
       transform="translate(300,253.3335)"
       id="g22"><path
         id="path24"
         style="fill:#fdd228;fill-opacity:1;fill-rule:nonzero;stroke:none"
         d="M 0,0 16.48,-50.723 -8.88,-58.963 0,0 Z" /></g><g
       transform="translate(350.7227,216.481)"
       id="g26"><path
         id="path28"
         style="fill:#fdd228;fill-opacity:1;fill-rule:nonzero;stroke:none"
         d="m 0,0 -53.333,0 0,-26.667 L 0,0 Z" /></g><g
       transform="translate(350.7227,216.481)"
       id="g30"><path
         id="path32"
         style="fill:#fdd228;fill-opacity:1;fill-rule:nonzero;stroke:none"
         d="M 0,0 -43.147,-31.348 -58.821,-9.775 0,0 Z" /></g><g
       transform="translate(331.3486,156.8525)"
       id="g34"><path
         id="path36"
         style="fill:#fdd228;fill-opacity:1;fill-rule:nonzero;stroke:none"
         d="M 0,0 -16.481,50.723 -41.842,42.482 0,0 Z" /></g><g
       transform="translate(331.3486,156.8525)"
       id="g38"><path
         id="path40"
         style="fill:#fdd228;fill-opacity:1;fill-rule:nonzero;stroke:none"
         d="M 0,0 -43.147,31.349 -27.474,52.922 0,0 Z" /></g><g
       transform="translate(268.6514,156.8525)"
       id="g42"><path
         id="path44"
         style="fill:#fdd228;fill-opacity:1;fill-rule:nonzero;stroke:none"
         d="M 0,0 43.147,31.349 27.474,52.922 0,0 Z" /></g><g
       transform="translate(268.6514,156.8525)"
       id="g46"><path
         id="path48"
         style="fill:#fdd228;fill-opacity:1;fill-rule:nonzero;stroke:none"
         d="M 0,0 16.481,50.723 41.843,42.482 0,0 Z" /></g><g
       transform="translate(249.2769,216.481)"
       id="g50"><path
         id="path52"
         style="fill:#fdd228;fill-opacity:1;fill-rule:nonzero;stroke:none"
         d="M 0,0 43.148,-31.348 58.822,-9.775 0,0 Z" /></g><g
       transform="translate(249.2769,216.481)"
       id="g54"><path
         id="path56"
         style="fill:#fdd228;fill-opacity:1;fill-rule:nonzero;stroke:none"
         d="m 0,0 53.333,0 0,-26.667 L 0,0 Z" /></g></g></svg>