<?xml version="1.0" encoding="UTF-8" standalone="no"?>
<svg
   xmlns:dc="http://purl.org/dc/elements/1.1/"
   xmlns:cc="http://creativecommons.org/ns#"
   xmlns:rdf="http://www.w3.org/1999/02/22-rdf-syntax-ns#"
   xmlns:svg="http://www.w3.org/2000/svg"
   xmlns="http://www.w3.org/2000/svg"
   viewBox="0 0 800 533.33331"
   height="533.33331"
   width="800"
   xml:space="preserve"
   version="1.1"
   id="svg2"><metadata
     id="metadata8"><rdf:RDF><cc:Work
         rdf:about=""><dc:format>image/svg+xml</dc:format><dc:type
           rdf:resource="http://purl.org/dc/dcmitype/StillImage" /></cc:Work></rdf:RDF></metadata><defs
     id="defs6"><clipPath
       id="clipPath22"
       clipPathUnits="userSpaceOnUse"><path
         id="path24"
         d="M 0,400 600,400 600,0 0,0 0,400 Z" /></clipPath></defs><g
     transform="matrix(1.3333333,0,0,-1.3333333,0,533.33333)"
     id="g10"><path
       id="path12"
       style="fill:#ffffff;fill-opacity:1;fill-rule:nonzero;stroke:none"
       d="m 0,134.13 600,0 0,134.689 -600,0 0,-134.689 z" /><path
       id="path14"
       style="fill:#d4264c;fill-opacity:1;fill-rule:nonzero;stroke:none"
       d="m 0,268.818 600,0 0,131.181 -600,0 0,-131.181 z" /><path
       id="path16"
       style="fill:#27477c;fill-opacity:1;fill-rule:nonzero;stroke:none"
       d="m 0,0.562 600,0 0,133.51 -600,0 0,-133.51 z" /><g
       id="g18"><g
         clip-path="url(#clipPath22)"
         id="g20"><g
           transform="translate(378.7109,269.1353)"
           id="g26"><path
             id="path28"
             style="fill:#ffffff;fill-opacity:1;fill-rule:nonzero;stroke:none"
             d="m 0,0 c -48.806,23.777 -107.449,24.757 -157.955,0.156 l -20.944,42.111 14.215,25.166 25.361,-8.905 16.73,20.171 23.221,-12.901 20.628,16.719 L -58.58,65.798 -35.074,78.612 -18.352,58.258 6.552,67.342 21.138,42.267 0,0 Z" /></g><g
           transform="translate(347.9639,283.6294)"
           id="g30"><path
             id="path32"
             style="fill:#2162ab;fill-opacity:1;fill-rule:nonzero;stroke:none"
             d="M 0,0 C 10.365,-2.809 20.49,-6.521 30.241,-11.123 L 30.244,-11.219 49.482,27.787 36.775,50.53 11.711,41.705 -0.062,-0.03 0,0 Z" /></g><g
           transform="translate(347.9639,283.6294)"
           id="g34"><path
             id="path36"
             style="fill:none;stroke:#2162ab;stroke-width:0.56300002;stroke-linecap:butt;stroke-linejoin:miter;stroke-miterlimit:4;stroke-dasharray:none;stroke-opacity:1"
             d="M 0,0 C 10.365,-2.809 20.49,-6.521 30.241,-11.123 L 30.244,-11.219 49.482,27.787 36.775,50.53 11.711,41.705 -0.062,-0.03 0,0 Z" /></g><g
           transform="translate(316.0547,289.3423)"
           id="g38"><path
             id="path40"
             style="fill:#2162ab;fill-opacity:1;fill-rule:nonzero;stroke:none"
             d="m 0,0 c -10.786,0.971 -21.674,1 -32.522,0.064 l 0.032,-0.075 -3.951,43.159 20.278,16.905 L 3.932,43.154 -0.007,-0.005 0,0 Z" /></g><g
           transform="translate(316.0547,289.3423)"
           id="g42"><path
             id="path44"
             style="fill:none;stroke:#2162ab;stroke-width:0.56300002;stroke-linecap:butt;stroke-linejoin:miter;stroke-miterlimit:4;stroke-dasharray:none;stroke-opacity:1"
             d="m 0,0 c -10.786,0.971 -21.674,1 -32.522,0.064 l 0.032,-0.075 -3.951,43.159 20.278,16.905 L 3.932,43.154 -0.007,-0.005 0,0 Z" /></g><g
           transform="translate(251.6641,283.8022)"
           id="g46"><path
             id="path48"
             style="fill:#2162ab;fill-opacity:1;fill-rule:nonzero;stroke:none"
             d="m 0,0 c -10.336,-2.771 -20.506,-6.479 -30.383,-11.135 l 0.069,-0.049 -19.232,38.958 12.88,22.81 24.897,-8.879 L -0.025,0.017 0,0 Z" /></g><g
           transform="translate(251.6641,283.8022)"
           id="g50"><path
             id="path52"
             style="fill:none;stroke:#2162ab;stroke-width:0.56300002;stroke-linecap:butt;stroke-linejoin:miter;stroke-miterlimit:4;stroke-dasharray:none;stroke-opacity:1"
             d="m 0,0 c -10.336,-2.771 -20.506,-6.479 -30.383,-11.135 l 0.069,-0.049 -19.232,38.958 12.88,22.81 24.897,-8.879 L -0.025,0.017 0,0 Z" /></g><g
           transform="translate(347.9639,283.6294)"
           id="g54"><path
             id="path56"
             style="fill:#27477c;fill-opacity:1;fill-rule:nonzero;stroke:none"
             d="m 0,0 c -10.445,2.833 -21.128,4.742 -31.909,5.713 l -0.008,-0.005 3.93,43.113 L -4.943,61.896 11.731,41.748 -0.062,-0.03 0,0 Z" /></g><g
           transform="translate(347.9639,283.6294)"
           id="g58"><path
             id="path60"
             style="fill:none;stroke:#27477c;stroke-width:0.56300002;stroke-linecap:butt;stroke-linejoin:miter;stroke-miterlimit:4;stroke-dasharray:none;stroke-opacity:1"
             d="m 0,0 c -10.445,2.833 -21.128,4.742 -31.909,5.713 l -0.008,-0.005 3.93,43.113 L -4.943,61.896 11.731,41.748 -0.062,-0.03 0,0 Z" /></g><g
           transform="translate(251.6641,283.8022)"
           id="g62"><path
             id="path64"
             style="fill:#27477c;fill-opacity:1;fill-rule:nonzero;stroke:none"
             d="M 0,0 C 10.496,2.822 21.165,4.68 31.869,5.604 L 31.892,5.535 27.953,48.737 5.087,61.841 -11.763,41.658 0,-0.002 0,0 Z" /></g><g
           transform="translate(251.6641,283.8022)"
           id="g66"><path
             id="path68"
             style="fill:none;stroke:#27477c;stroke-width:0.56300002;stroke-linecap:butt;stroke-linejoin:miter;stroke-miterlimit:4;stroke-dasharray:none;stroke-opacity:1"
             d="M 0,0 C 10.496,2.822 21.165,4.68 31.869,5.604 L 31.892,5.535 27.953,48.737 5.087,61.841 -11.763,41.658 0,-0.002 0,0 Z" /></g><g
           transform="translate(281.7222,310.1743)"
           id="g70"><path
             id="path72"
             style="fill:#d4264c;fill-opacity:1;fill-rule:nonzero;stroke:none"
             d="m 0,0 c -12.231,-1.051 -24.155,-3.171 -35.66,-6.265 l 2.758,-10.075 c 10.914,2.939 22.214,4.956 33.819,5.954 L 0,0 Z" /></g><g
           transform="translate(281.7222,310.1743)"
           id="g74"><path
             id="path76"
             style="fill:none;stroke:#d4264c;stroke-width:0.56300002;stroke-linecap:butt;stroke-linejoin:miter;stroke-miterlimit:4;stroke-dasharray:none;stroke-opacity:1"
             d="m 0,0 c -12.231,-1.051 -24.155,-3.171 -35.66,-6.265 l 2.758,-10.075 c 10.914,2.939 22.214,4.956 33.819,5.954 L 0,0 Z" /></g><g
           transform="translate(279.7183,332.2778)"
           id="g78"><path
             id="path80"
             style="fill:#d4264c;fill-opacity:1;fill-rule:nonzero;stroke:none"
             d="m 0,0 c -13.606,-1.167 -26.87,-3.528 -39.672,-6.968 l 3.02,-10.786 c 12.115,3.255 24.657,5.494 37.538,6.604 L 0,0 Z" /></g><g
           transform="translate(279.7183,332.2778)"
           id="g82"><path
             id="path84"
             style="fill:none;stroke:#d4264c;stroke-width:0.56300002;stroke-linecap:butt;stroke-linejoin:miter;stroke-miterlimit:4;stroke-dasharray:none;stroke-opacity:1"
             d="m 0,0 c -13.606,-1.167 -26.87,-3.528 -39.672,-6.968 l 3.02,-10.786 c 12.115,3.255 24.657,5.494 37.538,6.604 L 0,0 Z" /></g><g
           transform="translate(390.1494,296.6924)"
           id="g86"><path
             id="path88"
             style="fill:#d4264c;fill-opacity:1;fill-rule:nonzero;stroke:none"
             d="m 0,0 c -11.119,5.286 -22.802,9.631 -34.926,12.923 l -4.27,-14.887 C -27.975,-5.01 -17.171,-9.031 -6.881,-13.92 L 0,0 Z" /></g><g
           transform="translate(390.1494,296.6924)"
           id="g90"><path
             id="path92"
             style="fill:none;stroke:#d4264c;stroke-width:0.56300002;stroke-linecap:butt;stroke-linejoin:miter;stroke-miterlimit:4;stroke-dasharray:none;stroke-opacity:1"
             d="m 0,0 c -11.119,5.286 -22.802,9.631 -34.926,12.923 l -4.27,-14.887 C -27.975,-5.01 -17.171,-9.031 -6.881,-13.92 L 0,0 Z" /></g><g
           transform="translate(239.8579,303.4976)"
           id="g94"><path
             id="path96"
             style="fill:#ffffff;fill-opacity:1;fill-rule:nonzero;stroke:none"
             d="m 0,0 c -4.316,-5.149 -10.88,-8.633 -18.223,-8.633 -1.472,0 -2.923,0.005 -4.322,0.256 2.228,-3.222 5.995,-5.339 10.27,-5.339 6.838,0 12.38,5.425 12.38,12.113 C 0.105,-1.062 0.071,-0.526 0,0" /></g><g
           transform="translate(239.8579,303.4976)"
           id="g98"><path
             id="path100"
             style="fill:none;stroke:#ffffff;stroke-width:0.56300002;stroke-linecap:butt;stroke-linejoin:miter;stroke-miterlimit:4;stroke-dasharray:none;stroke-opacity:1"
             d="m 0,0 c -4.316,-5.149 -10.88,-8.633 -18.223,-8.633 -1.472,0 -2.923,0.005 -4.322,0.256 2.228,-3.222 5.995,-5.339 10.27,-5.339 6.838,0 12.38,5.425 12.38,12.113 C 0.105,-1.062 0.071,-0.526 0,0 Z" /></g><g
           transform="translate(350.9531,294.7285)"
           id="g102"><path
             id="path104"
             style="fill:#ffffff;fill-opacity:1;fill-rule:nonzero;stroke:none"
             d="m 0,0 c 11.222,-3.046 22.025,-7.067 32.315,-11.957 l -1.605,-3.324 c -10.075,4.794 -20.659,8.73 -31.643,11.717 L 0,0 Z" /></g><g
           transform="translate(350.9531,294.7285)"
           id="g106"><path
             id="path108"
             style="fill:none;stroke:#ffffff;stroke-width:0.56300002;stroke-linecap:butt;stroke-linejoin:miter;stroke-miterlimit:4;stroke-dasharray:none;stroke-opacity:1"
             d="m 0,0 c 11.222,-3.046 22.025,-7.067 32.315,-11.957 l -1.605,-3.324 c -10.075,4.794 -20.659,8.73 -31.643,11.717 L 0,0 Z" /></g><g
           transform="translate(356.3418,313.5273)"
           id="g110"><path
             id="path112"
             style="fill:#ffffff;fill-opacity:1;fill-rule:nonzero;stroke:none"
             d="m 0,0 c 12.353,-3.358 24.256,-7.782 35.593,-13.168 l -1.785,-3.667 c -11.12,5.286 -22.802,9.631 -34.926,12.923 L 0,0 Z" /></g><g
           transform="translate(356.3418,313.5273)"
           id="g114"><path
             id="path116"
             style="fill:none;stroke:#ffffff;stroke-width:0.56300002;stroke-linecap:butt;stroke-linejoin:miter;stroke-miterlimit:4;stroke-dasharray:none;stroke-opacity:1"
             d="m 0,0 c 12.353,-3.358 24.256,-7.782 35.593,-13.168 l -1.785,-3.667 c -11.12,5.286 -22.802,9.631 -34.926,12.923 L 0,0 Z" /></g><g
           transform="translate(219.355,323.5854)"
           id="g118"><path
             id="path120"
             style="fill:#ffeb5b;fill-opacity:1;fill-rule:nonzero;stroke:none"
             d="m 0,0 -0.902,-5.262 -5.127,-1.879 4.232,-3.407 -0.906,-5.274 5.131,1.881 4.209,-3.394 0.891,5.26 5.125,1.884 -4.215,3.39 0.899,5.286 -5.121,-1.872 C 4.216,-3.385 0,-0.213 0,0" /></g><g
           transform="translate(381.8779,327.9492)"
           id="g122"><path
             id="path124"
             style="fill:#ffeb5b;fill-opacity:1;fill-rule:nonzero;stroke:none"
             d="m 0,0 0.905,-5.262 5.126,-1.883 -4.234,-3.402 0.911,-5.276 -5.139,1.88 -4.205,-3.396 -0.892,5.261 -5.126,1.89 4.216,3.387 -0.897,5.287 5.12,-1.874 c 0,0 4.213,3.17 4.215,3.388" /></g><g
           transform="translate(328.8799,321.8164)"
           id="g126"><path
             id="path128"
             style="fill:#ffeb5b;fill-opacity:1;fill-rule:nonzero;stroke:none"
             d="m 0,0 c -0.837,0 -1.812,-0.228 -2.466,-1.139 0,0 -0.28,0.911 -0.741,1.183 -0.467,0.272 -1.395,0.272 -1.676,0.183 -0.276,-0.089 0.097,-1.138 0.467,-1.5 0.369,-0.365 1.44,-0.546 1.44,-0.546 -0.978,-1.137 -1.772,-3.985 -2.833,-4.726 -0.323,-0.225 -0.185,-0.771 0.092,-0.952 0.281,-0.181 1.021,-0.458 1.763,-0.138 0.747,0.319 1.07,0.593 1.35,0.775 0.281,0.183 1.115,1.177 0.044,-2.135 0,0 1.159,0.545 0.283,-1.363 0,0 1.251,0.133 -1.348,-3.272 0,0 0.74,-0.137 0.323,-1.048 0,0 0.648,0.455 0.137,-1.042 0,0 0.746,0.543 0.188,-1 0,0 0.139,-1.407 -1.906,-5.316 l 0.044,-0.453 -0.598,-1.048 c 0,0 0.651,-1.089 0.926,-0.772 0.278,0.32 0.232,1.228 0.836,1.273 0.605,0.046 0.049,0.907 0.466,1.589 0.42,0.684 2.094,1.957 2.136,3.365 0,0 0.324,-0.819 2.188,-0.409 0,0 0.043,-3.408 -0.98,-4.499 -1.021,-1.09 -0.136,-1.591 -0.088,-2.726 0.042,-1.137 -0.654,-1.954 -0.843,-2.546 l 0.931,-0.681 c 0,0 0.139,0.637 0.791,0.637 0.651,0 0.603,0.956 0.418,1.772 -0.185,0.818 -0.278,1.274 0.043,1.456 0.328,0.182 0.513,0.998 0.469,1.496 -0.05,0.502 1.76,1.775 2.134,3.318 0,0 0.281,-0.363 0.791,0.18 0,0 0.324,-0.361 0.835,0.184 0,0 0.045,-0.364 0.79,0.089 0,0 0,-0.316 0.698,0.093 0,0 0.185,-0.319 0.926,0.045 0,0 0.42,-0.227 0.794,0.045 0,0 0.367,-0.499 0.928,-0.09 0,0 -0.021,-0.6 1.949,0.363 0.374,0.181 -0.511,-1.043 -0.88,-1.635 -0.371,-0.593 -0.84,-1.228 -1.441,-1.544 -0.603,-0.318 -1.579,-2.316 -1.252,-2.681 l -0.419,-0.5 0.837,-0.503 c 0.231,0.365 1.25,1.23 1.763,1.909 0.511,0.681 0.279,1.546 0.557,1.728 0.28,0.181 1.835,0.38 2.65,2.361 l 0.923,0.546 c 0,0 0.384,-0.901 1.398,-1.499 0.23,-0.138 0,-2.728 -0.234,-3.454 -0.231,-0.727 -0.604,-0.953 -0.74,-1.318 -0.141,-0.362 -0.509,-1.634 -0.744,-2.18 l 1.393,-0.681 c -0.046,0.635 0.232,1.682 0.884,1.906 0.649,0.229 0.367,1.047 0.229,1.546 -0.135,0.504 1.536,3.68 2.324,4.043 l -0.185,0.367 0.603,0.135 -0.555,0.501 0.648,0.996 -0.414,0.547 0.461,0.683 -0.881,0.589 c 0,0 0.741,0.862 0.833,1.363 0,0 -0.511,0 -0.647,0.137 0,0 1.851,1.225 2.181,2.362 0,0 -0.182,1.499 -0.467,1.681 0,0 0.933,0.637 1.025,1.545 l -1.207,0.225 c 0,0 1.055,1.627 0.697,1.409 -0.604,-0.363 -2.142,0.137 -3.021,-0.498 0,0 -1.714,1.314 -3.666,0.092 l -0.374,0.226 c 0,0 -1.21,-0.5 -2.507,-0.638 l -0.327,0.455 c 0,0 -0.976,-0.363 -2.278,-0.499 l -0.321,0.456 c 0,0 -1.627,-0.366 -2.65,-0.366 -1.024,0 -2.229,1.044 -2.043,1.5 0,0 -1.443,0.904 -1.443,3.271 0,0.456 0.049,0.724 0.417,0.317 0.372,-0.406 0.932,-0.774 2.093,0.139 0.232,0.178 -0.276,0.858 -0.743,1.086 -0.469,0.228 -1.019,-0.269 -1.302,-0.362 -0.277,-0.089 -0.56,0 -0.56,0.408 0,0.41 0.144,1.002 -0.093,1.591 C 1.996,-1.003 1.806,-0.273 0,0" /></g><g
           transform="translate(328.8799,321.8164)"
           id="g130"><path
             id="path132"
             style="fill:none;stroke:#2f2d2e;stroke-width:0.55699998;stroke-linecap:round;stroke-linejoin:round;stroke-miterlimit:4;stroke-dasharray:none;stroke-opacity:1"
             d="m 0,0 c -0.837,0 -1.812,-0.228 -2.466,-1.139 0,0 -0.28,0.911 -0.741,1.183 -0.467,0.272 -1.395,0.272 -1.676,0.183 -0.276,-0.089 0.097,-1.138 0.467,-1.5 0.369,-0.365 1.44,-0.546 1.44,-0.546 -0.978,-1.137 -1.772,-3.985 -2.833,-4.726 -0.323,-0.225 -0.185,-0.771 0.092,-0.952 0.281,-0.181 1.021,-0.458 1.763,-0.138 0.747,0.319 1.07,0.593 1.35,0.775 0.281,0.183 1.115,1.177 0.044,-2.135 0,0 1.159,0.545 0.283,-1.363 0,0 1.251,0.133 -1.348,-3.272 0,0 0.74,-0.137 0.323,-1.048 0,0 0.648,0.455 0.137,-1.042 0,0 0.746,0.543 0.188,-1 0,0 0.139,-1.407 -1.906,-5.316 l 0.044,-0.453 -0.598,-1.048 c 0,0 0.651,-1.089 0.926,-0.772 0.278,0.32 0.232,1.228 0.836,1.273 0.605,0.046 0.049,0.907 0.466,1.589 0.42,0.684 2.094,1.957 2.136,3.365 0,0 0.324,-0.819 2.188,-0.409 0,0 0.043,-3.408 -0.98,-4.499 -1.021,-1.09 -0.136,-1.591 -0.088,-2.726 0.042,-1.137 -0.654,-1.954 -0.843,-2.546 l 0.931,-0.681 c 0,0 0.139,0.637 0.791,0.637 0.651,0 0.603,0.956 0.418,1.772 -0.185,0.818 -0.278,1.274 0.043,1.456 0.328,0.182 0.513,0.998 0.469,1.496 -0.05,0.502 1.76,1.775 2.134,3.318 0,0 0.281,-0.363 0.791,0.18 0,0 0.324,-0.361 0.835,0.184 0,0 0.045,-0.364 0.79,0.089 0,0 0,-0.316 0.698,0.093 0,0 0.185,-0.319 0.926,0.045 0,0 0.42,-0.227 0.794,0.045 0,0 0.367,-0.499 0.928,-0.09 0,0 -0.021,-0.6 1.949,0.363 0.374,0.181 -0.511,-1.043 -0.88,-1.635 -0.371,-0.593 -0.84,-1.228 -1.441,-1.544 -0.603,-0.318 -1.579,-2.316 -1.252,-2.681 l -0.419,-0.5 0.837,-0.503 c 0.231,0.365 1.25,1.23 1.763,1.909 0.511,0.681 0.279,1.546 0.557,1.728 0.28,0.181 1.835,0.38 2.65,2.361 l 0.923,0.546 c 0,0 0.384,-0.901 1.398,-1.499 0.23,-0.138 0,-2.728 -0.234,-3.454 -0.231,-0.727 -0.604,-0.953 -0.74,-1.318 -0.141,-0.362 -0.509,-1.634 -0.744,-2.18 l 1.393,-0.681 c -0.046,0.635 0.232,1.682 0.884,1.906 0.649,0.229 0.367,1.047 0.229,1.546 -0.135,0.504 1.536,3.68 2.324,4.043 l -0.185,0.367 0.603,0.135 -0.555,0.501 0.648,0.996 -0.414,0.547 0.461,0.683 -0.881,0.589 c 0,0 0.741,0.862 0.833,1.363 0,0 -0.511,0 -0.647,0.137 0,0 1.851,1.225 2.181,2.362 0,0 -0.182,1.499 -0.467,1.681 0,0 0.933,0.637 1.025,1.545 l -1.207,0.225 c 0,0 1.055,1.627 0.697,1.409 -0.604,-0.363 -2.142,0.137 -3.021,-0.498 0,0 -1.714,1.314 -3.666,0.092 l -0.374,0.226 c 0,0 -1.21,-0.5 -2.507,-0.638 l -0.327,0.455 c 0,0 -0.976,-0.363 -2.278,-0.499 l -0.321,0.456 c 0,0 -1.627,-0.366 -2.65,-0.366 -1.024,0 -2.229,1.044 -2.043,1.5 0,0 -1.443,0.904 -1.443,3.271 0,0.456 0.049,0.724 0.417,0.317 0.372,-0.406 0.932,-0.774 2.093,0.139 0.232,0.178 -0.276,0.858 -0.743,1.086 -0.469,0.228 -1.019,-0.269 -1.302,-0.362 -0.277,-0.089 -0.56,0 -0.56,0.408 0,0.41 0.144,1.002 -0.093,1.591 C 1.996,-1.003 1.806,-0.273 0,0 Z" /></g><g
           transform="translate(328.3691,321.771)"
           id="g134"><path
             id="path136"
             style="fill:#d4264c;fill-opacity:1;fill-rule:nonzero;stroke:#1d1d1d;stroke-width:0.55699998;stroke-linecap:round;stroke-linejoin:round;stroke-miterlimit:4;stroke-dasharray:none;stroke-opacity:1"
             d="m 0,0 c 1.718,1.861 4.548,2.545 6.08,2.497 1.538,-0.043 5.113,-1.453 6.184,-1.453 1.067,0 2.46,0.089 3.111,0.498 0,0 -1.164,-1.36 -3.581,-1.136 C 9.38,0.636 7.199,1.36 6.129,1.36 5.059,1.36 3.018,1.09 1.761,-0.503" /></g><g
           transform="translate(330.5049,320.9507)"
           id="g138"><path
             id="path140"
             style="fill:#d4264c;fill-opacity:1;fill-rule:nonzero;stroke:#1d1d1d;stroke-width:0.55699998;stroke-linecap:round;stroke-linejoin:round;stroke-miterlimit:4;stroke-dasharray:none;stroke-opacity:1"
             d="m 0,0 c 0.743,0.501 2.51,0.866 3.9,0.774 1.396,-0.091 3.023,-0.638 5.483,-2.317 2.461,-1.681 5.435,-0.82 5.435,-0.82 0,0 -2.51,-1.36 -5.852,0.137 -3.349,1.5 -3.299,1.773 -5.021,1.728 C 2.231,-0.542 1.347,-0.906 0.601,-1.405" /></g><g
           transform="translate(324.3721,297.1904)"
           id="g142"><path
             id="path144"
             style="fill:#d4264c;fill-opacity:1;fill-rule:nonzero;stroke:none"
             d="M 0,0 C -0.093,0.726 -0.418,1.136 -0.881,1.089 -1.349,1.044 -2,-0.09 -1.95,-0.316 -1.906,-0.545 -0.375,-0.816 0,0" /></g><g
           transform="translate(324.3721,297.1904)"
           id="g146"><path
             id="path148"
             style="fill:none;stroke:#1d1d1d;stroke-width:0.55699998;stroke-linecap:round;stroke-linejoin:round;stroke-miterlimit:4;stroke-dasharray:none;stroke-opacity:1"
             d="M 0,0 C -0.093,0.726 -0.418,1.136 -0.881,1.089 -1.349,1.044 -2,-0.09 -1.95,-0.316 -1.906,-0.545 -0.375,-0.816 0,0 Z" /></g><g
           transform="translate(329.1055,292.6475)"
           id="g150"><path
             id="path152"
             style="fill:#d4264c;fill-opacity:1;fill-rule:nonzero;stroke:none"
             d="M 0,0 C -0.09,0.726 -0.418,1.134 -0.879,1.09 -1.339,1.045 -1.996,-0.088 -1.942,-0.316 -1.898,-0.544 -0.366,-0.818 0,0" /></g><g
           transform="translate(329.1055,292.6475)"
           id="g154"><path
             id="path156"
             style="fill:none;stroke:#1d1d1d;stroke-width:0.55699998;stroke-linecap:round;stroke-linejoin:round;stroke-miterlimit:4;stroke-dasharray:none;stroke-opacity:1"
             d="M 0,0 C -0.09,0.726 -0.418,1.134 -0.879,1.09 -1.339,1.045 -1.996,-0.088 -1.942,-0.316 -1.898,-0.544 -0.366,-0.818 0,0 Z" /></g><g
           transform="translate(337.4277,295.146)"
           id="g158"><path
             id="path160"
             style="fill:#d4264c;fill-opacity:1;fill-rule:nonzero;stroke:none"
             d="M 0,0 C -0.095,0.726 -0.419,1.135 -0.883,1.091 -1.355,1.046 -2.001,-0.091 -1.952,-0.318 -1.907,-0.542 -0.376,-0.818 0,0" /></g><g
           transform="translate(337.4277,295.146)"
           id="g162"><path
             id="path164"
             style="fill:none;stroke:#1d1d1d;stroke-width:0.55699998;stroke-linecap:round;stroke-linejoin:round;stroke-miterlimit:4;stroke-dasharray:none;stroke-opacity:1"
             d="M 0,0 C -0.095,0.726 -0.419,1.135 -0.883,1.091 -1.355,1.046 -2.001,-0.091 -1.952,-0.318 -1.907,-0.542 -0.376,-0.818 0,0 Z" /></g><g
           transform="translate(344.3467,292.874)"
           id="g166"><path
             id="path168"
             style="fill:#d4264c;fill-opacity:1;fill-rule:nonzero;stroke:none"
             d="M 0,0 C -0.093,0.728 -0.419,1.137 -0.883,1.091 -1.347,1.045 -1.998,-0.089 -1.95,-0.315 -1.9,-0.543 -0.37,-0.816 0,0" /></g><g
           transform="translate(344.3467,292.874)"
           id="g170"><path
             id="path172"
             style="fill:none;stroke:#1d1d1d;stroke-width:0.55699998;stroke-linecap:round;stroke-linejoin:round;stroke-miterlimit:4;stroke-dasharray:none;stroke-opacity:1"
             d="M 0,0 C -0.093,0.728 -0.419,1.137 -0.883,1.091 -1.347,1.045 -1.998,-0.089 -1.95,-0.315 -1.9,-0.543 -0.37,-0.816 0,0 Z" /></g><g
           transform="translate(333.7549,305.0044)"
           id="g174"><path
             id="path176"
             style="fill:none;stroke:#2f2d2e;stroke-width:0.55699998;stroke-linecap:round;stroke-linejoin:round;stroke-miterlimit:4;stroke-dasharray:none;stroke-opacity:1"
             d="M 0,0 C 0,0 -0.14,-1.36 0.231,-1.998" /></g><g
           transform="translate(329.9004,322.9961)"
           id="g178"><path
             id="path180"
             style="fill:none;stroke:#2f2d2e;stroke-width:0.55699998;stroke-linecap:round;stroke-linejoin:round;stroke-miterlimit:4;stroke-dasharray:none;stroke-opacity:1"
             d="M 0,0 C 0.369,0.272 1.392,-0.272 1.487,-0.637" /></g><g
           transform="translate(332.04,323.8604)"
           id="g182"><path
             id="path184"
             style="fill:none;stroke:#2f2d2e;stroke-width:0.55699998;stroke-linecap:round;stroke-linejoin:round;stroke-miterlimit:4;stroke-dasharray:none;stroke-opacity:1"
             d="M 0,0 C 0.509,0.137 1.02,-0.32 1.065,-0.864" /></g><g
           transform="translate(334.1289,324.2246)"
           id="g186"><path
             id="path188"
             style="fill:none;stroke:#2f2d2e;stroke-width:0.55699998;stroke-linecap:round;stroke-linejoin:round;stroke-miterlimit:4;stroke-dasharray:none;stroke-opacity:1"
             d="M 0,0 C 0.695,0.043 0.791,-0.865 0.744,-1.047" /></g><g
           transform="translate(336.1221,323.9512)"
           id="g190"><path
             id="path192"
             style="fill:none;stroke:#2f2d2e;stroke-width:0.55699998;stroke-linecap:round;stroke-linejoin:round;stroke-miterlimit:4;stroke-dasharray:none;stroke-opacity:1"
             d="M 0,0 C 0.605,-0.138 0.653,-0.729 0.47,-1.135" /></g><g
           transform="translate(337.9854,323.4502)"
           id="g194"><path
             id="path196"
             style="fill:none;stroke:#2f2d2e;stroke-width:0.55699998;stroke-linecap:round;stroke-linejoin:round;stroke-miterlimit:4;stroke-dasharray:none;stroke-opacity:1"
             d="M 0,0 C 0.509,-0.136 0.693,-0.771 0.509,-1.043" /></g><g
           transform="translate(339.748,322.9487)"
           id="g198"><path
             id="path200"
             style="fill:none;stroke:#2f2d2e;stroke-width:0.55699998;stroke-linecap:round;stroke-linejoin:round;stroke-miterlimit:4;stroke-dasharray:none;stroke-opacity:1"
             d="M 0,0 C 0.509,-0.087 0.509,-0.635 0.466,-0.771" /></g><g
           transform="translate(341.3721,322.8159)"
           id="g202"><path
             id="path204"
             style="fill:none;stroke:#2f2d2e;stroke-width:0.55699998;stroke-linecap:round;stroke-linejoin:round;stroke-miterlimit:4;stroke-dasharray:none;stroke-opacity:1"
             d="M 0,0 C 0.421,0.046 0.702,-0.319 0.56,-0.501" /></g><g
           transform="translate(331.9424,321.4521)"
           id="g206"><path
             id="path208"
             style="fill:none;stroke:#2f2d2e;stroke-width:0.55699998;stroke-linecap:round;stroke-linejoin:round;stroke-miterlimit:4;stroke-dasharray:none;stroke-opacity:1"
             d="M 0,0 C 0.648,0.137 1.116,-0.683 1.072,-1.137" /></g><g
           transform="translate(333.9863,321.7246)"
           id="g210"><path
             id="path212"
             style="fill:none;stroke:#2f2d2e;stroke-width:0.55699998;stroke-linecap:round;stroke-linejoin:round;stroke-miterlimit:4;stroke-dasharray:none;stroke-opacity:1"
             d="M 0,0 C 0.934,-0.045 0.934,-1.092 0.742,-1.271" /></g><g
           transform="translate(336.0332,321.4077)"
           id="g214"><path
             id="path216"
             style="fill:none;stroke:#2f2d2e;stroke-width:0.55699998;stroke-linecap:round;stroke-linejoin:round;stroke-miterlimit:4;stroke-dasharray:none;stroke-opacity:1"
             d="M 0,0 C 0.559,-0.182 0.648,-0.955 0.418,-1.274" /></g><g
           transform="translate(337.6592,320.769)"
           id="g218"><path
             id="path220"
             style="fill:none;stroke:#2f2d2e;stroke-width:0.55699998;stroke-linecap:round;stroke-linejoin:round;stroke-miterlimit:4;stroke-dasharray:none;stroke-opacity:1"
             d="M 0,0 C 0.466,-0.179 0.558,-0.953 0.18,-1.224" /></g><g
           transform="translate(339.4209,319.7256)"
           id="g222"><path
             id="path224"
             style="fill:none;stroke:#2f2d2e;stroke-width:0.55699998;stroke-linecap:round;stroke-linejoin:round;stroke-miterlimit:4;stroke-dasharray:none;stroke-opacity:1"
             d="M 0,0 C 0.516,-0.318 0.327,-0.911 0.093,-1" /></g><g
           transform="translate(341.0039,318.8149)"
           id="g226"><path
             id="path228"
             style="fill:none;stroke:#2f2d2e;stroke-width:0.55699998;stroke-linecap:round;stroke-linejoin:round;stroke-miterlimit:4;stroke-dasharray:none;stroke-opacity:1"
             d="M 0,0 C 0.368,-0.09 0.137,-0.589 0.137,-0.589" /></g><g
           transform="translate(342.6279,318.3599)"
           id="g230"><path
             id="path232"
             style="fill:none;stroke:#2f2d2e;stroke-width:0.55699998;stroke-linecap:round;stroke-linejoin:round;stroke-miterlimit:4;stroke-dasharray:none;stroke-opacity:1"
             d="M 0,0 C 0.278,-0.042 0.139,-0.315 0.139,-0.315" /></g><g
           transform="translate(328.3936,317.1021)"
           id="g234"><path
             id="path236"
             style="fill:none;stroke:#2f2d2e;stroke-width:0.55699998;stroke-linecap:round;stroke-linejoin:round;stroke-miterlimit:4;stroke-dasharray:none;stroke-opacity:1"
             d="M 0,0 C 0.23,0 0.421,0.189 0.421,0.42 0.421,0.65 0.23,0.838 0,0.838 -0.238,0.838 -0.434,0.649 -0.434,0.42 -0.434,0.188 -0.238,0 0,0 Z" /></g><g
           transform="translate(327.3916,317.4556)"
           id="g238"><path
             id="path240"
             style="fill:none;stroke:#2f2d2e;stroke-width:0.55699998;stroke-linecap:round;stroke-linejoin:round;stroke-miterlimit:4;stroke-dasharray:none;stroke-opacity:1"
             d="M 0,0 C 0.416,0.361 1.062,0.997 1.86,0" /></g><g
           transform="translate(329.6201,314.3193)"
           id="g242"><path
             id="path244"
             style="fill:none;stroke:#2f2d2e;stroke-width:0.55699998;stroke-linecap:round;stroke-linejoin:round;stroke-miterlimit:4;stroke-dasharray:none;stroke-opacity:1"
             d="M 0,0 C 0,0 1.208,-1.406 0.604,-2.5" /></g><g
           transform="translate(329.6201,309.2319)"
           id="g246"><path
             id="path248"
             style="fill:none;stroke:#2f2d2e;stroke-width:0.55699998;stroke-linecap:round;stroke-linejoin:round;stroke-miterlimit:4;stroke-dasharray:none;stroke-opacity:1"
             d="M 0,0 C 0,0 -0.74,-0.593 -0.787,-2.317" /></g><g
           transform="translate(332.917,310.7739)"
           id="g250"><path
             id="path252"
             style="fill:none;stroke:#2f2d2e;stroke-width:0.55699998;stroke-linecap:round;stroke-linejoin:round;stroke-miterlimit:4;stroke-dasharray:none;stroke-opacity:1"
             d="M 0,0 C 0,0 -0.975,-0.588 -1.208,-2.226" /></g><g
           transform="translate(329.9482,306.2759)"
           id="g254"><path
             id="path256"
             style="fill:none;stroke:#2f2d2e;stroke-width:0.55699998;stroke-linecap:round;stroke-linejoin:round;stroke-miterlimit:4;stroke-dasharray:none;stroke-opacity:1"
             d="M 0,0 C 0,0 -0.096,-1.227 -0.42,-1.861" /></g><g
           transform="translate(327.2998,305.1851)"
           id="g258"><path
             id="path260"
             style="fill:none;stroke:#2f2d2e;stroke-width:0.55699998;stroke-linecap:round;stroke-linejoin:round;stroke-miterlimit:4;stroke-dasharray:none;stroke-opacity:1"
             d="M 0,0 C 0,0 -0.19,-1.044 -0.137,-1.497" /></g><g
           transform="translate(335.9395,305.687)"
           id="g262"><path
             id="path264"
             style="fill:none;stroke:#2f2d2e;stroke-width:0.55699998;stroke-linecap:round;stroke-linejoin:round;stroke-miterlimit:4;stroke-dasharray:none;stroke-opacity:1"
             d="M 0,0 C 0,0 0.134,-0.865 0.836,-1.907" /></g><g
           transform="translate(338.4473,306.1855)"
           id="g266"><path
             id="path268"
             style="fill:none;stroke:#2f2d2e;stroke-width:0.55699998;stroke-linecap:round;stroke-linejoin:round;stroke-miterlimit:4;stroke-dasharray:none;stroke-opacity:1"
             d="M 0,0 C 0,0 -0.462,-0.771 -0.048,-1.862" /></g><g
           transform="translate(341.0498,305.6416)"
           id="g270"><path
             id="path272"
             style="fill:none;stroke:#2f2d2e;stroke-width:0.55699998;stroke-linecap:round;stroke-linejoin:round;stroke-miterlimit:4;stroke-dasharray:none;stroke-opacity:1"
             d="M 0,0 C 0,0 -0.468,-0.592 0.137,-1.637" /></g><g
           transform="translate(343.4648,306.0073)"
           id="g274"><path
             id="path276"
             style="fill:none;stroke:#2f2d2e;stroke-width:0.55699998;stroke-linecap:round;stroke-linejoin:round;stroke-miterlimit:4;stroke-dasharray:none;stroke-opacity:1"
             d="M 0,0 C 0,0 -0.509,-1.456 1.35,-2.227" /></g><g
           transform="translate(343.834,307.8218)"
           id="g278"><path
             id="path280"
             style="fill:none;stroke:#2f2d2e;stroke-width:0.55699998;stroke-linecap:round;stroke-linejoin:round;stroke-miterlimit:4;stroke-dasharray:none;stroke-opacity:1"
             d="M 0,0 C 0,0 1.489,-0.228 2.044,0.138" /></g><g
           transform="translate(343.1865,309.1411)"
           id="g282"><path
             id="path284"
             style="fill:none;stroke:#2f2d2e;stroke-width:0.55699998;stroke-linecap:round;stroke-linejoin:round;stroke-miterlimit:4;stroke-dasharray:none;stroke-opacity:1"
             d="M 0,0 C 0,0 1.16,0.725 1.719,0.634" /></g><g
           transform="translate(338.957,310.3662)"
           id="g286"><path
             id="path288"
             style="fill:none;stroke:#2f2d2e;stroke-width:0.55699998;stroke-linecap:round;stroke-linejoin:round;stroke-miterlimit:4;stroke-dasharray:none;stroke-opacity:1"
             d="M 0,0 C 0,0 1.021,-0.818 1.115,-1.637" /></g><g
           transform="translate(335.2881,310.0488)"
           id="g290"><path
             id="path292"
             style="fill:none;stroke:#2f2d2e;stroke-width:0.55699998;stroke-linecap:round;stroke-linejoin:round;stroke-miterlimit:4;stroke-dasharray:none;stroke-opacity:1"
             d="M 0,0 C 0,0 1.208,-0.545 1.395,-1.41" /></g><g
           transform="translate(341.1406,302.415)"
           id="g294"><path
             id="path296"
             style="fill:none;stroke:#2f2d2e;stroke-width:0.55699998;stroke-linecap:round;stroke-linejoin:round;stroke-miterlimit:4;stroke-dasharray:none;stroke-opacity:1"
             d="M 0,0 C 0,0 0.835,-0.179 1.584,0.227" /></g><g
           transform="translate(345.2305,302.3267)"
           id="g298"><path
             id="path300"
             style="fill:none;stroke:#2f2d2e;stroke-width:0.55699998;stroke-linecap:round;stroke-linejoin:round;stroke-miterlimit:4;stroke-dasharray:none;stroke-opacity:1"
             d="M 0,0 C 0,0 1.303,-1.683 0.93,-2.002" /></g><g
           transform="translate(290.2256,318.9517)"
           id="g302"><path
             id="path304"
             style="fill:#ffeb5b;fill-opacity:1;fill-rule:nonzero;stroke:none"
             d="M 0,0 C 0.325,0.273 0.699,0.864 0.699,0.864 L 1.532,0.229 C 1.769,0.547 2.137,1.41 2.137,1.41 2.56,1.138 3.44,0.91 3.44,0.91 c 0.138,0.817 0,1.454 0,1.454 C 4.183,1.726 5.201,1.726 5.201,1.726 4.834,2.957 3.998,3.591 3.998,3.591 4.877,3.272 6.085,3.456 6.085,3.456 5.574,3.864 4.975,4.955 4.975,4.955 5.483,4.91 6.549,4.181 6.549,4.181 6.458,5.544 5.295,6.18 5.295,6.18 5.622,6.451 6.782,6.588 6.782,6.588 6.549,6.588 5.393,7.679 5.393,7.679 5.717,8.362 6.502,8.677 6.502,8.677 5.764,9.544 4.319,9.271 4.319,9.271 4.6,10.132 5.393,10.178 5.622,11.315 4.923,10.771 4.042,11.221 3.72,11.724 l -7.438,0 c -0.328,-0.503 -1.207,-0.953 -1.902,-0.409 0.231,-1.136 1.019,-1.183 1.303,-2.044 0,0 -1.44,0.272 -2.188,-0.594 0,0 0.79,-0.315 1.115,-0.998 0,0 -1.157,-1.091 -1.396,-1.091 0,0 1.165,-0.137 1.488,-0.408 0,0 -1.163,-0.636 -1.249,-1.999 0,0 1.066,0.728 1.575,0.774 0,0 -0.604,-1.091 -1.117,-1.499 0,0 1.211,-0.184 2.094,0.135 0,0 -0.833,-0.634 -1.206,-1.865 0,0 1.023,0 1.759,0.638 0,0 -0.14,-0.638 0,-1.454 0,0 0.888,0.228 1.308,0.5 0,0 0.363,-0.862 0.601,-1.181 l 0.834,0.635 C -0.697,0.864 -0.325,0.273 0,0" /></g><g
           transform="translate(290.2256,318.9517)"
           id="g306"><path
             id="path308"
             style="fill:none;stroke:#2f2d2e;stroke-width:0.55699998;stroke-linecap:round;stroke-linejoin:round;stroke-miterlimit:4;stroke-dasharray:none;stroke-opacity:1"
             d="M 0,0 C 0.325,0.273 0.699,0.864 0.699,0.864 L 1.532,0.229 C 1.769,0.547 2.137,1.41 2.137,1.41 2.56,1.138 3.44,0.91 3.44,0.91 c 0.138,0.817 0,1.454 0,1.454 C 4.183,1.726 5.201,1.726 5.201,1.726 4.834,2.957 3.998,3.591 3.998,3.591 4.877,3.272 6.085,3.456 6.085,3.456 5.574,3.864 4.975,4.955 4.975,4.955 5.483,4.91 6.549,4.181 6.549,4.181 6.458,5.544 5.295,6.18 5.295,6.18 5.622,6.451 6.782,6.588 6.782,6.588 6.549,6.588 5.393,7.679 5.393,7.679 5.717,8.362 6.502,8.677 6.502,8.677 5.764,9.544 4.319,9.271 4.319,9.271 4.6,10.132 5.393,10.178 5.622,11.315 4.923,10.771 4.042,11.221 3.72,11.724 l -7.438,0 c -0.328,-0.503 -1.207,-0.953 -1.902,-0.409 0.231,-1.136 1.019,-1.183 1.303,-2.044 0,0 -1.44,0.272 -2.188,-0.594 0,0 0.79,-0.315 1.115,-0.998 0,0 -1.157,-1.091 -1.396,-1.091 0,0 1.165,-0.137 1.488,-0.408 0,0 -1.163,-0.636 -1.249,-1.999 0,0 1.066,0.728 1.575,0.774 0,0 -0.604,-1.091 -1.117,-1.499 0,0 1.211,-0.184 2.094,0.135 0,0 -0.833,-0.634 -1.206,-1.865 0,0 1.023,0 1.759,0.638 0,0 -0.14,-0.638 0,-1.454 0,0 0.888,0.228 1.308,0.5 0,0 0.363,-0.862 0.601,-1.181 l 0.834,0.635 C -0.697,0.864 -0.325,0.273 0,0 Z" /></g><g
           transform="translate(293.9473,330.6743)"
           id="g310"><path
             id="path312"
             style="fill:#ffeb5b;fill-opacity:1;fill-rule:nonzero;stroke:none"
             d="M 0,0 C 0,0 0,1.406 0.461,1.634 0.925,1.862 1.346,2.637 1.295,2.906 L 0.786,3.134 c 0,0 -0.093,-0.725 -1.394,-0.861 0,0 -0.465,-0.685 -0.419,-1.003 l -1.114,0 c 0,0.637 0,1.5 -0.747,1.5 -0.229,0 -0.278,0.319 -0.278,0.501 0,0.181 -0.042,0.59 -0.46,0.59 l -0.187,0 c -0.417,0 -0.463,-0.409 -0.463,-0.59 0,-0.182 -0.053,-0.501 -0.284,-0.501 -0.737,0 -0.737,-0.863 -0.737,-1.5 l -1.118,0 c 0.047,0.318 -0.417,1.003 -0.417,1.003 -1.299,0.136 -1.397,0.861 -1.397,0.861 L -8.741,2.906 C -8.786,2.636 -8.37,1.862 -7.899,1.634 -7.439,1.406 -7.439,0 -7.439,0 L 0,0 Z" /></g><g
           transform="translate(293.9473,330.6743)"
           id="g314"><path
             id="path316"
             style="fill:none;stroke:#2f2d2e;stroke-width:0.55699998;stroke-linecap:round;stroke-linejoin:round;stroke-miterlimit:4;stroke-dasharray:none;stroke-opacity:1"
             d="M 0,0 C 0,0 0,1.406 0.461,1.634 0.925,1.862 1.346,2.637 1.295,2.906 L 0.786,3.134 c 0,0 -0.093,-0.725 -1.394,-0.861 0,0 -0.465,-0.685 -0.419,-1.003 l -1.114,0 c 0,0.637 0,1.5 -0.747,1.5 -0.229,0 -0.278,0.319 -0.278,0.501 0,0.181 -0.042,0.59 -0.46,0.59 l -0.187,0 c -0.417,0 -0.463,-0.409 -0.463,-0.59 0,-0.182 -0.053,-0.501 -0.284,-0.501 -0.737,0 -0.737,-0.863 -0.737,-1.5 l -1.118,0 c 0.047,0.318 -0.417,1.003 -0.417,1.003 -1.299,0.136 -1.397,0.861 -1.397,0.861 L -8.741,2.906 C -8.786,2.636 -8.37,1.862 -7.899,1.634 -7.439,1.406 -7.439,0 -7.439,0 L 0,0 Z" /></g><g
           transform="translate(309.7422,318.9517)"
           id="g318"><path
             id="path320"
             style="fill:#ffeb5b;fill-opacity:1;fill-rule:nonzero;stroke:none"
             d="M 0,0 C 0.321,0.273 0.696,0.864 0.696,0.864 L 1.528,0.229 C 1.76,0.547 2.132,1.41 2.132,1.41 2.547,1.138 3.436,0.91 3.436,0.91 c 0.136,0.817 0,1.454 0,1.454 C 4.179,1.726 5.198,1.726 5.198,1.726 4.827,2.957 3.987,3.591 3.987,3.591 4.87,3.272 6.08,3.456 6.08,3.456 5.568,3.864 4.966,4.955 4.966,4.955 5.475,4.91 6.549,4.181 6.549,4.181 6.452,5.544 5.291,6.18 5.291,6.18 5.614,6.451 6.779,6.588 6.779,6.588 6.548,6.588 5.387,7.679 5.387,7.679 5.707,8.362 6.5,8.677 6.5,8.677 5.756,9.544 4.317,9.271 4.317,9.271 c 0.278,0.861 1.07,0.907 1.297,2.044 -0.695,-0.544 -1.58,-0.094 -1.906,0.409 l -7.432,0 c -0.323,-0.503 -1.21,-0.953 -1.901,-0.409 0.229,-1.136 1.021,-1.183 1.295,-2.044 0,0 -1.441,0.272 -2.181,-0.594 0,0 0.792,-0.315 1.115,-0.998 0,0 -1.163,-1.091 -1.391,-1.091 0,0 1.161,-0.137 1.486,-0.408 0,0 -1.165,-0.636 -1.258,-1.999 0,0 1.065,0.728 1.584,0.774 0,0 -0.605,-1.091 -1.114,-1.499 0,0 1.206,-0.184 2.089,0.135 0,0 -0.84,-0.634 -1.212,-1.865 0,0 1.025,0 1.769,0.638 0,0 -0.143,-0.638 0,-1.454 0,0 0.877,0.228 1.295,0.5 0,0 0.377,-0.862 0.607,-1.181 l 0.834,0.635 C -0.703,0.864 -0.331,0.273 0,0" /></g><g
           transform="translate(309.7422,318.9517)"
           id="g322"><path
             id="path324"
             style="fill:none;stroke:#2f2d2e;stroke-width:0.55699998;stroke-linecap:round;stroke-linejoin:round;stroke-miterlimit:4;stroke-dasharray:none;stroke-opacity:1"
             d="M 0,0 C 0.321,0.273 0.696,0.864 0.696,0.864 L 1.528,0.229 C 1.76,0.547 2.132,1.41 2.132,1.41 2.547,1.138 3.436,0.91 3.436,0.91 c 0.136,0.817 0,1.454 0,1.454 C 4.179,1.726 5.198,1.726 5.198,1.726 4.827,2.957 3.987,3.591 3.987,3.591 4.87,3.272 6.08,3.456 6.08,3.456 5.568,3.864 4.966,4.955 4.966,4.955 5.475,4.91 6.549,4.181 6.549,4.181 6.452,5.544 5.291,6.18 5.291,6.18 5.614,6.451 6.779,6.588 6.779,6.588 6.548,6.588 5.387,7.679 5.387,7.679 5.707,8.362 6.5,8.677 6.5,8.677 5.756,9.544 4.317,9.271 4.317,9.271 c 0.278,0.861 1.07,0.907 1.297,2.044 -0.695,-0.544 -1.58,-0.094 -1.906,0.409 l -7.432,0 c -0.323,-0.503 -1.21,-0.953 -1.901,-0.409 0.229,-1.136 1.021,-1.183 1.295,-2.044 0,0 -1.441,0.272 -2.181,-0.594 0,0 0.792,-0.315 1.115,-0.998 0,0 -1.163,-1.091 -1.391,-1.091 0,0 1.161,-0.137 1.486,-0.408 0,0 -1.165,-0.636 -1.258,-1.999 0,0 1.065,0.728 1.584,0.774 0,0 -0.605,-1.091 -1.114,-1.499 0,0 1.206,-0.184 2.089,0.135 0,0 -0.84,-0.634 -1.212,-1.865 0,0 1.025,0 1.769,0.638 0,0 -0.143,-0.638 0,-1.454 0,0 0.877,0.228 1.295,0.5 0,0 0.377,-0.862 0.607,-1.181 l 0.834,0.635 C -0.703,0.864 -0.331,0.273 0,0 Z" /></g><g
           transform="translate(313.4521,330.6743)"
           id="g326"><path
             id="path328"
             style="fill:#ffeb5b;fill-opacity:1;fill-rule:nonzero;stroke:none"
             d="M 0,0 C 0,0 0,1.406 0.47,1.634 0.933,1.862 1.348,2.637 1.3,2.906 L 0.792,3.134 c 0,0 -0.095,-0.725 -1.394,-0.861 0,0 -0.462,-0.685 -0.417,-1.003 l -1.116,0 c 0,0.637 0,1.5 -0.743,1.5 -0.233,0 -0.277,0.319 -0.277,0.501 0,0.181 -0.045,0.59 -0.466,0.59 l -0.185,0 c -0.42,0 -0.465,-0.409 -0.465,-0.59 0,-0.182 -0.044,-0.501 -0.277,-0.501 -0.749,0 -0.749,-0.863 -0.749,-1.5 l -1.111,0 c 0.044,0.318 -0.42,1.003 -0.42,1.003 -1.301,0.136 -1.393,0.861 -1.393,0.861 L -8.732,2.906 C -8.773,2.636 -8.359,1.862 -7.896,1.634 -7.432,1.406 -7.432,0 -7.432,0 L 0,0 Z" /></g><g
           transform="translate(313.4521,330.6743)"
           id="g330"><path
             id="path332"
             style="fill:none;stroke:#2f2d2e;stroke-width:0.55699998;stroke-linecap:round;stroke-linejoin:round;stroke-miterlimit:4;stroke-dasharray:none;stroke-opacity:1"
             d="M 0,0 C 0,0 0,1.406 0.47,1.634 0.933,1.862 1.348,2.637 1.3,2.906 L 0.792,3.134 c 0,0 -0.095,-0.725 -1.394,-0.861 0,0 -0.462,-0.685 -0.417,-1.003 l -1.116,0 c 0,0.637 0,1.5 -0.743,1.5 -0.233,0 -0.277,0.319 -0.277,0.501 0,0.181 -0.045,0.59 -0.466,0.59 l -0.185,0 c -0.42,0 -0.465,-0.409 -0.465,-0.59 0,-0.182 -0.044,-0.501 -0.277,-0.501 -0.749,0 -0.749,-0.863 -0.749,-1.5 l -1.111,0 c 0.044,0.318 -0.42,1.003 -0.42,1.003 -1.301,0.136 -1.393,0.861 -1.393,0.861 L -8.732,2.906 C -8.773,2.636 -8.359,1.862 -7.896,1.634 -7.432,1.406 -7.432,0 -7.432,0 L 0,0 Z" /></g><g
           transform="translate(299.9824,302.6865)"
           id="g334"><path
             id="path336"
             style="fill:#ffeb5b;fill-opacity:1;fill-rule:nonzero;stroke:none"
             d="M 0,0 C 0.328,0.274 0.698,0.864 0.698,0.864 L 1.531,0.229 c 0.234,0.317 0.605,1.18 0.605,1.18 0.423,-0.27 1.3,-0.497 1.3,-0.497 0.141,0.816 0,1.451 0,1.451 C 4.183,1.728 5.203,1.728 5.203,1.728 4.829,2.955 3.991,3.589 3.991,3.589 4.879,3.274 6.084,3.454 6.084,3.454 5.574,3.862 4.971,4.954 4.971,4.954 5.479,4.907 6.549,4.181 6.549,4.181 c -0.091,1.366 -1.251,2 -1.251,2 0.321,0.274 1.483,0.407 1.483,0.407 -0.231,0 -1.395,1.092 -1.395,1.092 0.329,0.681 1.116,1 1.116,1 C 5.763,9.541 4.318,9.269 4.318,9.269 4.602,10.135 5.386,10.18 5.619,11.314 4.923,10.769 4.042,11.22 3.714,11.723 l -7.43,0 c -0.324,-0.503 -1.207,-0.954 -1.903,-0.409 0.227,-1.133 1.019,-1.179 1.295,-2.045 0,0 -1.435,0.273 -2.179,-0.589 0,0 0.79,-0.319 1.111,-1 0,0 -1.16,-1.092 -1.388,-1.092 0,0 1.161,-0.133 1.482,-0.407 0,0 -1.163,-0.634 -1.254,-2 0,0 1.072,0.726 1.579,0.773 0,0 -0.601,-1.092 -1.113,-1.5 0,0 1.207,-0.181 2.095,0.135 0,0 -0.842,-0.634 -1.207,-1.861 0,0 1.015,0 1.759,0.635 0,0 -0.133,-0.635 0,-1.451 0,0 0.883,0.227 1.298,0.497 0,0 0.374,-0.863 0.606,-1.18 l 0.836,0.635 C -0.698,0.864 -0.327,0.274 0,0" /></g><g
           transform="translate(299.9824,302.6865)"
           id="g338"><path
             id="path340"
             style="fill:none;stroke:#2f2d2e;stroke-width:0.55699998;stroke-linecap:round;stroke-linejoin:round;stroke-miterlimit:4;stroke-dasharray:none;stroke-opacity:1"
             d="M 0,0 C 0.328,0.274 0.698,0.864 0.698,0.864 L 1.531,0.229 c 0.234,0.317 0.605,1.18 0.605,1.18 0.423,-0.27 1.3,-0.497 1.3,-0.497 0.141,0.816 0,1.451 0,1.451 C 4.183,1.728 5.203,1.728 5.203,1.728 4.829,2.955 3.991,3.589 3.991,3.589 4.879,3.274 6.084,3.454 6.084,3.454 5.574,3.862 4.971,4.954 4.971,4.954 5.479,4.907 6.549,4.181 6.549,4.181 c -0.091,1.366 -1.251,2 -1.251,2 0.321,0.274 1.483,0.407 1.483,0.407 -0.231,0 -1.395,1.092 -1.395,1.092 0.329,0.681 1.116,1 1.116,1 C 5.763,9.541 4.318,9.269 4.318,9.269 4.602,10.135 5.386,10.18 5.619,11.314 4.923,10.769 4.042,11.22 3.714,11.723 l -7.43,0 c -0.324,-0.503 -1.207,-0.954 -1.903,-0.409 0.227,-1.133 1.019,-1.179 1.295,-2.045 0,0 -1.435,0.273 -2.179,-0.589 0,0 0.79,-0.319 1.111,-1 0,0 -1.16,-1.092 -1.388,-1.092 0,0 1.161,-0.133 1.482,-0.407 0,0 -1.163,-0.634 -1.254,-2 0,0 1.072,0.726 1.579,0.773 0,0 -0.601,-1.092 -1.113,-1.5 0,0 1.207,-0.181 2.095,0.135 0,0 -0.842,-0.634 -1.207,-1.861 0,0 1.015,0 1.759,0.635 0,0 -0.133,-0.635 0,-1.451 0,0 0.883,0.227 1.298,0.497 0,0 0.374,-0.863 0.606,-1.18 l 0.836,0.635 C -0.698,0.864 -0.327,0.274 0,0 Z" /></g><g
           transform="translate(303.6973,314.4097)"
           id="g342"><path
             id="path344"
             style="fill:#ffeb5b;fill-opacity:1;fill-rule:nonzero;stroke:none"
             d="M 0,0 C 0,0 0,1.408 0.468,1.634 0.931,1.862 1.345,2.635 1.307,2.911 L 0.79,3.134 c 0,0 -0.095,-0.724 -1.39,-0.862 0,0 -0.467,-0.682 -0.421,-0.998 l -1.114,0 c 0,0.632 0,1.497 -0.744,1.497 -0.231,0 -0.277,0.321 -0.277,0.5 0,0.182 -0.049,0.592 -0.468,0.592 l -0.183,0 c -0.418,0 -0.466,-0.41 -0.466,-0.592 0,-0.179 -0.047,-0.5 -0.279,-0.5 -0.744,0 -0.744,-0.865 -0.744,-1.497 l -1.116,0 c 0.046,0.316 -0.416,0.998 -0.416,0.998 -1.3,0.138 -1.397,0.862 -1.397,0.862 L -8.731,2.911 C -8.78,2.636 -8.362,1.862 -7.897,1.634 -7.431,1.409 -7.431,0 -7.431,0 L 0,0 Z" /></g><g
           transform="translate(303.6973,314.4097)"
           id="g346"><path
             id="path348"
             style="fill:none;stroke:#2f2d2e;stroke-width:0.55699998;stroke-linecap:round;stroke-linejoin:round;stroke-miterlimit:4;stroke-dasharray:none;stroke-opacity:1"
             d="M 0,0 C 0,0 0,1.408 0.468,1.634 0.931,1.862 1.345,2.635 1.307,2.911 L 0.79,3.134 c 0,0 -0.095,-0.724 -1.39,-0.862 0,0 -0.467,-0.682 -0.421,-0.998 l -1.114,0 c 0,0.632 0,1.497 -0.744,1.497 -0.231,0 -0.277,0.321 -0.277,0.5 0,0.182 -0.049,0.592 -0.468,0.592 l -0.183,0 c -0.418,0 -0.466,-0.41 -0.466,-0.592 0,-0.179 -0.047,-0.5 -0.279,-0.5 -0.744,0 -0.744,-0.865 -0.744,-1.497 l -1.116,0 c 0.046,0.316 -0.416,0.998 -0.416,0.998 -1.3,0.138 -1.397,0.862 -1.397,0.862 L -8.731,2.911 C -8.78,2.636 -8.362,1.862 -7.897,1.634 -7.431,1.409 -7.431,0 -7.431,0 L 0,0 Z" /></g><g
           transform="translate(287.0908,328.3379)"
           id="g350"><path
             id="path352"
             style="fill:#ffeb5b;fill-opacity:1;fill-rule:nonzero;stroke:#2f2d2e;stroke-width:0.55699998;stroke-linecap:round;stroke-linejoin:round;stroke-miterlimit:4;stroke-dasharray:none;stroke-opacity:1"
             d="m 0,0 c 0.246,-0.544 0.828,-0.923 1.507,-0.923 0.912,0 1.646,0.676 1.646,1.509 0,0.417 -0.185,0.795 -0.481,1.067" /></g><g
           transform="translate(288.6943,326.2344)"
           id="g354"><path
             id="path356"
             style="fill:#ffeb5b;fill-opacity:1;fill-rule:nonzero;stroke:none"
             d="M 0,0 C 0.326,0 0.591,0.26 0.591,0.578 0.591,0.899 0.326,1.155 0,1.155 -0.329,1.155 -0.59,0.898 -0.59,0.578 -0.591,0.26 -0.329,0 0,0" /></g><g
           transform="translate(288.6943,326.2344)"
           id="g358"><path
             id="path360"
             style="fill:none;stroke:#2f2d2e;stroke-width:0.55699998;stroke-linecap:round;stroke-linejoin:round;stroke-miterlimit:4;stroke-dasharray:none;stroke-opacity:1"
             d="M 0,0 C 0.326,0 0.591,0.26 0.591,0.578 0.591,0.899 0.326,1.155 0,1.155 -0.329,1.155 -0.59,0.898 -0.59,0.578 -0.591,0.26 -0.329,0 0,0 Z" /></g><g
           transform="translate(289.1973,325.1128)"
           id="g362"><path
             id="path364"
             style="fill:#ffeb5b;fill-opacity:1;fill-rule:nonzero;stroke:#2f2d2e;stroke-width:0.55699998;stroke-linecap:round;stroke-linejoin:round;stroke-miterlimit:4;stroke-dasharray:none;stroke-opacity:1"
             d="M 0,0 C 0.232,-0.319 0.616,-0.528 1.047,-0.528" /></g><g
           transform="translate(290.2256,323.8604)"
           id="g366"><path
             id="path368"
             style="fill:#ffeb5b;fill-opacity:1;fill-rule:nonzero;stroke:#2f2d2e;stroke-width:0.55699998;stroke-linecap:round;stroke-linejoin:round;stroke-miterlimit:4;stroke-dasharray:none;stroke-opacity:1"
             d="M 0,0 C 0,-0.639 -0.091,-1.636 -1.949,-0.32" /></g><g
           transform="translate(289.8086,321.5889)"
           id="g370"><path
             id="path372"
             style="fill:#ffeb5b;fill-opacity:1;fill-rule:nonzero;stroke:#2f2d2e;stroke-width:0.55699998;stroke-linecap:round;stroke-linejoin:round;stroke-miterlimit:4;stroke-dasharray:none;stroke-opacity:1"
             d="M 0,0 C 0,0 0.703,0.182 0.882,0" /></g><g
           transform="translate(293.3662,328.3379)"
           id="g374"><path
             id="path376"
             style="fill:#ffeb5b;fill-opacity:1;fill-rule:nonzero;stroke:#2f2d2e;stroke-width:0.55699998;stroke-linecap:round;stroke-linejoin:round;stroke-miterlimit:4;stroke-dasharray:none;stroke-opacity:1"
             d="m 0,0 c -0.25,-0.544 -0.835,-0.923 -1.514,-0.923 -0.906,0 -1.642,0.676 -1.642,1.509 0,0.417 0.184,0.795 0.479,1.067" /></g><g
           transform="translate(291.7578,326.2344)"
           id="g378"><path
             id="path380"
             style="fill:#ffeb5b;fill-opacity:1;fill-rule:nonzero;stroke:none"
             d="m 0,0 c -0.323,0 -0.591,0.26 -0.591,0.578 0,0.321 0.268,0.577 0.591,0.577 0.331,0 0.593,-0.257 0.593,-0.577 C 0.594,0.26 0.331,0 0,0" /></g><g
           transform="translate(291.7578,326.2344)"
           id="g382"><path
             id="path384"
             style="fill:none;stroke:#2f2d2e;stroke-width:0.55699998;stroke-linecap:round;stroke-linejoin:round;stroke-miterlimit:4;stroke-dasharray:none;stroke-opacity:1"
             d="m 0,0 c -0.323,0 -0.591,0.26 -0.591,0.578 0,0.321 0.268,0.577 0.591,0.577 0.331,0 0.593,-0.257 0.593,-0.577 C 0.594,0.26 0.331,0 0,0 Z" /></g><g
           transform="translate(291.2549,325.1128)"
           id="g386"><path
             id="path388"
             style="fill:#ffeb5b;fill-opacity:1;fill-rule:nonzero;stroke:#2f2d2e;stroke-width:0.55699998;stroke-linecap:round;stroke-linejoin:round;stroke-miterlimit:4;stroke-dasharray:none;stroke-opacity:1"
             d="M 0,0 C -0.23,-0.319 -0.614,-0.528 -1.045,-0.528" /></g><g
           transform="translate(290.2256,323.8604)"
           id="g390"><path
             id="path392"
             style="fill:#ffeb5b;fill-opacity:1;fill-rule:nonzero;stroke:#2f2d2e;stroke-width:0.55699998;stroke-linecap:round;stroke-linejoin:round;stroke-miterlimit:4;stroke-dasharray:none;stroke-opacity:1"
             d="M 0,0 C 0,-0.639 0.097,-1.636 1.949,-0.32" /></g><g
           transform="translate(289.8086,321.269)"
           id="g394"><path
             id="path396"
             style="fill:#ffeb5b;fill-opacity:1;fill-rule:nonzero;stroke:#2f2d2e;stroke-width:0.55699998;stroke-linecap:round;stroke-linejoin:round;stroke-miterlimit:4;stroke-dasharray:none;stroke-opacity:1"
             d="M 0,0 C 0,0 0.703,0.183 0.882,0" /></g><g
           transform="translate(285.8174,326.4048)"
           id="g398"><path
             id="path400"
             style="fill:#ffeb5b;fill-opacity:1;fill-rule:nonzero;stroke:#2f2d2e;stroke-width:0.55699998;stroke-linecap:round;stroke-linejoin:round;stroke-miterlimit:4;stroke-dasharray:none;stroke-opacity:1"
             d="M 0,0 C 0,-0.728 -0.097,-1.185 0.363,-2.272" /></g><g
           transform="translate(294.6416,326.4048)"
           id="g402"><path
             id="path404"
             style="fill:#ffeb5b;fill-opacity:1;fill-rule:nonzero;stroke:#2f2d2e;stroke-width:0.55699998;stroke-linecap:round;stroke-linejoin:round;stroke-miterlimit:4;stroke-dasharray:none;stroke-opacity:1"
             d="M 0,0 C 0,-0.728 0.093,-1.185 -0.371,-2.272" /></g><g
           transform="translate(288.6943,326.2344)"
           id="g406"><path
             id="path408"
             style="fill:none;stroke:#2f2d2e;stroke-width:0.55699998;stroke-linecap:round;stroke-linejoin:round;stroke-miterlimit:4;stroke-dasharray:none;stroke-opacity:1"
             d="M 0,0 0,-0.239" /></g><g
           transform="translate(291.7578,326.2344)"
           id="g410"><path
             id="path412"
             style="fill:none;stroke:#2f2d2e;stroke-width:0.55699998;stroke-linecap:round;stroke-linejoin:round;stroke-miterlimit:4;stroke-dasharray:none;stroke-opacity:1"
             d="M 0,0 0,-0.239" /></g><g
           transform="translate(306.5977,328.3379)"
           id="g414"><path
             id="path416"
             style="fill:#ffeb5b;fill-opacity:1;fill-rule:nonzero;stroke:#2f2d2e;stroke-width:0.55699998;stroke-linecap:round;stroke-linejoin:round;stroke-miterlimit:4;stroke-dasharray:none;stroke-opacity:1"
             d="m 0,0 c 0.249,-0.544 0.833,-0.923 1.515,-0.923 0.908,0 1.642,0.676 1.642,1.509 0,0.417 -0.182,0.795 -0.48,1.067" /></g><g
           transform="translate(308.2041,326.2344)"
           id="g418"><path
             id="path420"
             style="fill:#ffeb5b;fill-opacity:1;fill-rule:nonzero;stroke:none"
             d="M 0,0 C 0.328,0 0.595,0.26 0.595,0.578 0.595,0.899 0.328,1.155 0,1.155 -0.326,1.155 -0.59,0.898 -0.59,0.578 -0.59,0.26 -0.327,0 0,0" /></g><g
           transform="translate(308.2041,326.2344)"
           id="g422"><path
             id="path424"
             style="fill:none;stroke:#2f2d2e;stroke-width:0.55699998;stroke-linecap:round;stroke-linejoin:round;stroke-miterlimit:4;stroke-dasharray:none;stroke-opacity:1"
             d="M 0,0 C 0.328,0 0.595,0.26 0.595,0.578 0.595,0.899 0.328,1.155 0,1.155 -0.326,1.155 -0.59,0.898 -0.59,0.578 -0.59,0.26 -0.327,0 0,0 Z" /></g><g
           transform="translate(308.71,325.1128)"
           id="g426"><path
             id="path428"
             style="fill:#ffeb5b;fill-opacity:1;fill-rule:nonzero;stroke:#2f2d2e;stroke-width:0.55699998;stroke-linecap:round;stroke-linejoin:round;stroke-miterlimit:4;stroke-dasharray:none;stroke-opacity:1"
             d="M 0,0 C 0.23,-0.319 0.61,-0.528 1.045,-0.528" /></g><g
           transform="translate(309.7422,323.8604)"
           id="g430"><path
             id="path432"
             style="fill:#ffeb5b;fill-opacity:1;fill-rule:nonzero;stroke:#2f2d2e;stroke-width:0.55699998;stroke-linecap:round;stroke-linejoin:round;stroke-miterlimit:4;stroke-dasharray:none;stroke-opacity:1"
             d="M 0,0 C 0,-0.639 -0.096,-1.636 -1.953,-0.32" /></g><g
           transform="translate(309.3203,321.5889)"
           id="g434"><path
             id="path436"
             style="fill:#ffeb5b;fill-opacity:1;fill-rule:nonzero;stroke:#2f2d2e;stroke-width:0.55699998;stroke-linecap:round;stroke-linejoin:round;stroke-miterlimit:4;stroke-dasharray:none;stroke-opacity:1"
             d="M 0,0 C 0,0 0.695,0.182 0.88,0" /></g><g
           transform="translate(312.8779,328.3379)"
           id="g438"><path
             id="path440"
             style="fill:#ffeb5b;fill-opacity:1;fill-rule:nonzero;stroke:#2f2d2e;stroke-width:0.55699998;stroke-linecap:round;stroke-linejoin:round;stroke-miterlimit:4;stroke-dasharray:none;stroke-opacity:1"
             d="m 0,0 c -0.255,-0.544 -0.837,-0.923 -1.514,-0.923 -0.906,0 -1.643,0.676 -1.643,1.509 0,0.417 0.184,0.795 0.478,1.067" /></g><g
           transform="translate(311.2725,326.2344)"
           id="g442"><path
             id="path444"
             style="fill:#ffeb5b;fill-opacity:1;fill-rule:nonzero;stroke:none"
             d="m 0,0 c -0.324,0 -0.596,0.26 -0.596,0.578 0,0.321 0.272,0.577 0.596,0.577 0.329,0 0.592,-0.257 0.592,-0.577 C 0.592,0.26 0.329,0 0,0" /></g><g
           transform="translate(311.2725,326.2344)"
           id="g446"><path
             id="path448"
             style="fill:none;stroke:#2f2d2e;stroke-width:0.55699998;stroke-linecap:round;stroke-linejoin:round;stroke-miterlimit:4;stroke-dasharray:none;stroke-opacity:1"
             d="m 0,0 c -0.324,0 -0.596,0.26 -0.596,0.578 0,0.321 0.272,0.577 0.596,0.577 0.329,0 0.592,-0.257 0.592,-0.577 C 0.592,0.26 0.329,0 0,0 Z" /></g><g
           transform="translate(310.7686,325.1128)"
           id="g450"><path
             id="path452"
             style="fill:#ffeb5b;fill-opacity:1;fill-rule:nonzero;stroke:#2f2d2e;stroke-width:0.55699998;stroke-linecap:round;stroke-linejoin:round;stroke-miterlimit:4;stroke-dasharray:none;stroke-opacity:1"
             d="M 0,0 C -0.233,-0.319 -0.614,-0.528 -1.048,-0.528" /></g><g
           transform="translate(309.7422,323.8604)"
           id="g454"><path
             id="path456"
             style="fill:#ffeb5b;fill-opacity:1;fill-rule:nonzero;stroke:#2f2d2e;stroke-width:0.55699998;stroke-linecap:round;stroke-linejoin:round;stroke-miterlimit:4;stroke-dasharray:none;stroke-opacity:1"
             d="M 0,0 C 0,-0.639 0.089,-1.636 1.948,-0.32" /></g><g
           transform="translate(309.3203,321.269)"
           id="g458"><path
             id="path460"
             style="fill:#ffeb5b;fill-opacity:1;fill-rule:nonzero;stroke:#2f2d2e;stroke-width:0.55699998;stroke-linecap:round;stroke-linejoin:round;stroke-miterlimit:4;stroke-dasharray:none;stroke-opacity:1"
             d="M 0,0 C 0,0 0.695,0.183 0.88,0" /></g><g
           transform="translate(305.3232,326.4048)"
           id="g462"><path
             id="path464"
             style="fill:#ffeb5b;fill-opacity:1;fill-rule:nonzero;stroke:#2f2d2e;stroke-width:0.55699998;stroke-linecap:round;stroke-linejoin:round;stroke-miterlimit:4;stroke-dasharray:none;stroke-opacity:1"
             d="M 0,0 C 0,-0.728 -0.092,-1.185 0.374,-2.272" /></g><g
           transform="translate(314.1494,326.4048)"
           id="g466"><path
             id="path468"
             style="fill:#ffeb5b;fill-opacity:1;fill-rule:nonzero;stroke:#2f2d2e;stroke-width:0.55699998;stroke-linecap:round;stroke-linejoin:round;stroke-miterlimit:4;stroke-dasharray:none;stroke-opacity:1"
             d="M 0,0 C 0,-0.728 0.095,-1.185 -0.369,-2.272" /></g><g
           transform="translate(308.2041,326.2344)"
           id="g470"><path
             id="path472"
             style="fill:none;stroke:#2f2d2e;stroke-width:0.55699998;stroke-linecap:round;stroke-linejoin:round;stroke-miterlimit:4;stroke-dasharray:none;stroke-opacity:1"
             d="M 0,0 0,-0.239" /></g><g
           transform="translate(311.2725,326.2344)"
           id="g474"><path
             id="path476"
             style="fill:none;stroke:#2f2d2e;stroke-width:0.55699998;stroke-linecap:round;stroke-linejoin:round;stroke-miterlimit:4;stroke-dasharray:none;stroke-opacity:1"
             d="M 0,0 0,-0.239" /></g><g
           transform="translate(296.8447,312.0732)"
           id="g478"><path
             id="path480"
             style="fill:#ffeb5b;fill-opacity:1;fill-rule:nonzero;stroke:#2f2d2e;stroke-width:0.55699998;stroke-linecap:round;stroke-linejoin:round;stroke-miterlimit:4;stroke-dasharray:none;stroke-opacity:1"
             d="m 0,0 c 0.252,-0.542 0.83,-0.924 1.513,-0.924 0.905,0 1.642,0.674 1.642,1.514 0,0.413 -0.184,0.788 -0.481,1.065" /></g><g
           transform="translate(298.4482,309.9673)"
           id="g482"><path
             id="path484"
             style="fill:#ffeb5b;fill-opacity:1;fill-rule:nonzero;stroke:none"
             d="M 0,0 C 0.326,0 0.595,0.26 0.595,0.583 0.595,0.901 0.326,1.157 0,1.157 -0.33,1.157 -0.592,0.901 -0.592,0.583 -0.592,0.261 -0.33,0 0,0" /></g><g
           transform="translate(298.4482,309.9673)"
           id="g486"><path
             id="path488"
             style="fill:none;stroke:#2f2d2e;stroke-width:0.55699998;stroke-linecap:round;stroke-linejoin:round;stroke-miterlimit:4;stroke-dasharray:none;stroke-opacity:1"
             d="M 0,0 C 0.326,0 0.595,0.26 0.595,0.583 0.595,0.901 0.326,1.157 0,1.157 -0.33,1.157 -0.592,0.901 -0.592,0.583 -0.592,0.261 -0.33,0 0,0 Z" /></g><g
           transform="translate(298.9512,308.8477)"
           id="g490"><path
             id="path492"
             style="fill:#ffeb5b;fill-opacity:1;fill-rule:nonzero;stroke:#2f2d2e;stroke-width:0.55699998;stroke-linecap:round;stroke-linejoin:round;stroke-miterlimit:4;stroke-dasharray:none;stroke-opacity:1"
             d="M 0,0 C 0.238,-0.318 0.615,-0.53 1.049,-0.53" /></g><g
           transform="translate(299.9824,307.5947)"
           id="g494"><path
             id="path496"
             style="fill:#ffeb5b;fill-opacity:1;fill-rule:nonzero;stroke:#2f2d2e;stroke-width:0.55699998;stroke-linecap:round;stroke-linejoin:round;stroke-miterlimit:4;stroke-dasharray:none;stroke-opacity:1"
             d="M 0,0 C 0,-0.635 -0.092,-1.634 -1.948,-0.32" /></g><g
           transform="translate(299.5625,305.3218)"
           id="g498"><path
             id="path500"
             style="fill:#ffeb5b;fill-opacity:1;fill-rule:nonzero;stroke:#2f2d2e;stroke-width:0.55699998;stroke-linecap:round;stroke-linejoin:round;stroke-miterlimit:4;stroke-dasharray:none;stroke-opacity:1"
             d="M 0,0 C 0,0 0.699,0.182 0.883,0" /></g><g
           transform="translate(303.123,312.0732)"
           id="g502"><path
             id="path504"
             style="fill:#ffeb5b;fill-opacity:1;fill-rule:nonzero;stroke:#2f2d2e;stroke-width:0.55699998;stroke-linecap:round;stroke-linejoin:round;stroke-miterlimit:4;stroke-dasharray:none;stroke-opacity:1"
             d="m 0,0 c -0.247,-0.542 -0.834,-0.924 -1.516,-0.924 -0.902,0 -1.64,0.674 -1.64,1.514 0,0.413 0.183,0.788 0.478,1.065" /></g><g
           transform="translate(301.5137,309.9673)"
           id="g506"><path
             id="path508"
             style="fill:#ffeb5b;fill-opacity:1;fill-rule:nonzero;stroke:none"
             d="m 0,0 c -0.325,0 -0.594,0.26 -0.594,0.583 0,0.318 0.269,0.574 0.594,0.574 0.332,0 0.59,-0.256 0.59,-0.574 C 0.59,0.261 0.332,0 0,0" /></g><g
           transform="translate(301.5137,309.9673)"
           id="g510"><path
             id="path512"
             style="fill:none;stroke:#2f2d2e;stroke-width:0.55699998;stroke-linecap:round;stroke-linejoin:round;stroke-miterlimit:4;stroke-dasharray:none;stroke-opacity:1"
             d="m 0,0 c -0.325,0 -0.594,0.26 -0.594,0.583 0,0.318 0.269,0.574 0.594,0.574 0.332,0 0.59,-0.256 0.59,-0.574 C 0.59,0.261 0.332,0 0,0 Z" /></g><g
           transform="translate(301.0117,308.8477)"
           id="g514"><path
             id="path516"
             style="fill:#ffeb5b;fill-opacity:1;fill-rule:nonzero;stroke:#2f2d2e;stroke-width:0.55699998;stroke-linecap:round;stroke-linejoin:round;stroke-miterlimit:4;stroke-dasharray:none;stroke-opacity:1"
             d="M 0,0 C -0.23,-0.318 -0.612,-0.53 -1.046,-0.53" /></g><g
           transform="translate(299.9824,307.5947)"
           id="g518"><path
             id="path520"
             style="fill:#ffeb5b;fill-opacity:1;fill-rule:nonzero;stroke:#2f2d2e;stroke-width:0.55699998;stroke-linecap:round;stroke-linejoin:round;stroke-miterlimit:4;stroke-dasharray:none;stroke-opacity:1"
             d="M 0,0 C 0,-0.635 0.092,-1.634 1.953,-0.32" /></g><g
           transform="translate(299.5625,305.0044)"
           id="g522"><path
             id="path524"
             style="fill:#ffeb5b;fill-opacity:1;fill-rule:nonzero;stroke:#2f2d2e;stroke-width:0.55699998;stroke-linecap:round;stroke-linejoin:round;stroke-miterlimit:4;stroke-dasharray:none;stroke-opacity:1"
             d="M 0,0 C 0,0 0.699,0.182 0.883,0" /></g><g
           transform="translate(295.5693,310.1401)"
           id="g526"><path
             id="path528"
             style="fill:#ffeb5b;fill-opacity:1;fill-rule:nonzero;stroke:#2f2d2e;stroke-width:0.55699998;stroke-linecap:round;stroke-linejoin:round;stroke-miterlimit:4;stroke-dasharray:none;stroke-opacity:1"
             d="M 0,0 C 0,-0.729 -0.096,-1.183 0.375,-2.271" /></g><g
           transform="translate(304.3926,310.1401)"
           id="g530"><path
             id="path532"
             style="fill:#ffeb5b;fill-opacity:1;fill-rule:nonzero;stroke:#2f2d2e;stroke-width:0.55699998;stroke-linecap:round;stroke-linejoin:round;stroke-miterlimit:4;stroke-dasharray:none;stroke-opacity:1"
             d="M 0,0 C 0,-0.729 0.095,-1.183 -0.368,-2.271" /></g><g
           transform="translate(298.4482,309.9673)"
           id="g534"><path
             id="path536"
             style="fill:none;stroke:#2f2d2e;stroke-width:0.55699998;stroke-linecap:round;stroke-linejoin:round;stroke-miterlimit:4;stroke-dasharray:none;stroke-opacity:1"
             d="M 0,0 0,-0.239" /></g><g
           transform="translate(301.5137,309.9673)"
           id="g538"><path
             id="path540"
             style="fill:none;stroke:#2f2d2e;stroke-width:0.55699998;stroke-linecap:round;stroke-linejoin:round;stroke-miterlimit:4;stroke-dasharray:none;stroke-opacity:1"
             d="M 0,0 0,-0.239" /></g><g
           transform="translate(357.3555,300.9614)"
           id="g542"><path
             id="path544"
             style="fill:#1d1d1d;fill-opacity:1;fill-rule:nonzero;stroke:none"
             d="m 0,0 c -0.142,0.727 1.256,1.136 1.997,1.319 0.742,0.18 0.974,0.27 1.112,0.497 0.144,0.228 0.679,0.737 0.977,-0.045 0.139,-0.363 0.743,-0.452 1.07,-0.452 0.325,0 0.741,0.135 0.514,-0.818 -0.236,-0.957 0.601,-1.364 1.021,-1.545 0.417,-0.183 2.969,-0.818 3.859,-0.909 0.882,-0.09 5.803,1.864 11.142,-3.273 3.208,0.456 6.321,0.728 6.508,-0.954 0.183,-1.679 -4.74,-1 -6.086,-0.771 0.232,-1.635 1.762,-1 1.902,-2.182 0.14,-1.179 0.185,-3.406 -1.211,-3.452 -1.39,-0.044 -0.646,1.138 -0.554,1.455 0.095,0.32 -0.323,0.818 -0.883,1.27 -0.556,0.457 -1.58,-0.316 -2.693,1.591 0,0 -4.975,-1.998 -5.388,-0.544 -0.132,0.451 0.229,1.136 2.876,1.407 0,0 -2.6,-0.726 -6.036,1.773 C 6.92,-5.588 6.411,-6.723 3.949,-6.815 1.483,-6.904 0,-6.087 0,-5.541 c 0,0.543 0.326,0.681 3.109,0.681 0,0 -4.459,0.043 -4.459,1.18 0,1.135 1.911,0.725 2.606,0.635 0.697,-0.089 1.3,-0.045 1.3,-0.045 l 0.601,0.775 c 0,0 -0.648,0.997 -0.835,1.497 C 2.321,-0.819 -0.048,-0.819 0,0" /></g><g
           transform="translate(367.5244,295.3286)"
           id="g546"><path
             id="path548"
             style="fill:#ffffff;fill-opacity:1;fill-rule:nonzero;stroke:none"
             d="M 0,0 C 2.282,-2.001 5.255,-2.044 5.994,-1.773 6.741,-1.5 7.937,1.262 4.186,0.544 2.052,0.137 0,0 0,0" /></g><g
           transform="translate(367.5244,295.3286)"
           id="g550"><path
             id="path552"
             style="fill:none;stroke:#1d1d1d;stroke-width:1.06900001;stroke-linecap:round;stroke-linejoin:round;stroke-miterlimit:4;stroke-dasharray:none;stroke-opacity:1"
             d="M 0,0 C 2.282,-2.001 5.255,-2.044 5.994,-1.773 6.741,-1.5 7.937,1.262 4.186,0.544 2.052,0.137 0,0 0,0 Z" /></g><g
           transform="translate(381.8701,176.0986)"
           id="g554"><path
             id="path556"
             style="fill:#ffffff;fill-opacity:1;fill-rule:nonzero;stroke:none"
             d="m 0,0 c 0,-44.136 -36.581,-79.911 -81.712,-79.911 -45.124,0 -81.706,35.775 -81.706,79.911 l 0,93.046 163.375,0 L 0,0 Z" /></g><g
           transform="translate(381.8701,176.0986)"
           id="g558"><path
             id="path560"
             style="fill:none;stroke:#d4264c;stroke-width:1.12600005;stroke-linecap:butt;stroke-linejoin:miter;stroke-miterlimit:4;stroke-dasharray:none;stroke-opacity:1"
             d="m 0,0 c 0,-44.136 -36.581,-79.911 -81.712,-79.911 -45.124,0 -81.706,35.775 -81.706,79.911 l 0,93.046 163.375,0 L 0,0 Z" /></g><path
           id="path562"
           style="fill:#d4264c;fill-opacity:1;fill-rule:nonzero;stroke:#d4264c;stroke-width:0.56300002;stroke-linecap:butt;stroke-linejoin:miter;stroke-miterlimit:4;stroke-dasharray:none;stroke-opacity:1"
           d="m 221.373,266.235 31.444,0 0,-33.439 -31.444,0 0,33.439 z" /><path
           id="path564"
           style="fill:#d4264c;fill-opacity:1;fill-rule:nonzero;stroke:#d4264c;stroke-width:0.56300002;stroke-linecap:butt;stroke-linejoin:miter;stroke-miterlimit:4;stroke-dasharray:none;stroke-opacity:1"
           d="m 284.255,266.235 31.439,0 0,-33.439 -31.439,0 0,33.439 z" /><path
           id="path566"
           style="fill:#d4264c;fill-opacity:1;fill-rule:nonzero;stroke:#d4264c;stroke-width:0.56300002;stroke-linecap:butt;stroke-linejoin:miter;stroke-miterlimit:4;stroke-dasharray:none;stroke-opacity:1"
           d="m 347.14,266.235 31.437,0 0,-33.439 -31.437,0 0,33.439 z" /><path
           id="path568"
           style="fill:#d4264c;fill-opacity:1;fill-rule:nonzero;stroke:#d4264c;stroke-width:0.56300002;stroke-linecap:butt;stroke-linejoin:miter;stroke-miterlimit:4;stroke-dasharray:none;stroke-opacity:1"
           d="m 252.817,232.796 31.437,0 0,-33.437 -31.437,0 0,33.437 z" /><path
           id="path570"
           style="fill:#d4264c;fill-opacity:1;fill-rule:nonzero;stroke:#d4264c;stroke-width:0.56300002;stroke-linecap:butt;stroke-linejoin:miter;stroke-miterlimit:4;stroke-dasharray:none;stroke-opacity:1"
           d="m 315.695,232.796 31.444,0 0,-33.437 -31.444,0 0,33.437 z" /><g
           transform="translate(221.999,165.9189)"
           id="g572"><path
             id="path574"
             style="fill:#d4264c;fill-opacity:1;fill-rule:nonzero;stroke:#d4264c;stroke-width:0.56300002;stroke-linecap:butt;stroke-linejoin:miter;stroke-miterlimit:4;stroke-dasharray:none;stroke-opacity:1"
             d="m 0,0 30.818,0 0,33.44 -31.444,0 0,-23.376" /></g><path
           id="path576"
           style="fill:#d4264c;fill-opacity:1;fill-rule:nonzero;stroke:#d4264c;stroke-width:0.56300002;stroke-linecap:butt;stroke-linejoin:miter;stroke-miterlimit:4;stroke-dasharray:none;stroke-opacity:1"
           d="m 284.255,199.359 31.439,0 0,-33.44 -31.439,0 0,33.44 z" /><g
           transform="translate(378.5762,175.5312)"
           id="g578"><path
             id="path580"
             style="fill:#d4264c;fill-opacity:1;fill-rule:nonzero;stroke:#d4264c;stroke-width:0.56300002;stroke-linecap:butt;stroke-linejoin:miter;stroke-miterlimit:4;stroke-dasharray:none;stroke-opacity:1"
             d="m 0,0 0,23.828 -31.437,0 0,-33.44 30.784,0" /></g><path
           id="path582"
           style="fill:#d4264c;fill-opacity:1;fill-rule:nonzero;stroke:#d4264c;stroke-width:0.56300002;stroke-linecap:butt;stroke-linejoin:miter;stroke-miterlimit:4;stroke-dasharray:none;stroke-opacity:1"
           d="m 252.817,165.919 31.437,0 0,-33.436 -31.437,0 0,33.436 z" /><path
           id="path584"
           style="fill:#d4264c;fill-opacity:1;fill-rule:nonzero;stroke:#d4264c;stroke-width:0.56300002;stroke-linecap:butt;stroke-linejoin:miter;stroke-miterlimit:4;stroke-dasharray:none;stroke-opacity:1"
           d="m 315.695,165.919 31.444,0 0,-33.436 -31.444,0 0,33.436 z" /><g
           transform="translate(221.3667,176.0508)"
           id="g586"><path
             id="path588"
             style="fill:#d4264c;fill-opacity:1;fill-rule:nonzero;stroke:#d4264c;stroke-width:0.56300002;stroke-linecap:butt;stroke-linejoin:miter;stroke-miterlimit:4;stroke-dasharray:none;stroke-opacity:1"
             d="M 0,0 0,-0.314" /></g><g
           transform="translate(221.3667,175.7363)"
           id="g590"><path
             id="path592"
             style="fill:#d4264c;fill-opacity:1;fill-rule:nonzero;stroke:#d4264c;stroke-width:0.56300002;stroke-linecap:butt;stroke-linejoin:miter;stroke-miterlimit:4;stroke-dasharray:none;stroke-opacity:1"
             d="M 0,0 C 0,-3.326 0.216,-6.604 0.631,-9.817" /></g><g
           transform="translate(234.9878,132.4658)"
           id="g594"><path
             id="path596"
             style="fill:#d4264c;fill-opacity:1;fill-rule:nonzero;stroke:none"
             d="m 0,0 c 4.884,-7.003 10.921,-13.176 17.844,-18.258 l -0.014,0.01 0,18.265 -17.834,0 L 0,0 Z" /></g><g
           transform="translate(234.9878,132.4658)"
           id="g598"><path
             id="path600"
             style="fill:none;stroke:#d4264c;stroke-width:0.56300002;stroke-linecap:butt;stroke-linejoin:miter;stroke-miterlimit:4;stroke-dasharray:none;stroke-opacity:1"
             d="m 0,0 c 4.884,-7.003 10.921,-13.176 17.844,-18.258 l -0.014,0.01 0,18.265 -17.834,0 L 0,0 Z" /></g><g
           transform="translate(315.6973,100.3936)"
           id="g602"><path
             id="path604"
             style="fill:#d4264c;fill-opacity:1;fill-rule:nonzero;stroke:none"
             d="m 0,0 c -5.08,-1.009 -10.338,-1.541 -15.721,-1.541 -5.386,0 -10.64,0.532 -15.723,1.541 l 0.002,-0.01 0,32.099 31.439,0 0,-32.099 L 0,0 Z" /></g><g
           transform="translate(315.6973,100.3936)"
           id="g606"><path
             id="path608"
             style="fill:none;stroke:#d4264c;stroke-width:0.56300002;stroke-linecap:butt;stroke-linejoin:miter;stroke-miterlimit:4;stroke-dasharray:none;stroke-opacity:1"
             d="m 0,0 c -5.08,-1.009 -10.338,-1.541 -15.721,-1.541 -5.386,0 -10.64,0.532 -15.723,1.541 l 0.002,-0.01 0,32.099 31.439,0 0,-32.099 L 0,0 Z" /></g><g
           transform="translate(364.9727,132.4766)"
           id="g610"><path
             id="path612"
             style="fill:#d4264c;fill-opacity:1;fill-rule:nonzero;stroke:none"
             d="m 0,0 c -4.886,-7.003 -10.925,-13.175 -17.849,-18.261 l 0.015,-0.018 0,18.286 17.827,0 L 0,0 Z" /></g><g
           transform="translate(364.9727,132.4766)"
           id="g614"><path
             id="path616"
             style="fill:none;stroke:#d4264c;stroke-width:0.56300002;stroke-linecap:butt;stroke-linejoin:miter;stroke-miterlimit:4;stroke-dasharray:none;stroke-opacity:1"
             d="m 0,0 c -4.886,-7.003 -10.925,-13.175 -17.849,-18.261 l 0.015,-0.018 0,18.286 17.827,0 L 0,0 Z" /></g><g
           transform="translate(377.9521,165.9434)"
           id="g618"><path
             id="path620"
             style="fill:#d4264c;fill-opacity:1;fill-rule:nonzero;stroke:#d4264c;stroke-width:0.56300002;stroke-linecap:butt;stroke-linejoin:miter;stroke-miterlimit:4;stroke-dasharray:none;stroke-opacity:1"
             d="M 0,0 C 0.421,3.203 0.632,6.473 0.632,9.793" /></g></g></g></g></svg>