<?xml version="1.0" encoding="UTF-8" standalone="no"?>
<svg
   xmlns:dc="http://purl.org/dc/elements/1.1/"
   xmlns:cc="http://creativecommons.org/ns#"
   xmlns:rdf="http://www.w3.org/1999/02/22-rdf-syntax-ns#"
   xmlns:svg="http://www.w3.org/2000/svg"
   xmlns="http://www.w3.org/2000/svg"
   viewBox="0 0 800 533.33331"
   height="533.33331"
   width="800"
   xml:space="preserve"
   version="1.1"
   id="svg2"><metadata
     id="metadata8"><rdf:RDF><cc:Work
         rdf:about=""><dc:format>image/svg+xml</dc:format><dc:type
           rdf:resource="http://purl.org/dc/dcmitype/StillImage" /></cc:Work></rdf:RDF></metadata><defs
     id="defs6"><clipPath
       id="clipPath20"
       clipPathUnits="userSpaceOnUse"><path
         id="path22"
         d="M 0,400 600,400 600,0 0,0 0,400 Z" /></clipPath></defs><g
     transform="matrix(1.3333333,0,0,-1.3333333,0,533.33333)"
     id="g10"><path
       id="path12"
       style="fill:#2fa843;fill-opacity:1;fill-rule:nonzero;stroke:none"
       d="M 0,0 600,0 600,400 0,400 0,0 Z" /><path
       id="path14"
       style="fill:#ffffff;fill-opacity:1;fill-rule:nonzero;stroke:none"
       d="m 0,200 600,0 0,200 -600,0 0,-200 z" /><g
       id="g16"><g
         clip-path="url(#clipPath20)"
         id="g18"><g
           transform="translate(487.999,251.4546)"
           id="g24"><path
             id="path26"
             style="fill:#d2243e;fill-opacity:1;fill-rule:nonzero;stroke:none"
             d="M 0,0 C 5.143,0.071 11.304,-2.105 17.319,-8.484 14.428,-16.813 -10.667,-21.091 -12.349,-8.759 -12.858,-5.032 -7.518,-0.102 0,0 m -330.196,93.072 c 1.826,-0.009 3.972,-0.188 5.673,-0.602 3.537,-0.862 7.841,-1.356 7.781,-2.409 -1.638,-2.742 -5.66,-6.048 -9.614,-5.849 -3.952,0.199 -6.238,2.569 -7.555,8.509 0.404,0.219 1.89,0.362 3.715,0.351 m 246.21,31.702 c -41.962,-23.202 -79.521,-47.345 -116.441,-78.112 -17.719,-15.478 -12.717,-27.816 -13.404,-41.717 0.572,-9.331 -2.016,-18.013 -7.755,-23.243 -13.133,-2.655 -26.277,-5.327 -39.409,-7.983 -1.257,3.635 -2.506,7.263 -3.764,10.894 1.201,5.575 5.809,8.315 15.511,4.82 0.766,7.167 -5.001,10.084 -11.747,12.575 -2.316,1.805 -5.194,3.19 -4.818,9.388 -1.135,14.029 21.377,-1.004 21.586,-1.004 0.209,0 -0.751,14.158 -11.094,16.993 -5.64,1.996 -8.028,7.945 -5.874,12.349 4.512,9.004 13.007,-0.705 19.504,-1.054 -0.245,5.877 -1.917,10.066 -6.978,14.81 -2.725,1.676 -9.416,2.937 -9.589,5.747 -0.142,3.817 6.271,5.45 15.085,4.393 -1.837,5.349 -7.765,8.809 -15.913,11.321 -1.607,2.794 -3.213,5.588 -4.82,8.382 -2.282,4.225 -3.305,4.339 1.983,12.35 4.751,3.073 11.064,7.419 15.814,10.492 -1.748,0.209 -3.499,0.418 -5.247,0.627 0.698,5.728 0.779,7.656 2.108,17.169 -5.096,-6.965 -11.465,-5.72 -17.192,-8.584 0,0 -16.33,-2.899 -21.587,-9.84 -0.21,0 -41.064,2.084 -41.064,2.084 -8.707,-1.213 -16.144,-3.681 -17.596,-12.149 -19.913,-2.01 -40.767,-0.232 -55.949,-19.277 10.337,0.489 19.386,2.951 30.999,1.456 0,0 9.897,-0.187 11.948,-10.667 0.21,-0.42 3.364,-0.428 3.364,-0.428 1.258,-0.978 2.507,-1.959 3.764,-2.936 0.49,1.327 0.968,2.664 1.457,3.991 1.118,-0.769 2.245,-1.54 3.363,-2.309 0.348,1.467 0.705,2.925 1.054,4.393 1.118,-0.769 2.221,-1.542 3.338,-2.31 0.071,1.746 0.157,3.5 0.226,5.246 1.468,-1.048 2.927,-2.09 4.394,-3.138 l 0,6.902 c 0,0 16.218,0.039 21.159,-10.265 0.21,-0.21 -45.514,-8.405 -89.684,-4.618 4.261,2.095 8.516,4.205 12.776,6.3 -16.104,3.274 -31.246,6.233 -45.457,17.394 5.363,-20.191 33.077,-43.906 38.755,-43.799 0,-0.21 -5.446,9.838 -5.446,9.838 15.996,-0.699 31.996,-1.385 47.992,-2.083 1.747,-5.309 0.974,-11.261 5.245,-15.939 0,0 -2.65,-8.775 3.238,-12.349 0.211,-0.419 7.028,17.796 7.028,17.796 0,0 2.089,-4.9 4.192,-8.158 3.049,15.669 20.105,18.224 20.105,18.224 0,0 3.565,-8.174 3.565,-8.385 -5.33,-0.77 -11.96,-11.635 -8.384,-17.595 -3.574,-0.068 -9.92,-10.591 -7.957,-16.34 -3.004,-2.991 -10.488,-6.977 -8.584,-19.503 -5.891,-1.262 -9.378,-12.041 -7.555,-23.469 -9.116,-8.485 -6.878,-24.061 1.255,-30.371 -3.376,-3.004 -5.454,-5.315 -5.446,-9.011 -3.21,1.192 -6.169,0.195 -7.556,-1.908 -3.934,4.032 -9.583,7.564 -13.604,3.791 -1.041,4.77 -7.255,10.018 -14.056,9.411 0.398,5.031 -2.213,11.259 -9.413,13.429 0,0 -1.457,23.58 -8.61,31.226 -0.701,4.277 0.41,7.187 6.301,10.692 5.881,3.138 7.131,5.57 6.702,14.458 2.318,5.94 4.08,11.997 -3.138,16.114 0.217,-7.064 -1.952,-10.467 -4.819,-13.604 -3.427,0.499 -4.624,-3.5 -6.928,-5.247 -3.226,4.349 6.804,11.085 -0.628,20.759 -0.419,0.42 -5.188,12.629 -16.968,12.349 5.599,-3.278 7.968,-8.796 7.957,-14.458 -3.714,-10.478 -5.601,-18.575 -1.882,-30.596 -4.894,7.331 -7.67,21.27 -11.722,23.694 -3.552,0.693 -5.287,9.094 -19.076,6.702 5.948,-1.601 7.836,-6.142 9.437,-10.267 -3.647,-1.881 -1.835,-6.842 0.828,-10.265 -0.505,-8.044 4.314,-12.744 11.522,-15.739 -1.187,-10.966 -2.378,-21.914 -3.565,-32.881 -2.863,0.365 -7.269,-10.782 -9.011,-11.119 -2.802,-1.743 -7.695,-6.435 -2.083,-7.756 -1.668,-6.017 -3.214,-9.646 -12.173,-10.894 0,0 9.467,-5.615 17.318,3.992 8.413,0.21 5.647,10.242 9.714,14.658 0,0.209 2.309,1.659 5.673,10.491 1.471,-7.887 9.565,-32.038 27.861,-44.024 15.949,-17.075 29.057,-33.198 28.916,-55.95 6.225,5.79 9.943,14.958 12.802,23.695 8.655,3.01 21.037,4.16 32.078,3.665 -1.894,-3.985 -4.014,-7.81 -1.28,-10.394 -7.706,-2.645 -9.394,-8.236 -6.3,-13.829 -8.122,-5.516 -8.657,-9.059 -8.786,-18.224 -15.026,-19.263 -24.296,-18.625 -39.182,-13.627 -4.888,2.869 -12.453,6.999 -15.938,4.818 -6.429,4.285 -15.672,4.921 -17.194,-4.818 4.824,3.998 7.705,3.227 11.547,-0.628 -0.773,-1.957 -1.419,-3.907 1.455,-5.022 -1.258,-1.396 -2.507,-2.794 -3.765,-4.19 -6.918,1.064 -16.22,1.004 -18.649,-9.012 3.553,2.944 11.437,3.635 17.795,0.829 1.188,-0.42 2.377,-0.836 3.565,-1.255 0.14,-1.607 0.287,-3.213 0.427,-4.82 0,0 -9.424,1.456 -11.948,-13.83 8.835,9.399 15.085,6.928 15.085,6.928 3.405,-4.984 15.936,-4.234 24.95,3.966 12.66,7.077 16.351,-3.093 24.523,3.565 6.776,5.053 14.793,1.692 20.306,-4.193 6.358,-2.383 13.012,-4.347 18.248,0 0,0 6.396,4.082 12.776,-2.51 0.07,7.432 -5.197,11.381 -12.35,11.521 l -2.108,2.11 c -6.706,1.396 -14.241,0.83 -20.105,4.19 2.765,10.495 6.793,20.004 14.659,28.088 9.709,10.408 16.857,15.139 29.116,31.075 -0.473,-9.006 6.428,-19.019 10.065,-28.164 0,0 7.322,11.691 8.384,21.185 0.209,0 9.175,4.668 13.002,8.634 8.077,-5.009 21.242,4.012 29.744,11.471 5.241,-1.983 9.22,-1.841 15.311,0 -4.89,-9.952 2.828,-19.184 15.086,-23.042 1.133,-8.786 10.007,-10.626 23.469,-10.692 0.566,-5.17 8.585,-5.874 8.585,-5.874 -5.068,-2.361 -7.709,-4.728 -7.532,-10.065 -5.191,-0.036 -9.125,-1.343 -10.491,-7.33 -7.13,-0.121 -14.396,-0.669 -20.532,-4.191 -6.568,1.018 -14.556,3.741 -19.704,9.011 -2.657,2.236 -3.319,5.458 -7.957,6.702 -2.94,3.474 -6.457,2.7 -7.555,-0.628 -3.039,2.373 -14.436,3.476 -16.341,-7.33 5.32,3.895 10.092,5.379 13.429,0.628 -1.818,-3.298 4.431,-5.185 9.84,-6.501 3.835,-0.237 10.639,-3.733 12.775,-9.638 -4.947,-1.501 -12.446,-1.007 -17.394,2.736 -4.398,3.68 -10.339,3.241 -13.605,0.827 -4.53,2.89 -15.318,-2.563 -15.737,-11.294 4.545,4.164 8.68,6.178 12.801,3.539 -2.051,-0.487 -1.272,-0.687 -1.055,-1.883 3.493,-2.026 6.975,-4.047 10.468,-6.074 -5.137,-1.354 -9.964,-3.404 -7.732,-12.976 0,0 4.184,8.269 13.604,5.221 0.211,0.209 1.3,-2.955 3.992,-0.83 4.077,4.64 13.398,6.716 21.586,7.53 6.57,0.786 13.13,2.721 18.851,-1.029 5.093,2.621 10.763,4.384 16.566,0.202 6.846,-2.165 11.845,-10.145 20.532,-6.501 4.32,2.991 9.631,3.142 15.086,-2.937 0.065,7.665 -5.678,10.234 -13.831,11.947 -1.887,1.119 -3.762,2.246 -5.647,3.364 -5.239,0.769 -10.5,-0.16 -15.738,2.31 27.417,7.088 46.636,22.377 60.165,44.201 4.331,-1.536 8.646,-3.056 12.977,-4.593 3.072,-0.197 3.306,-1.264 9.638,-3.164 0.239,9.33 -3.765,18.939 -20.531,19.906 l -22.012,8.384 c -4.674,4.926 -6.786,15.382 -0.83,21.586 5.83,5.192 6.848,4.57 10.693,10.893 4.677,0.427 9.084,-4.393 13.403,-4.393 2.052,-6.092 13.875,-11.481 21.386,-9.638 4.706,-4.166 13.661,-6.483 23.469,-3.137 5.566,-4.874 12.818,-6.908 21.361,-3.138 2.267,-2.267 7.054,-4.071 12.574,-2.937 0.42,0 2.79,-6.056 8.812,-8.183 -2.625,-2.551 -1.013,-13.626 1.68,-17.594 -1.838,-4.258 -2.416,-8.802 -0.853,-13.203 -6.071,-3.905 -7.308,-6.807 -4.593,-13.405 -7.952,-12.775 -17.464,-14.235 -26.406,-10.29 -3.215,2.025 -6.424,4.072 -9.639,6.1 -3.422,3.352 -6.843,6.686 -10.265,10.039 -1.744,1.636 -5.35,2.151 -6.1,-1.456 0,0 -13.172,2.938 -14.233,-8.183 5.461,5.317 13.204,0.638 13.204,0.428 0,-0.21 -1.844,-1.464 -0.426,-3.591 0.318,0.267 9.616,-3.47 17.895,-7.027 4.499,-1.703 5.488,-2.239 7.455,-3.289 -2.156,0.988 -4.705,2.107 -7.455,3.289 -5.039,1.911 -9.949,3.437 -11.395,3.063 -4.691,0.438 -9.666,1.02 -11.946,-2.511 -5.043,-2.133 -12.919,-3.842 -12.578,-13.203 3.406,5.573 8.077,5.339 14.032,4.819 -0.139,-0.418 -0.262,-0.834 -0.402,-1.254 6.466,-2.946 5.24,0.801 11.271,1.355 5.042,0.463 12.187,-1.344 15.964,-2.611 -4.75,-1.397 -11.208,-0.81 -14.257,-4.192 -0.56,-1.118 -2.516,-0.66 -1.656,-3.337 0,0 -9.265,0.239 -11.748,-12.576 9.42,6.031 16.558,5.847 16.768,5.847 0.209,0 2.936,-0.626 2.936,-0.626 0,0 11.312,7.554 11.521,7.554 0.211,0 10.954,4.76 15.913,-0.626 4.328,-2.128 8.959,-2.264 13.429,0.427 8.808,3.831 17.054,4.098 25.151,-1.282 l 7.328,-4.391 c 1.048,0.698 2.091,1.409 3.14,2.109 0,0 8.295,2.343 14.381,-5.046 -2.516,12.782 -11.647,13.202 -11.647,13.202 -0.699,0.629 -1.41,1.254 -2.108,1.883 -4.331,1.677 -8.646,3.37 -12.976,5.045 -1.891,4.68 -6.641,8.406 -1.908,14.031 4.835,24.037 10.616,42.091 1.255,66.442 8.732,-3.772 15.265,-15.436 26.204,-11.321 0,9.78 -36.002,28.349 -63.503,43.274 45.056,2.306 99.204,35.563 78.389,77.836 C 45.327,9.27 48.6,19.471 51.883,29.669 56.518,20.333 65.901,13.217 74.322,10.191 67.382,23.441 63.398,63.95 67.395,91.918 49.24,69.491 29.191,49.588 7.881,29.368 18.363,26.918 27.522,28.642 37.651,29.895 34.786,24.027 32.005,18.143 29.142,12.274 1.452,28.49 -31.057,16.321 -31.3,-5.321 c 0.947,-25.237 32.15,-28.824 50.151,-20.03 -3.569,-23.01 -56.452,-14.533 -56.452,-14.533 -18.79,6.477 -36.636,5.368 -56.375,5.221 4.101,12.619 26.876,23.816 44.227,18.875 -24.292,27.237 3.434,61.051 36.872,71.461 -36.446,12.021 -5.063,39.805 22.215,59.714 0,0 -78.444,-33.012 -85.593,-32.907 -22.312,1.677 -16.23,28.086 -7.731,42.295 l 0,-0.001 z m 0.025,0.05 c -0.009,-0.015 -0.016,-0.034 -0.025,-0.05 0.026,0.015 0.048,0.036 0.075,0.05 l -0.05,0 z" /></g><g
           transform="translate(487.999,251.4546)"
           id="g28"><path
             id="path30"
             style="fill:none;stroke:#1d1d1d;stroke-width:1.79999995;stroke-linecap:butt;stroke-linejoin:miter;stroke-miterlimit:4;stroke-dasharray:none;stroke-opacity:1"
             d="M 0,0 C 5.143,0.071 11.304,-2.105 17.319,-8.484 14.428,-16.813 -10.667,-21.091 -12.349,-8.759 -12.858,-5.032 -7.518,-0.102 0,0 Z m -330.196,93.072 c 1.826,-0.009 3.972,-0.188 5.673,-0.602 3.537,-0.862 7.841,-1.356 7.781,-2.409 -1.638,-2.742 -5.66,-6.048 -9.614,-5.849 -3.952,0.199 -6.238,2.569 -7.555,8.509 0.404,0.219 1.89,0.362 3.715,0.351 z m 246.21,31.702 c -41.962,-23.202 -79.521,-47.345 -116.441,-78.112 -17.719,-15.478 -12.717,-27.816 -13.404,-41.717 0.572,-9.331 -2.016,-18.013 -7.755,-23.243 -13.133,-2.655 -26.277,-5.327 -39.409,-7.983 -1.257,3.635 -2.506,7.263 -3.764,10.894 1.201,5.575 5.809,8.315 15.511,4.82 0.766,7.167 -5.001,10.084 -11.747,12.575 -2.316,1.805 -5.194,3.19 -4.818,9.388 -1.135,14.029 21.377,-1.004 21.586,-1.004 0.209,0 -0.751,14.158 -11.094,16.993 -5.64,1.996 -8.028,7.945 -5.874,12.349 4.512,9.004 13.007,-0.705 19.504,-1.054 -0.245,5.877 -1.917,10.066 -6.978,14.81 -2.725,1.676 -9.416,2.937 -9.589,5.747 -0.142,3.817 6.271,5.45 15.085,4.393 -1.837,5.349 -7.765,8.809 -15.913,11.321 -1.607,2.794 -3.213,5.588 -4.82,8.382 -2.282,4.225 -3.305,4.339 1.983,12.35 4.751,3.073 11.064,7.419 15.814,10.492 -1.748,0.209 -3.499,0.418 -5.247,0.627 0.698,5.728 0.779,7.656 2.108,17.169 -5.096,-6.965 -11.465,-5.72 -17.192,-8.584 0,0 -16.33,-2.899 -21.587,-9.84 -0.21,0 -41.064,2.084 -41.064,2.084 -8.707,-1.213 -16.144,-3.681 -17.596,-12.149 -19.913,-2.01 -40.767,-0.232 -55.949,-19.277 10.337,0.489 19.386,2.951 30.999,1.456 0,0 9.897,-0.187 11.948,-10.667 0.21,-0.42 3.364,-0.428 3.364,-0.428 1.258,-0.978 2.507,-1.959 3.764,-2.936 0.49,1.327 0.968,2.664 1.457,3.991 1.118,-0.769 2.245,-1.54 3.363,-2.309 0.348,1.467 0.705,2.925 1.054,4.393 1.118,-0.769 2.221,-1.542 3.338,-2.31 0.071,1.746 0.157,3.5 0.226,5.246 1.468,-1.048 2.927,-2.09 4.394,-3.138 l 0,6.902 c 0,0 16.218,0.039 21.159,-10.265 0.21,-0.21 -45.514,-8.405 -89.684,-4.618 4.261,2.095 8.516,4.205 12.776,6.3 -16.104,3.274 -31.246,6.233 -45.457,17.394 5.363,-20.191 33.077,-43.906 38.755,-43.799 0,-0.21 -5.446,9.838 -5.446,9.838 15.996,-0.699 31.996,-1.385 47.992,-2.083 1.747,-5.309 0.974,-11.261 5.245,-15.939 0,0 -2.65,-8.775 3.238,-12.349 0.211,-0.419 7.028,17.796 7.028,17.796 0,0 2.089,-4.9 4.192,-8.158 3.049,15.669 20.105,18.224 20.105,18.224 0,0 3.565,-8.174 3.565,-8.385 -5.33,-0.77 -11.96,-11.635 -8.384,-17.595 -3.574,-0.068 -9.92,-10.591 -7.957,-16.34 -3.004,-2.991 -10.488,-6.977 -8.584,-19.503 -5.891,-1.262 -9.378,-12.041 -7.555,-23.469 -9.116,-8.485 -6.878,-24.061 1.255,-30.371 -3.376,-3.004 -5.454,-5.315 -5.446,-9.011 -3.21,1.192 -6.169,0.195 -7.556,-1.908 -3.934,4.032 -9.583,7.564 -13.604,3.791 -1.041,4.77 -7.255,10.018 -14.056,9.411 0.398,5.031 -2.213,11.259 -9.413,13.429 0,0 -1.457,23.58 -8.61,31.226 -0.701,4.277 0.41,7.187 6.301,10.692 5.881,3.138 7.131,5.57 6.702,14.458 2.318,5.94 4.08,11.997 -3.138,16.114 0.217,-7.064 -1.952,-10.467 -4.819,-13.604 -3.427,0.499 -4.624,-3.5 -6.928,-5.247 -3.226,4.349 6.804,11.085 -0.628,20.759 -0.419,0.42 -5.188,12.629 -16.968,12.349 5.599,-3.278 7.968,-8.796 7.957,-14.458 -3.714,-10.478 -5.601,-18.575 -1.882,-30.596 -4.894,7.331 -7.67,21.27 -11.722,23.694 -3.552,0.693 -5.287,9.094 -19.076,6.702 5.948,-1.601 7.836,-6.142 9.437,-10.267 -3.647,-1.881 -1.835,-6.842 0.828,-10.265 -0.505,-8.044 4.314,-12.744 11.522,-15.739 -1.187,-10.966 -2.378,-21.914 -3.565,-32.881 -2.863,0.365 -7.269,-10.782 -9.011,-11.119 -2.802,-1.743 -7.695,-6.435 -2.083,-7.756 -1.668,-6.017 -3.214,-9.646 -12.173,-10.894 0,0 9.467,-5.615 17.318,3.992 8.413,0.21 5.647,10.242 9.714,14.658 0,0.209 2.309,1.659 5.673,10.491 1.471,-7.887 9.565,-32.038 27.861,-44.024 15.949,-17.075 29.057,-33.198 28.916,-55.95 6.225,5.79 9.943,14.958 12.802,23.695 8.655,3.01 21.037,4.16 32.078,3.665 -1.894,-3.985 -4.014,-7.81 -1.28,-10.394 -7.706,-2.645 -9.394,-8.236 -6.3,-13.829 -8.122,-5.516 -8.657,-9.059 -8.786,-18.224 -15.026,-19.263 -24.296,-18.625 -39.182,-13.627 -4.888,2.869 -12.453,6.999 -15.938,4.818 -6.429,4.285 -15.672,4.921 -17.194,-4.818 4.824,3.998 7.705,3.227 11.547,-0.628 -0.773,-1.957 -1.419,-3.907 1.455,-5.022 -1.258,-1.396 -2.507,-2.794 -3.765,-4.19 -6.918,1.064 -16.22,1.004 -18.649,-9.012 3.553,2.944 11.437,3.635 17.795,0.829 1.188,-0.42 2.377,-0.836 3.565,-1.255 0.14,-1.607 0.287,-3.213 0.427,-4.82 0,0 -9.424,1.456 -11.948,-13.83 8.835,9.399 15.085,6.928 15.085,6.928 3.405,-4.984 15.936,-4.234 24.95,3.966 12.66,7.077 16.351,-3.093 24.523,3.565 6.776,5.053 14.793,1.692 20.306,-4.193 6.358,-2.383 13.012,-4.347 18.248,0 0,0 6.396,4.082 12.776,-2.51 0.07,7.432 -5.197,11.381 -12.35,11.521 l -2.108,2.11 c -6.706,1.396 -14.241,0.83 -20.105,4.19 2.765,10.495 6.793,20.004 14.659,28.088 9.709,10.408 16.857,15.139 29.116,31.075 -0.473,-9.006 6.428,-19.019 10.065,-28.164 0,0 7.322,11.691 8.384,21.185 0.209,0 9.175,4.668 13.002,8.634 8.077,-5.009 21.242,4.012 29.744,11.471 5.241,-1.983 9.22,-1.841 15.311,0 -4.89,-9.952 2.828,-19.184 15.086,-23.042 1.133,-8.786 10.007,-10.626 23.469,-10.692 0.566,-5.17 8.585,-5.874 8.585,-5.874 -5.068,-2.361 -7.709,-4.728 -7.532,-10.065 -5.191,-0.036 -9.125,-1.343 -10.491,-7.33 -7.13,-0.121 -14.396,-0.669 -20.532,-4.191 -6.568,1.018 -14.556,3.741 -19.704,9.011 -2.657,2.236 -3.319,5.458 -7.957,6.702 -2.94,3.474 -6.457,2.7 -7.555,-0.628 -3.039,2.373 -14.436,3.476 -16.341,-7.33 5.32,3.895 10.092,5.379 13.429,0.628 -1.818,-3.298 4.431,-5.185 9.84,-6.501 3.835,-0.237 10.639,-3.733 12.775,-9.638 -4.947,-1.501 -12.446,-1.007 -17.394,2.736 -4.398,3.68 -10.339,3.241 -13.605,0.827 -4.53,2.89 -15.318,-2.563 -15.737,-11.294 4.545,4.164 8.68,6.178 12.801,3.539 -2.051,-0.487 -1.272,-0.687 -1.055,-1.883 3.493,-2.026 6.975,-4.047 10.468,-6.074 -5.137,-1.354 -9.964,-3.404 -7.732,-12.976 0,0 4.184,8.269 13.604,5.221 0.211,0.209 1.3,-2.955 3.992,-0.83 4.077,4.64 13.398,6.716 21.586,7.53 6.57,0.786 13.13,2.721 18.851,-1.029 5.093,2.621 10.763,4.384 16.566,0.202 6.846,-2.165 11.845,-10.145 20.532,-6.501 4.32,2.991 9.631,3.142 15.086,-2.937 0.065,7.665 -5.678,10.234 -13.831,11.947 -1.887,1.119 -3.762,2.246 -5.647,3.364 -5.239,0.769 -10.5,-0.16 -15.738,2.31 27.417,7.088 46.636,22.377 60.165,44.201 4.331,-1.536 8.646,-3.056 12.977,-4.593 3.072,-0.197 3.306,-1.264 9.638,-3.164 0.239,9.33 -3.765,18.939 -20.531,19.906 l -22.012,8.384 c -4.674,4.926 -6.786,15.382 -0.83,21.586 5.83,5.192 6.848,4.57 10.693,10.893 4.677,0.427 9.084,-4.393 13.403,-4.393 2.052,-6.092 13.875,-11.481 21.386,-9.638 4.706,-4.166 13.661,-6.483 23.469,-3.137 5.566,-4.874 12.818,-6.908 21.361,-3.138 2.267,-2.267 7.054,-4.071 12.574,-2.937 0.42,0 2.79,-6.056 8.812,-8.183 -2.625,-2.551 -1.013,-13.626 1.68,-17.594 -1.838,-4.258 -2.416,-8.802 -0.853,-13.203 -6.071,-3.905 -7.308,-6.807 -4.593,-13.405 -7.952,-12.775 -17.464,-14.235 -26.406,-10.29 -3.215,2.025 -6.424,4.072 -9.639,6.1 -3.422,3.352 -6.843,6.686 -10.265,10.039 -1.744,1.636 -5.35,2.151 -6.1,-1.456 0,0 -13.172,2.938 -14.233,-8.183 5.461,5.317 13.204,0.638 13.204,0.428 0,-0.21 -1.844,-1.464 -0.426,-3.591 0.318,0.267 9.616,-3.47 17.895,-7.027 4.499,-1.703 5.488,-2.239 7.455,-3.289 -2.156,0.988 -4.705,2.107 -7.455,3.289 -5.039,1.911 -9.949,3.437 -11.395,3.063 -4.691,0.438 -9.666,1.02 -11.946,-2.511 -5.043,-2.133 -12.919,-3.842 -12.578,-13.203 3.406,5.573 8.077,5.339 14.032,4.819 -0.139,-0.418 -0.262,-0.834 -0.402,-1.254 6.466,-2.946 5.24,0.801 11.271,1.355 5.042,0.463 12.187,-1.344 15.964,-2.611 -4.75,-1.397 -11.208,-0.81 -14.257,-4.192 -0.56,-1.118 -2.516,-0.66 -1.656,-3.337 0,0 -9.265,0.239 -11.748,-12.576 9.42,6.031 16.558,5.847 16.768,5.847 0.209,0 2.936,-0.626 2.936,-0.626 0,0 11.312,7.554 11.521,7.554 0.211,0 10.954,4.76 15.913,-0.626 4.328,-2.128 8.959,-2.264 13.429,0.427 8.808,3.831 17.054,4.098 25.151,-1.282 l 7.328,-4.391 c 1.048,0.698 2.091,1.409 3.14,2.109 0,0 8.295,2.343 14.381,-5.046 -2.516,12.782 -11.647,13.202 -11.647,13.202 -0.699,0.629 -1.41,1.254 -2.108,1.883 -4.331,1.677 -8.646,3.37 -12.976,5.045 -1.891,4.68 -6.641,8.406 -1.908,14.031 4.835,24.037 10.616,42.091 1.255,66.442 8.732,-3.772 15.265,-15.436 26.204,-11.321 0,9.78 -36.002,28.349 -63.503,43.274 45.056,2.306 99.204,35.563 78.389,77.836 C 45.327,9.27 48.6,19.471 51.883,29.669 56.518,20.333 65.901,13.217 74.322,10.191 67.382,23.441 63.398,63.95 67.395,91.918 49.24,69.491 29.191,49.588 7.881,29.368 18.363,26.918 27.522,28.642 37.651,29.895 34.786,24.027 32.005,18.143 29.142,12.274 1.452,28.49 -31.057,16.321 -31.3,-5.321 c 0.947,-25.237 32.15,-28.824 50.151,-20.03 -3.569,-23.01 -56.452,-14.533 -56.452,-14.533 -18.79,6.477 -36.636,5.368 -56.375,5.221 4.101,12.619 26.876,23.816 44.227,18.875 -24.292,27.237 3.434,61.051 36.872,71.461 -36.446,12.021 -5.063,39.805 22.215,59.714 0,0 -78.444,-33.012 -85.593,-32.907 -22.312,1.677 -16.23,28.086 -7.731,42.295 l 0,-0.001 z m 0.025,0.05 c -0.009,-0.015 -0.016,-0.034 -0.025,-0.05 0.026,0.015 0.048,0.036 0.075,0.05 l -0.05,0 z" /></g><g
           transform="translate(505.3223,242.9614)"
           id="g32"><path
             id="path34"
             style="fill:none;stroke:#1d1d1d;stroke-width:1.79999995;stroke-linecap:butt;stroke-linejoin:round;stroke-miterlimit:4;stroke-dasharray:none;stroke-opacity:1"
             d="M 0,0 C -2.891,-8.33 -27.983,-12.593 -29.666,-0.262 -30.521,6.016 -14.805,15.7 0,0 Z m 38.735,62.978 c 0,0 -1.714,-20.816 -4.231,-25.048 m -5.489,23.903 c 0,-0.113 -8.693,-23.446 -8.693,-23.446 M 11.841,20.739 c 1.74,-1.354 8.465,-4.943 12.907,-13.25 M 0.241,-0.274 c 0,0 6.257,-5.461 0.753,-18.638 m -93.901,-20.245 c 12.353,1.487 30.08,-25.963 39.115,-31.338 m 52.556,-118.982 c 0,0 -5.148,-3.773 -2.402,-8.692 m -84.061,4.119 c 0,0 6.175,-1.717 5.49,-6.864 m -17.957,24.818 c 0,0 4.461,-4.689 1.487,-8.577 m 5.604,26.649 c 0,0 5.947,-2.859 -1.144,-7.778 m -73.541,-23.447 c 0,0 -5.146,-4.346 -1.372,-9.265 m -86.352,8.008 c 0,0 9.379,-0.458 6.061,-7.548 m -13.038,23.331 c 0,0 3.133,-5.807 -2.929,-7.408 m 14.709,26.738 c 0,0 3.089,-6.177 -2.86,-6.977 m -3.888,-26.763 c 0,0 9.035,7.776 13.267,3.66 4.232,-4.118 22.188,3.544 22.188,3.544 m 6.177,11.553 -14.868,-7.778 m 35.799,12.009 c 0,0 10.978,-11.78 18.985,2.517 m -8.348,4.919 c 7.433,-5.948 4.387,-9.511 27.721,6.157 m -20.631,3.792 c 0,0 19.901,-2.059 20.815,-3.546 2.289,2.403 20.058,16.796 -1.786,18.853 -3.66,-14.981 -18.686,-15.536 -19.029,-15.307 z m -236.7,-44.527 c 0,0 7.328,-1.074 3.037,-6.971 m -6.254,20.912 c 0,0 5.361,-3.397 -0.715,-7.863 m 9.116,22.697 c 0,0 2.502,-6.434 -5.899,-5.54 m 0.531,-18.407 c 0,0 10.189,8.4 15.55,3.217 5.184,-1.788 8.042,-1.43 8.042,-1.43 m 68.1,-1.251 c -0.179,0 -3.038,-6.077 -0.536,-9.115 m -90.259,22.341 c 6.434,0.358 7.819,-2.548 13.673,-2.548 6.744,-0.206 13.315,2.548 21.895,4.871 m -79.179,191.069 c 0,0 4.111,-1.966 8.043,4.11 m -10.541,-81.324 c 0,0 6.612,-1.966 5.54,-6.971 m 20.031,95.261 c 0,0 0,-3.933 8.222,2.144 m 0.716,-20.733 c 0,0 -6.256,-16.801 1.25,-20.732 m 6.255,25.38 c 0,0 3.218,-6.972 7.687,-3.039 m 33.408,44.751 19.497,0.29 c 6.203,0.092 16.42,8.689 27.858,6.009 m -44.48,-5.831 c 0,0.179 1.43,3.754 1.43,3.754 l 1.593,-4.133 2.565,0.067 1.693,4.143 1.389,-4.159 2.549,0 1.572,4.618 2.375,-4.372 2.017,-0.102 1.589,5.325 3.274,-3.815 1.19,0.461 1.019,5.327 3.236,-3.726 0.927,0.545 1.5,5.249 2.688,-3.903 1.353,0.44 1.256,4.413 2.498,-4.055 m -33.958,-131.718 c 0,0 -1.25,-6.256 7.507,-18.768 -2.502,-13.94 10.598,-24.895 15.782,-26.684 m -68.024,70.459 c -9.83,-5.541 5.594,-40.557 52.242,-43.954 m -14.872,17.255 c 0,0 3.255,-10.283 0.573,-15.111 m -13.993,18.797 c 0,0 -3.879,-7.535 -4.773,-11.111 m -9.251,20.486 c 0,0 -2.903,-6.187 -6.478,-7.975 m 171.937,54.697 c 0,0 12.512,0.179 25.023,34.138 12.329,46.465 110.097,98.297 112.065,107.952 M -203.223,45.27 c 18.354,10.184 75.069,30.969 112.9,46.218 m 77.555,30.313 c 0,0 -173.647,-81.141 -176.176,-85.439 29.321,8.848 153.678,29.575 156.714,27.805 -7.33,-1.769 -158.233,-36.397 -165.309,-44.739 37.662,1.264 116.53,-12.133 128.908,-25.023 -26.794,6.065 -106.924,17.945 -131.438,12.638 17.947,-4.298 86.699,-48.785 86.699,-55.862 -10.363,9.857 -93.021,43.982 -96.306,40.695 18.956,-11.374 45.751,-53.585 45.749,-63.949 -5.559,8.846 -53.332,60.158 -56.113,56.872 5.056,-7.078 15.074,-67.648 9.952,-70.454 0,7.328 -18.546,60.344 -20.062,61.86 -3.792,-1.011 -27.432,-64.682 -22.748,-70.602 -3.033,21.232 0.504,65.546 6.318,63.777 -10.362,-1.516 -43.437,-45.125 -39.898,-51.95 1.011,10.87 2.49,18.079 21.194,54.225 -20.727,-1.263 -63.696,-28.31 -71.028,-37.914 5.814,17.186 42.212,46.256 58.137,48.278 m -57.858,75.244 10.422,-0.13 m -51.591,19.16 c 0,0 7.006,-2.682 21.536,8.822 m 25.252,-140.98 c -4.15,5.362 3.113,87.702 18.51,109.148 -5.363,-38.748 12.454,-78.36 16.951,-78.187 m -129.061,84.909 -5.184,8.4 4.647,1.609 m 52.191,32.708 c 0,0 5.004,-6.256 5.182,-9.83 0.179,-3.574 -3.752,-6.256 -3.752,-6.256 m -5.006,8.4 c 0,0 -1.071,-3.753 -1.429,-6.255 0,-1.787 -5.72,-4.111 -5.72,-4.111 m 26.632,15.55 c 0,0 7.85,2.16 13.725,0.935 5.82,-1.196 13.621,-3.259 13.621,-3.259 0,0 9.293,1.251 12.333,3.396 m 9.294,12.333 c 0.178,-0.179 -0.716,-5.005 -3.397,-7.865 m -23.781,-31.269 12.691,-24.308 6.076,9.115 3.218,-6.256 5.183,9.116 8.936,-5.72 -3.396,11.082 7.506,0.536 c 0,0 -1.966,5.362 -8.758,6.435 1.788,1.429 8.044,5.541 8.044,5.541 0,0 -3.574,4.11 -9.115,4.289 1.787,1.966 4.289,6.792 4.111,6.792 -0.179,0 -5.542,1.251 -5.542,1.251 0,0 12.691,-4.111 22.52,1.608 m -8.756,3.039 c 0,0 -10.01,0.357 -9.296,4.29 0.717,4.468 10.547,7.685 10.547,7.685 0,0 13.046,8.4 15.013,11.26 m -13.942,-6.256 c 0,0 3.218,3.218 8.58,1.609 M -332.843,49.32 c 0,0 7.266,-7.957 15.57,-6.573 m -23.698,-11.59 c 0,0 3.632,-6.227 17.471,-7.264 m -25.469,-9.113 c 0,0 9.381,-11.472 22.008,-9.743 m -30.444,-9.859 c 0,0 2.593,-8.477 27.504,-8.996 m -34.77,-14.877 c 0,0 11.59,-10.378 33.387,-7.092 m -32.175,-22.834 c 0,0 14.875,-8.301 33.211,2.941 m 218.476,29.581 c 0,0 -10.379,-8.823 -0.692,-23.007 -32.176,0.519 -49.472,-14.357 -50.856,-24.391 -40.996,2.941 -33.558,-9.169 -46.878,-13.146 -17.818,14.876 -43.938,6.573 -42.208,-8.302 -11.936,16.778 -30.271,8.648 -32.52,4.497 -2.248,-4.152 -1.384,20.585 -1.384,20.585 0,0 -11.935,-5.364 -20.24,-15.223 0.175,6.574 0,17.297 0,20.757 -9.974,-2.018 -19.604,-2.13 -29.925,-1.902 m 9.038,-0.092 c -0.175,0 -17.167,-26.721 9.472,-33.812 m 31.317,17.983 c 0,0 -4.325,-2.076 -5.881,-1.729 -5.19,-1.211 -4.153,-13.321 2.421,-12.628 2.248,2.594 4.671,6.227 4.671,6.227 m -10.553,0.865 c 0,0 -1.902,-2.596 -4.843,0.173 -1.557,2.768 -7.092,-12.456 2.595,-12.974 1.729,4.499 7.092,5.709 7.092,5.709 m -12.801,1.384 c -7.611,0.519 -11.762,-16.261 2.941,-5.709 m -8.304,3.286 c 0,0 -8.476,6.574 -8.129,-2.594 -0.174,-5.707 2.594,-7.093 2.594,-7.093 0.345,-4.151 3.979,-10.03 6.919,-4.67 1.211,5.19 -0.865,7.439 -0.865,7.439 m -44.975,-51.202 c -0.172,0 1.384,-11.418 9.342,-2.768 5.534,11.588 23.006,44.282 26.985,55.527 m -12.109,8.994 c 0,0 -12.282,-3.459 -7.611,-17.99 7.092,-5.71 14.011,-4.843 14.011,-4.843 m -15.395,-6.575 c 0,0 8.303,-3.632 11.071,-2.248 m -17.381,-11.991 c 0,0 3.715,-6.518 8.905,-4.268 m 57.085,55.527 c 0,0 1.036,-17.472 -4.153,-23.698 -5.19,-6.227 1.216,-19.163 1.216,-19.163 m 16.082,43.725 c 0.173,-0.345 3.286,-27.849 -3.633,-35.634 m 30.099,41.169 c 0,0 10.149,-19.638 -0.057,-29.324 m 29.118,23.27 c 0,0 -5.883,-17.471 -14.185,-23.35 m 43.073,22.659 c 0,0 -27.332,-46.705 23.179,-46.705 m -60.37,30.099 c 0,0.173 27.988,-0.078 29.89,-5.266 m -20.722,-23.796 c 0.347,0.346 20.065,2.25 23.699,9.342 m 0.02,-19.954 c 0.172,0 12.087,7.153 9.667,12.17 m -10.725,57.428 c 1.383,-18.161 -20.931,-28.54 -29.754,-26.811 m 28.024,15.914 c 0,0 15.569,-7.61 28.887,4.671 m -3.632,5.881 c 0,0 5.882,-10.552 12.973,-9.859 9.341,2.767 12.801,-2.941 12.801,-2.941 m 13.484,37.021 c 0,0 -0.692,-26.294 36.325,-31.656 41.343,-11.416 60.889,-5.362 63.312,-51.722 -1.557,-17.643 -3.749,-37.572 -16.55,-29.959 m 4.603,13.378 c 0,0 6.11,-5.132 10.261,1.613 m -9.451,11.993 c 0,0 7.55,-1.363 11.009,5.9 m -13.127,11.722 c 0,0 8.167,-2.035 10.761,3.329 m -10.491,18.203 c 0,0 -6.208,-12.149 -8.456,-13.361 m -7.631,21.144 c 0,0 0.347,-12.972 -5.189,-18.162 m -12.282,21.277 c 0,0 -0.173,-10.725 -8.995,-18.162 m -23.526,3.285 c 0.173,0.174 14.184,15.568 10.553,20.239 m -15.223,6.227 c 0,0 -1.846,-14.821 -16.723,-17.069 m -206.864,45.909 c 0,0 28.641,17.173 30.197,29.8 m -29.234,-14.875 c 0,0.172 17.936,4.572 25.375,24.292 m -24.856,-13.394 c 1.558,-0.692 21.178,13.439 21.697,23.817 m -20.486,-11.19 c 5.708,1.557 16.211,14.259 18.287,21.005 m -15.692,-7.339 c 0,0 8.13,5.709 14.358,14.357 m -11.209,1.858 c 0.172,-4.671 7.579,1.645 10.52,5.624 m 5.532,-55.226 3.46,-4.323 m -10.776,-2.413 2.299,-3.642 m -10.205,-2.941 c 0,-0.172 2.767,-3.979 2.767,-3.979 m -7.611,1.211 c 0,0 0.173,-5.534 2.94,-5.88 m -1.73,19.892 c 0,0 3.115,-10.552 5.882,-8.821 m 2.076,13.839 c 0.173,-0.347 3.459,-9.862 3.459,-9.862 m 3.461,16.262 4.15,-8.304 m -8.826,16.265 c 0.173,-0.173 4.502,-6.406 5.712,-5.54 m -11.935,-0.173 c 0,0 2.422,-9.514 4.324,-8.648 m -12.592,1.507 4.463,-6.698 m 2.076,25.083 c 0,0 1.557,-10.033 2.94,-9.688 m 2.847,15.406 c 0,-0.173 4.418,-8.487 4.764,-8.487 m -13.666,9.689 c 0.173,0 4.844,-5.364 4.844,-5.364 m 2.076,13.666 c 0.173,-0.173 3.979,-6.573 3.979,-6.573 m -2.076,18.162 c 0,0 0,-7.437 1.556,-7.611 m -5.188,13.32 3.804,-5.534" /></g><g
           transform="translate(157.6104,344.4595)"
           id="g36"><path
             id="path38"
             style="fill:#1d1d1d;fill-opacity:1;fill-rule:nonzero;stroke:none"
             d="M 0,0 9.655,-1.788 C 9.655,-1.788 2.859,-10.903 0,0" /></g><g
           transform="translate(157.6104,344.4595)"
           id="g40"><path
             id="path42"
             style="fill:none;stroke:#1d1d1d;stroke-width:1.79999995;stroke-linecap:butt;stroke-linejoin:round;stroke-miterlimit:4;stroke-dasharray:none;stroke-opacity:1"
             d="M 0,0 9.655,-1.788 C 9.655,-1.788 2.859,-10.903 0,0 Z" /></g></g></g></g></svg>