<?xml version="1.0" encoding="UTF-8" standalone="no"?>
<svg
   xmlns:dc="http://purl.org/dc/elements/1.1/"
   xmlns:cc="http://creativecommons.org/ns#"
   xmlns:rdf="http://www.w3.org/1999/02/22-rdf-syntax-ns#"
   xmlns:svg="http://www.w3.org/2000/svg"
   xmlns="http://www.w3.org/2000/svg"
   viewBox="0 0 800 533.33331"
   height="533.33331"
   width="800"
   xml:space="preserve"
   version="1.1"
   id="svg2"><metadata
     id="metadata8"><rdf:RDF><cc:Work
         rdf:about=""><dc:format>image/svg+xml</dc:format><dc:type
           rdf:resource="http://purl.org/dc/dcmitype/StillImage" /></cc:Work></rdf:RDF></metadata><defs
     id="defs6"><clipPath
       id="clipPath22"
       clipPathUnits="userSpaceOnUse"><path
         id="path24"
         d="M 0,400 600,400 600,0 0,0 0,400 Z" /></clipPath><clipPath
       id="clipPath190"
       clipPathUnits="userSpaceOnUse"><path
         id="path192"
         d="M 0,400 600,400 600,0 0,0 0,400 Z" /></clipPath></defs><g
     transform="matrix(1.3333333,0,0,-1.3333333,0,533.33333)"
     id="g10"><path
       id="path12"
       style="fill:#db2226;fill-opacity:1;fill-rule:nonzero;stroke:none"
       d="M 0,0 600,0 600,400 0,400 0,0 Z" /><path
       id="path14"
       style="fill:#ffffff;fill-opacity:1;fill-rule:nonzero;stroke:none"
       d="m 0,133.333 600,0 0,266.666 -600,0 0,-266.666 z" /><path
       id="path16"
       style="fill:#2fa147;fill-opacity:1;fill-rule:nonzero;stroke:none"
       d="m 0,266.667 600,0 0,133.332 -600,0 0,-133.332 z" /><g
       id="g18"><g
         clip-path="url(#clipPath22)"
         id="g20"><g
           transform="translate(18.667,288.4443)"
           id="g26"><path
             id="path28"
             style="fill:none;stroke:#ffffff;stroke-width:2;stroke-linecap:butt;stroke-linejoin:miter;stroke-miterlimit:4;stroke-dasharray:none;stroke-opacity:1"
             d="m 0,0 0,-14 m -6.222,14 0,-14 12.444,0 0,14 m -17.112,-14 -7.777,0 0,6.222 12.445,0 M -45.111,-14 -42,-14 m -7.778,-1.555 0,7.777 12.445,0 0,-6.222 12.445,0 0,6.222 -7.778,0 m -18.667,6.223 40.443,0" /></g><g
           transform="translate(-1.5552,266.667)"
           id="g30"><path
             id="path32"
             style="fill:none;stroke:#ffffff;stroke-width:2;stroke-linecap:butt;stroke-linejoin:miter;stroke-miterlimit:4;stroke-dasharray:none;stroke-opacity:1"
             d="m 0,0 28,0 m -59.111,0 28,0" /></g><g
           transform="translate(-1.5552,133.333)"
           id="g34"><path
             id="path36"
             style="fill:none;stroke:#ffffff;stroke-width:2;stroke-linecap:butt;stroke-linejoin:miter;stroke-miterlimit:4;stroke-dasharray:none;stroke-opacity:1"
             d="m 0,0 28,0 m -59.111,0 28,0" /></g><g
           transform="translate(18.667,127.1113)"
           id="g38"><path
             id="path40"
             style="fill:none;stroke:#ffffff;stroke-width:2;stroke-linecap:butt;stroke-linejoin:miter;stroke-miterlimit:4;stroke-dasharray:none;stroke-opacity:1"
             d="m 0,0 0,-14 m -6.222,14 0,-14 12.444,0 0,14 m -17.112,-14 -7.777,0 0,6.223 12.445,0 M -45.111,-14 -42,-14 m -7.778,-1.555 0,7.778 12.445,0 0,-6.223 12.445,0 0,6.223 -7.778,0 m -18.667,6.22 40.443,0" /></g></g></g><g
       transform="translate(80.8896,288.4443)"
       id="g42"><path
         id="path44"
         style="fill:none;stroke:#ffffff;stroke-width:2;stroke-linecap:butt;stroke-linejoin:miter;stroke-miterlimit:4;stroke-dasharray:none;stroke-opacity:1"
         d="m 0,0 0,-14 m -6.223,14 0,-14 12.445,0 0,14 m -17.112,-14 -7.777,0 0,6.222 12.444,0 M -45.111,-14 -42,-14 m -7.778,-1.555 0,7.777 12.444,0 0,-6.222 12.445,0 0,6.222 -7.778,0 m -18.667,6.223 40.444,0" /></g><g
       transform="translate(60.667,266.667)"
       id="g46"><path
         id="path48"
         style="fill:none;stroke:#ffffff;stroke-width:2;stroke-linecap:butt;stroke-linejoin:miter;stroke-miterlimit:4;stroke-dasharray:none;stroke-opacity:1"
         d="m 0,0 28,0 m -59.111,0 28,0" /></g><g
       transform="translate(60.667,133.333)"
       id="g50"><path
         id="path52"
         style="fill:none;stroke:#ffffff;stroke-width:2;stroke-linecap:butt;stroke-linejoin:miter;stroke-miterlimit:4;stroke-dasharray:none;stroke-opacity:1"
         d="m 0,0 28,0 m -59.111,0 28,0" /></g><g
       transform="translate(80.8896,127.1113)"
       id="g54"><path
         id="path56"
         style="fill:none;stroke:#ffffff;stroke-width:2;stroke-linecap:butt;stroke-linejoin:miter;stroke-miterlimit:4;stroke-dasharray:none;stroke-opacity:1"
         d="m 0,0 0,-14 m -6.223,14 0,-14 12.445,0 0,14 m -17.112,-14 -7.777,0 0,6.223 12.444,0 M -45.111,-14 -42,-14 m -7.778,-1.555 0,7.778 12.444,0 0,-6.223 12.445,0 0,6.223 -7.778,0 m -18.667,6.22 40.444,0" /></g><g
       transform="translate(143.1118,288.4443)"
       id="g58"><path
         id="path60"
         style="fill:none;stroke:#ffffff;stroke-width:2;stroke-linecap:butt;stroke-linejoin:miter;stroke-miterlimit:4;stroke-dasharray:none;stroke-opacity:1"
         d="m 0,0 0,-14 m -6.223,14 0,-14 12.445,0 0,14 m -17.112,-14 -7.777,0 0,6.222 12.444,0 M -45.112,-14 -42,-14 m -7.778,-1.555 0,7.777 12.444,0 0,-6.222 12.445,0 0,6.222 -7.778,0 m -18.667,6.223 40.444,0" /></g><g
       transform="translate(122.8892,266.667)"
       id="g62"><path
         id="path64"
         style="fill:none;stroke:#ffffff;stroke-width:2;stroke-linecap:butt;stroke-linejoin:miter;stroke-miterlimit:4;stroke-dasharray:none;stroke-opacity:1"
         d="m 0,0 28,0 m -59.111,0 28,0" /></g><g
       transform="translate(122.8892,133.333)"
       id="g66"><path
         id="path68"
         style="fill:none;stroke:#ffffff;stroke-width:2;stroke-linecap:butt;stroke-linejoin:miter;stroke-miterlimit:4;stroke-dasharray:none;stroke-opacity:1"
         d="m 0,0 28,0 m -59.111,0 28,0" /></g><g
       transform="translate(143.1118,127.1113)"
       id="g70"><path
         id="path72"
         style="fill:none;stroke:#ffffff;stroke-width:2;stroke-linecap:butt;stroke-linejoin:miter;stroke-miterlimit:4;stroke-dasharray:none;stroke-opacity:1"
         d="m 0,0 0,-14 m -6.223,14 0,-14 12.445,0 0,14 m -17.112,-14 -7.777,0 0,6.223 12.444,0 M -45.112,-14 -42,-14 m -7.778,-1.555 0,7.778 12.444,0 0,-6.223 12.445,0 0,6.223 -7.778,0 m -18.667,6.22 40.444,0" /></g><g
       transform="translate(205.3335,288.4443)"
       id="g74"><path
         id="path76"
         style="fill:none;stroke:#ffffff;stroke-width:2;stroke-linecap:butt;stroke-linejoin:miter;stroke-miterlimit:4;stroke-dasharray:none;stroke-opacity:1"
         d="m 0,0 0,-14 m -6.223,14 0,-14 12.445,0 0,14 m -17.111,-14 -7.778,0 0,6.222 12.444,0 M -45.111,-14 -42,-14 m -7.778,-1.555 0,7.777 12.445,0 0,-6.222 12.444,0 0,6.222 -7.778,0 m -18.666,6.223 40.444,0" /></g><g
       transform="translate(185.1108,266.667)"
       id="g78"><path
         id="path80"
         style="fill:none;stroke:#ffffff;stroke-width:2;stroke-linecap:butt;stroke-linejoin:miter;stroke-miterlimit:4;stroke-dasharray:none;stroke-opacity:1"
         d="M 0,0 28.001,0 M -31.111,0 -3.11,0" /></g><g
       transform="translate(185.1108,133.333)"
       id="g82"><path
         id="path84"
         style="fill:none;stroke:#ffffff;stroke-width:2;stroke-linecap:butt;stroke-linejoin:miter;stroke-miterlimit:4;stroke-dasharray:none;stroke-opacity:1"
         d="M 0,0 28.001,0 M -31.111,0 -3.11,0" /></g><g
       transform="translate(205.3335,127.1113)"
       id="g86"><path
         id="path88"
         style="fill:none;stroke:#ffffff;stroke-width:2;stroke-linecap:butt;stroke-linejoin:miter;stroke-miterlimit:4;stroke-dasharray:none;stroke-opacity:1"
         d="m 0,0 0,-14 m -6.223,14 0,-14 12.445,0 0,14 m -17.111,-14 -7.778,0 0,6.223 12.444,0 M -45.111,-14 -42,-14 m -7.778,-1.555 0,7.778 12.445,0 0,-6.223 12.444,0 0,6.223 -7.778,0 m -18.666,6.22 40.444,0" /></g><g
       transform="translate(267.5557,288.4443)"
       id="g90"><path
         id="path92"
         style="fill:none;stroke:#ffffff;stroke-width:2;stroke-linecap:butt;stroke-linejoin:miter;stroke-miterlimit:4;stroke-dasharray:none;stroke-opacity:1"
         d="m 0,0 0,-14 m -6.223,14 0,-14 12.445,0 0,14 m -17.111,-14 -7.778,0 0,6.222 12.444,0 M -45.111,-14 -42,-14 m -7.778,-1.555 0,7.777 12.445,0 0,-6.222 12.445,0 0,6.222 -7.779,0 m -18.666,6.223 40.444,0" /></g><g
       transform="translate(247.333,266.667)"
       id="g94"><path
         id="path96"
         style="fill:none;stroke:#ffffff;stroke-width:2;stroke-linecap:butt;stroke-linejoin:miter;stroke-miterlimit:4;stroke-dasharray:none;stroke-opacity:1"
         d="M 0,0 28,0 M -31.111,0 -3.11,0" /></g><g
       transform="translate(247.333,133.333)"
       id="g98"><path
         id="path100"
         style="fill:none;stroke:#ffffff;stroke-width:2;stroke-linecap:butt;stroke-linejoin:miter;stroke-miterlimit:4;stroke-dasharray:none;stroke-opacity:1"
         d="M 0,0 28,0 M -31.111,0 -3.11,0" /></g><g
       transform="translate(267.5557,127.1113)"
       id="g102"><path
         id="path104"
         style="fill:none;stroke:#ffffff;stroke-width:2;stroke-linecap:butt;stroke-linejoin:miter;stroke-miterlimit:4;stroke-dasharray:none;stroke-opacity:1"
         d="m 0,0 0,-14 m -6.223,14 0,-14 12.445,0 0,14 m -17.111,-14 -7.778,0 0,6.223 12.444,0 M -45.111,-14 -42,-14 m -7.778,-1.555 0,7.778 12.445,0 0,-6.223 12.445,0 0,6.223 -7.779,0 m -18.666,6.22 40.444,0" /></g><g
       transform="translate(329.7773,288.4443)"
       id="g106"><path
         id="path108"
         style="fill:none;stroke:#ffffff;stroke-width:2;stroke-linecap:butt;stroke-linejoin:miter;stroke-miterlimit:4;stroke-dasharray:none;stroke-opacity:1"
         d="m 0,0 0,-14 m -6.222,14 0,-14 12.445,0 0,14 m -17.111,-14 -7.779,0 0,6.222 12.445,0 M -45.111,-14 l 3.112,0 m -7.779,-1.555 0,7.777 12.445,0 0,-6.222 12.444,0 0,6.222 -7.777,0 m -18.667,6.223 40.445,0" /></g><g
       transform="translate(309.5557,266.667)"
       id="g110"><path
         id="path112"
         style="fill:none;stroke:#ffffff;stroke-width:2;stroke-linecap:butt;stroke-linejoin:miter;stroke-miterlimit:4;stroke-dasharray:none;stroke-opacity:1"
         d="m 0,0 28,0 m -59.111,0 28,0" /></g><g
       transform="translate(309.5557,133.333)"
       id="g114"><path
         id="path116"
         style="fill:none;stroke:#ffffff;stroke-width:2;stroke-linecap:butt;stroke-linejoin:miter;stroke-miterlimit:4;stroke-dasharray:none;stroke-opacity:1"
         d="m 0,0 28,0 m -59.111,0 28,0" /></g><g
       transform="translate(329.7773,127.1113)"
       id="g118"><path
         id="path120"
         style="fill:none;stroke:#ffffff;stroke-width:2;stroke-linecap:butt;stroke-linejoin:miter;stroke-miterlimit:4;stroke-dasharray:none;stroke-opacity:1"
         d="m 0,0 0,-14 m -6.222,14 0,-14 12.445,0 0,14 m -17.111,-14 -7.779,0 0,6.223 12.445,0 M -45.111,-14 l 3.112,0 m -7.779,-1.555 0,7.778 12.445,0 0,-6.223 12.444,0 0,6.223 -7.777,0 m -18.667,6.22 40.445,0" /></g><g
       transform="translate(392,288.4443)"
       id="g122"><path
         id="path124"
         style="fill:none;stroke:#ffffff;stroke-width:2;stroke-linecap:butt;stroke-linejoin:miter;stroke-miterlimit:4;stroke-dasharray:none;stroke-opacity:1"
         d="m 0,0 0,-14 m -6.223,14 0,-14 12.445,0 0,14 m -17.113,-14 -7.776,0 0,6.222 12.444,0 M -45.111,-14 -42,-14 m -7.778,-1.555 0,7.777 12.445,0 0,-6.222 12.444,0 0,6.222 -7.777,0 m -18.667,6.223 40.442,0" /></g><g
       transform="translate(371.7783,266.667)"
       id="g126"><path
         id="path128"
         style="fill:none;stroke:#ffffff;stroke-width:2;stroke-linecap:butt;stroke-linejoin:miter;stroke-miterlimit:4;stroke-dasharray:none;stroke-opacity:1"
         d="m 0,0 27.999,0 m -59.11,0 27.999,0" /></g><g
       transform="translate(371.7783,133.333)"
       id="g130"><path
         id="path132"
         style="fill:none;stroke:#ffffff;stroke-width:2;stroke-linecap:butt;stroke-linejoin:miter;stroke-miterlimit:4;stroke-dasharray:none;stroke-opacity:1"
         d="m 0,0 27.999,0 m -59.11,0 27.999,0" /></g><g
       transform="translate(392,127.1113)"
       id="g134"><path
         id="path136"
         style="fill:none;stroke:#ffffff;stroke-width:2;stroke-linecap:butt;stroke-linejoin:miter;stroke-miterlimit:4;stroke-dasharray:none;stroke-opacity:1"
         d="m 0,0 0,-14 m -6.223,14 0,-14 12.445,0 0,14 m -17.113,-14 -7.776,0 0,6.223 12.444,0 M -45.111,-14 -42,-14 m -7.778,-1.555 0,7.778 12.445,0 0,-6.223 12.444,0 0,6.223 -7.777,0 m -18.667,6.22 40.442,0" /></g><g
       transform="translate(454.2217,288.4443)"
       id="g138"><path
         id="path140"
         style="fill:none;stroke:#ffffff;stroke-width:2;stroke-linecap:butt;stroke-linejoin:miter;stroke-miterlimit:4;stroke-dasharray:none;stroke-opacity:1"
         d="m 0,0 0,-14 m -6.222,14 0,-14 12.445,0 0,14 m -17.111,-14 -7.78,0 0,6.222 12.446,0 M -45.11,-14 -42,-14 m -7.777,-1.555 0,7.777 12.444,0 0,-6.222 12.444,0 0,6.222 -7.776,0 m -18.667,6.223 40.444,0" /></g><g
       transform="translate(434,266.667)"
       id="g142"><path
         id="path144"
         style="fill:none;stroke:#ffffff;stroke-width:2;stroke-linecap:butt;stroke-linejoin:miter;stroke-miterlimit:4;stroke-dasharray:none;stroke-opacity:1"
         d="M 0,0 27.999,0 M -31.11,0 -3.112,0" /></g><g
       transform="translate(434,133.333)"
       id="g146"><path
         id="path148"
         style="fill:none;stroke:#ffffff;stroke-width:2;stroke-linecap:butt;stroke-linejoin:miter;stroke-miterlimit:4;stroke-dasharray:none;stroke-opacity:1"
         d="M 0,0 27.999,0 M -31.11,0 -3.112,0" /></g><g
       transform="translate(454.2217,127.1113)"
       id="g150"><path
         id="path152"
         style="fill:none;stroke:#ffffff;stroke-width:2;stroke-linecap:butt;stroke-linejoin:miter;stroke-miterlimit:4;stroke-dasharray:none;stroke-opacity:1"
         d="m 0,0 0,-14 m -6.222,14 0,-14 12.445,0 0,14 m -17.111,-14 -7.78,0 0,6.223 12.446,0 M -45.11,-14 -42,-14 m -7.777,-1.555 0,7.778 12.444,0 0,-6.223 12.444,0 0,6.223 -7.776,0 m -18.667,6.22 40.444,0" /></g><g
       transform="translate(516.4434,288.4443)"
       id="g154"><path
         id="path156"
         style="fill:none;stroke:#ffffff;stroke-width:2;stroke-linecap:butt;stroke-linejoin:miter;stroke-miterlimit:4;stroke-dasharray:none;stroke-opacity:1"
         d="m 0,0 0,-14 m -6.221,14 0,-14 12.445,0 0,14 m -17.113,-14 -7.777,0 0,6.222 12.445,0 M -45.11,-14 l 3.111,0 m -7.778,-1.555 0,7.777 12.445,0 0,-6.222 12.444,0 0,6.222 -7.777,0 m -18.668,6.223 40.444,0" /></g><g
       transform="translate(496.2227,266.667)"
       id="g158"><path
         id="path160"
         style="fill:none;stroke:#ffffff;stroke-width:2;stroke-linecap:butt;stroke-linejoin:miter;stroke-miterlimit:4;stroke-dasharray:none;stroke-opacity:1"
         d="M 0,0 27.999,0 M -31.112,0 -3.111,0" /></g><g
       transform="translate(496.2227,133.333)"
       id="g162"><path
         id="path164"
         style="fill:none;stroke:#ffffff;stroke-width:2;stroke-linecap:butt;stroke-linejoin:miter;stroke-miterlimit:4;stroke-dasharray:none;stroke-opacity:1"
         d="M 0,0 27.999,0 M -31.112,0 -3.111,0" /></g><g
       transform="translate(516.4434,127.1113)"
       id="g166"><path
         id="path168"
         style="fill:none;stroke:#ffffff;stroke-width:2;stroke-linecap:butt;stroke-linejoin:miter;stroke-miterlimit:4;stroke-dasharray:none;stroke-opacity:1"
         d="m 0,0 0,-14 m -6.221,14 0,-14 12.445,0 0,14 m -17.113,-14 -7.777,0 0,6.223 12.445,0 M -45.11,-14 l 3.111,0 m -7.778,-1.555 0,7.778 12.445,0 0,-6.223 12.444,0 0,6.223 -7.777,0 m -18.668,6.22 40.444,0" /></g><g
       transform="translate(578.666,288.4443)"
       id="g170"><path
         id="path172"
         style="fill:none;stroke:#ffffff;stroke-width:2;stroke-linecap:butt;stroke-linejoin:miter;stroke-miterlimit:4;stroke-dasharray:none;stroke-opacity:1"
         d="m 0,0 0,-14 m -6.222,14 0,-14 12.446,0 0,14 m -17.112,-14 -7.779,0 0,6.222 12.445,0 M -45.11,-14 -42,-14 m -7.777,-1.555 0,7.777 12.444,0 0,-6.222 12.444,0 0,6.222 -7.777,0 m -18.666,6.223 40.444,0" /></g><g
       transform="translate(558.4453,266.667)"
       id="g174"><path
         id="path176"
         style="fill:none;stroke:#ffffff;stroke-width:2;stroke-linecap:butt;stroke-linejoin:miter;stroke-miterlimit:4;stroke-dasharray:none;stroke-opacity:1"
         d="M 0,0 27.998,0 M -31.111,0 -3.112,0" /></g><g
       transform="translate(558.4453,133.333)"
       id="g178"><path
         id="path180"
         style="fill:none;stroke:#ffffff;stroke-width:2;stroke-linecap:butt;stroke-linejoin:miter;stroke-miterlimit:4;stroke-dasharray:none;stroke-opacity:1"
         d="M 0,0 27.998,0 M -31.111,0 -3.112,0" /></g><g
       transform="translate(578.666,127.1113)"
       id="g182"><path
         id="path184"
         style="fill:none;stroke:#ffffff;stroke-width:2;stroke-linecap:butt;stroke-linejoin:miter;stroke-miterlimit:4;stroke-dasharray:none;stroke-opacity:1"
         d="m 0,0 0,-14 m -6.222,14 0,-14 12.446,0 0,14 m -17.112,-14 -7.779,0 0,6.223 12.445,0 M -45.11,-14 -42,-14 m -7.777,-1.555 0,7.778 12.444,0 0,-6.223 12.444,0 0,6.223 -7.777,0 m -18.666,6.22 40.444,0" /></g><g
       id="g186"><g
         clip-path="url(#clipPath190)"
         id="g188"><g
           transform="translate(640.8877,288.4443)"
           id="g194"><path
             id="path196"
             style="fill:none;stroke:#ffffff;stroke-width:2;stroke-linecap:butt;stroke-linejoin:miter;stroke-miterlimit:4;stroke-dasharray:none;stroke-opacity:1"
             d="m 0,0 0,-14 m -6.221,14 0,-14 12.445,0 0,14 m -17.113,-14 -7.776,0 0,6.222 12.444,0 M -45.11,-14 l 3.111,0 m -7.778,-1.555 0,7.777 12.445,0 0,-6.222 12.444,0 0,6.222 -7.777,0 m -18.668,6.223 40.444,0" /></g><g
           transform="translate(620.667,266.667)"
           id="g198"><path
             id="path200"
             style="fill:none;stroke:#ffffff;stroke-width:2;stroke-linecap:butt;stroke-linejoin:miter;stroke-miterlimit:4;stroke-dasharray:none;stroke-opacity:1"
             d="M 0,0 27.999,0 M -31.112,0 -3.111,0" /></g><g
           transform="translate(620.667,133.333)"
           id="g202"><path
             id="path204"
             style="fill:none;stroke:#ffffff;stroke-width:2;stroke-linecap:butt;stroke-linejoin:miter;stroke-miterlimit:4;stroke-dasharray:none;stroke-opacity:1"
             d="M 0,0 27.999,0 M -31.112,0 -3.111,0" /></g><g
           transform="translate(640.8877,127.1113)"
           id="g206"><path
             id="path208"
             style="fill:none;stroke:#ffffff;stroke-width:2;stroke-linecap:butt;stroke-linejoin:miter;stroke-miterlimit:4;stroke-dasharray:none;stroke-opacity:1"
             d="m 0,0 0,-14 m -6.221,14 0,-14 12.445,0 0,14 m -17.113,-14 -7.776,0 0,6.223 12.444,0 M -45.11,-14 l 3.111,0 m -7.778,-1.555 0,7.778 12.445,0 0,-6.223 12.444,0 0,6.223 -7.777,0 m -18.668,6.22 40.444,0" /></g><g
           transform="translate(280.5928,158.1816)"
           id="g210"><path
             id="path212"
             style="fill:#db2226;fill-opacity:1;fill-rule:nonzero;stroke:none"
             d="M 0,0 C 23.953,-7.783 49.679,5.325 57.462,29.277 63.143,46.762 57.77,65.947 43.835,77.938 59.296,55.058 53.283,23.975 30.404,8.514 21.454,2.468 10.787,-0.521 0,0" /></g><g
           transform="translate(338.917,166.9297)"
           id="g214"><path
             id="path216"
             style="fill:#db2226;fill-opacity:1;fill-rule:nonzero;stroke:none"
             d="M 0,0 C 18.266,10.557 24.513,33.919 13.957,52.184 8.781,61.138 0.197,67.61 -9.835,70.123 12.238,53.528 16.678,22.183 0.083,0.111 0.055,0.073 0.028,0.037 0,0" /></g><g
           transform="translate(308,150)"
           id="g218"><path
             id="path220"
             style="fill:#db2226;fill-opacity:1;fill-rule:nonzero;stroke:none"
             d="M 0,0 -2.5,50 0,89.364 C 1.519,87.242 3.549,85.538 5.901,84.41 l 0,-29.39 L 3.892,5.354 0,0 Z" /></g><g
           transform="translate(307,242.4995)"
           id="g222"><path
             id="path224"
             style="fill:#db2226;fill-opacity:1;fill-rule:nonzero;stroke:none"
             d="m 0,0 1,-0.938 c 2.293,-3.26 6.794,-4.043 10.053,-1.751 2.733,1.922 3.789,5.47 2.552,8.575 C 12.905,2.185 9.337,-0.25 5.637,0.449 3.687,0.817 1.994,2.015 1,3.732" /></g><g
           transform="translate(335.4082,158.1816)"
           id="g226"><path
             id="path228"
             style="fill:#db2226;fill-opacity:1;fill-rule:nonzero;stroke:none"
             d="m 0,0 c -23.953,-7.783 -49.68,5.325 -57.463,29.277 -5.681,17.485 -0.307,36.67 13.627,48.661 C -59.297,55.058 -53.284,23.975 -30.404,8.514 -21.455,2.468 -10.789,-0.521 0,0" /></g><g
           transform="translate(277.083,166.9297)"
           id="g230"><path
             id="path232"
             style="fill:#db2226;fill-opacity:1;fill-rule:nonzero;stroke:none"
             d="M 0,0 C -18.264,10.557 -24.513,33.919 -13.957,52.184 -8.782,61.138 -0.198,67.61 9.835,70.123 -12.237,53.528 -16.678,22.183 -0.083,0.111 -0.056,0.073 -0.028,0.037 0,0" /></g><g
           transform="translate(308,150)"
           id="g234"><path
             id="path236"
             style="fill:#db2226;fill-opacity:1;fill-rule:nonzero;stroke:none"
             d="M 0,0 2.5,50 0,89.364 C -1.519,87.242 -3.548,85.538 -5.902,84.41 l 0,-29.39 L -3.891,5.354 0,0 Z" /></g><g
           transform="translate(309,242.4995)"
           id="g238"><path
             id="path240"
             style="fill:#db2226;fill-opacity:1;fill-rule:nonzero;stroke:none"
             d="m 0,0 -1,-0.938 c -2.293,-3.26 -6.794,-4.043 -10.053,-1.751 -2.734,1.922 -3.789,5.47 -2.55,8.575 0.698,-3.701 4.265,-6.136 7.966,-5.437 1.949,0.368 3.643,1.566 4.637,3.283" /></g></g></g></g></svg>