<?xml version="1.0" encoding="utf-8" standalone="no"?>
<svg 
     xmlns:svg="http://www.w3.org/2000/svg" xmlns:rdf="http://www.w3.org/1999/02/22-rdf-syntax-ns#" xmlns:cc="http://creativecommons.org/ns#" xmlns:dc="http://purl.org/dc/elements/1.1/"
	 xmlns="http://www.w3.org/2000/svg" 
     viewBox="0 0 800 533.33"
     height="533.33"
     width="800" 
     xml:space="preserve"
     version="1.1"
	 id="svg2" >
<rect id="back" x="0" y="0" fill="#FFFFFF" width="800" height="533.33"/>
<polygon id="f20" fill="#222221" points="262.58,96.76 191.15,206.94 173.39,195.64 244.83,85.46 "/>
<polygon id="f19" fill="#222221" points="193.97,481.37 122.54,371.2 140.3,359.9 211.73,470.07 "/>
<polygon id="f18" fill="#222221" points="562.84,79.81 634.68,189.99 652.04,178.69 580.6,68.51 "/>
<polygon id="f17" fill="#222221" points="219.4,68.92 147.97,179.09 165.72,190.39 237.16,80.22 "/>
<polygon id="f16" fill="#222221" points="608.85,206.53 626.61,195.23 593.92,144.39 576.16,156.09 "/>
<polygon id="f15" fill="#222221" points="675.84,371.59 658.09,359.9 624.99,410.75 642.75,422.05 "/>
<polygon id="f14" fill="#222221" points="219.4,464.83 237.16,453.52 204.07,402.67 186.31,414.38 "/>
<polygon id="f13" fill="#222221" points="660.11,173.44 677.46,162.14 644.77,111.29 627.01,122.99 "/>
<polygon id="f12" fill="#222221" points="624.59,338.1 607.24,326.8 574.15,377.65 591.9,388.95 "/>
<polygon id="f11" fill="#222221" points="650.42,355.05 632.67,343.35 599.57,394.2 617.33,405.5 "/>
<polygon id="f10" fill="#222221" points="570.51,147.21 588.27,135.91 555.18,85.06 537.42,96.76 "/>
<polygon id="f9" fill="#222221" points="637.1,430.93 619.35,419.22 586.66,470.07 604.01,481.37 "/>
<polygon id="f8" fill="#222221" points="180.66,405.5 198.41,394.2 165.72,343.35 147.97,354.65 "/>
<polygon id="f7" fill="#222221" points="621.36,114.12 639.12,102.82 606.03,51.97 588.27,63.67 "/>
<polygon id="f6" fill="#222221" points="586.25,397.83 568.5,386.13 535.4,436.98 553.16,448.28 "/>
<polygon id="f5" fill="#222221" points="611.68,414.38 593.92,402.67 561.23,453.52 578.59,464.83 "/>
<polygon id="f4" fill="#222221" points="211.73,63.67 139.9,173.85 122.54,162.55 193.97,52.37 "/>
<polygon id="f3" fill="#222221" points="244.83,448.28 173.39,338.1 191.15,326.8 262.58,436.98 "/>
<path id="f2" fill="#C2121B" d="M365.24,138.21c-13.25,3.66-26.48,9.88-37.91,17.61c-11.82,7.87-21.71,17.63-30.44,28.28
	c-8.22,10.9-14.91,22.56-19.55,35.23s-6.97,25.83-7.77,39.75c-0.55,13.4,1.21,27.3,5,40.93c3.8,13.63,9.88,26.48,17.74,38.29
	c7.74,11.43,17.25,21.83,28.15,30.05c10.53,8.36,22.57,14.92,35.23,19.55c12.67,4.64,25.96,7.35,39.36,7.9
	c13.79,0.42,27.82-0.95,41.31-5.13c13.24-3.66,26.48-9.88,37.91-17.61c11.82-7.86,21.84-17.24,30.44-28.28
	c8.36-10.52,14.91-22.56,19.54-35.23c4.65-12.66,6.98-25.82,7.91-39.36c0.42-13.79-1.33-27.68-5-40.93
	c-3.79-13.63-9.88-26.48-17.74-38.3c-7.87-11.81-17.25-21.83-28.16-30.05c-11.03-8.6-22.69-15.29-35.23-19.55
	c-12.66-4.64-25.96-7.35-39.75-7.77C392.77,132.67,378.88,134.42,365.24,138.21L365.24,138.21z"/>
<path id="f1" fill="#3A4A94" d="M272.98,234.04c-1.99,7.93-2.95,16.35-3.4,25.04c-0.55,13.4,1.21,27.3,5,40.93
	c3.8,13.63,9.88,26.48,17.74,38.29c7.74,11.43,17.25,21.83,28.15,30.05c10.53,8.36,22.57,14.92,35.23,19.55
	c12.67,4.64,25.96,7.35,39.36,7.9c13.79,0.42,27.82-0.95,41.31-5.13c13.24-3.66,26.48-9.88,37.91-17.61
	c11.82-7.86,21.84-17.24,30.44-28.28c8.36-10.52,14.91-22.56,19.54-35.23c0.12-0.89,0.63-1.91,1-3.32c0,0-0.13-0.38,0.25-0.51
	c1.12-4.22,1.86-8.3,2.22-12.27c0.6-5.74,0.31-11.61-0.75-17.21c-0.55-5.37-2.37-10.71-4.58-15.93c-1.3-2.54-2.58-5.08-3.88-7.63
	c-1.67-2.41-3.22-4.45-4.9-6.86c-1.93-1.9-3.6-4.31-5.91-6.09c-1.93-1.9-3.86-3.8-6.17-5.57c-2.17-1.39-4.87-3.03-7.05-4.42
	c-2.56-1.26-5.12-2.52-7.68-3.78c-5.37-2.01-10.49-3.25-16.24-3.85c-5.49-1.11-11.36-0.81-17.11-0.14
	c-5.22,0.93-10.7,2.37-15.92,4.57c-2.67,0.91-5.22,2.21-7.76,3.5s-4.95,2.97-6.99,4.52c-2.29,2.06-4.32,3.6-6.6,5.66
	c-1.9,1.93-3.8,3.85-6.08,7.19c-2.27,3.34-4.54,7.94-6.68,12.94c-2.52,5.12-5.04,10.24-7.18,13.96c-2.15,3.71-3.53,5.9-5.31,8.21
	c-1.77,2.3-3.67,4.24-5.58,6.16c-1.9,1.93-4.19,3.98-6.6,5.66c-2.03,1.54-4.45,3.21-6.99,4.51c-2.41,1.68-4.96,2.97-7.63,3.88
	c-4.84,2.08-10.31,3.51-16.05,4.19c-5.61,1.06-11.23,0.84-16.97,0.24c-5.75-0.6-10.99-2.22-16.36-4.23
	c-2.43-0.88-4.99-2.14-7.17-3.52c-2.56-1.26-4.87-3.03-7.18-4.8c-2.18-1.39-4.49-3.16-6.41-5.06c-2.06-2.28-3.98-4.19-5.66-6.6
	c-1.93-1.9-3.6-4.32-4.9-6.86c-1.68-2.42-2.97-4.96-4.13-7.12c-1.83-5.35-3.65-10.69-4.71-16.3c-0.67-4.46-1.35-11.48-1.13-17.09
	C273.5,235.57,273.24,234.81,272.98,234.04L272.98,234.04z"/>
</svg>
