<?xml version="1.0" encoding="UTF-8" standalone="no"?>
<svg
   xmlns:dc="http://purl.org/dc/elements/1.1/"
   xmlns:cc="http://creativecommons.org/ns#"
   xmlns:rdf="http://www.w3.org/1999/02/22-rdf-syntax-ns#"
   xmlns:svg="http://www.w3.org/2000/svg"
   xmlns="http://www.w3.org/2000/svg"
   viewBox="0 0 800 533.33331"
   height="533.33331"
   width="800"
   xml:space="preserve"
   version="1.1"
   id="svg2"><metadata
     id="metadata8"><rdf:RDF><cc:Work
         rdf:about=""><dc:format>image/svg+xml</dc:format><dc:type
           rdf:resource="http://purl.org/dc/dcmitype/StillImage" /></cc:Work></rdf:RDF></metadata><defs
     id="defs6"><clipPath
       id="clipPath18"
       clipPathUnits="userSpaceOnUse"><path
         id="path20"
         d="M 0,400 600,400 600,0 0,0 0,400 Z" /></clipPath></defs><g
     transform="matrix(1.3333333,0,0,-1.3333333,0,533.33333)"
     id="g10"><path
       id="path12"
       style="fill:#1e703e;fill-opacity:1;fill-rule:nonzero;stroke:none"
       d="M 0,0 600,0 600,400 0,400 0,0 Z" /><g
       id="g14"><g
         clip-path="url(#clipPath18)"
         id="g16"><g
           transform="translate(377.4941,107.0645)"
           id="g22"><path
             id="path24"
             style="fill:#ffffff;fill-opacity:1;fill-rule:nonzero;stroke:none"
             d="m 0,0 c 0.009,0.004 0.017,-0.004 0.025,0 7.306,-0.355 14.17,-0.068 21.475,-0.425 1.158,-0.984 0.579,-3.239 -0.175,-3.649 -0.033,-0.018 -0.091,-0.041 -0.125,-0.051 -0.027,-0.006 -0.072,0.001 -0.099,0 -0.028,0.001 -0.074,-0.006 -0.101,0 -2.375,0.06 -3.749,0.115 -6.125,0.176 -0.004,0.117 -0.017,0.245 -0.05,0.349 -0.563,1.669 -4.64,1.557 -5.599,0.25 C 9.212,-3.368 9.188,-3.405 9.176,-3.425 9.16,-3.45 9.139,-3.498 9.125,-3.524 9.109,-3.559 9.087,-3.614 9.075,-3.649 9.061,-3.699 9.058,-3.772 9.051,-3.824 9.044,-3.885 9.02,-3.961 9.025,-4.024 5.818,-4.41 2.933,-3.918 -0.274,-3.8 -1.215,-2.629 -1.105,-0.509 0,0 m -3.399,18.075 c -0.007,-0.003 -0.019,-0.02 -0.026,-0.024 -4.742,-1.217 -4.595,-6.141 -1.55,-8.301 -50.076,0 -126.919,0.851 -143.4,0.851 -9.22,0 -38.39,1.099 -38.95,1.099 6.256,-9.149 15.318,-11.013 27.175,-11.2 22.242,0 125.296,0.275 154.624,0.275 -2.084,-3.701 0.19,-9.659 1.825,-10.75 0.035,-0.022 0.092,-0.057 0.125,-0.075 0.06,-0.03 0.141,-0.059 0.2,-0.075 0.02,-0.004 0.056,0.003 0.075,0 1.942,-0.457 2.796,0.948 3.449,1.976 3.151,-0.278 20.879,-0.535 22.5,0.024 0.006,0.003 0.02,0.023 0.026,0.025 1.097,-1.615 2.186,-3.141 4.275,-2.875 3.655,0.784 6.534,1.182 6.625,8.6 0,0 -0.374,12.642 -8.676,11.85 -1.963,-0.297 -7.474,-0.85 -7.474,-0.85 -6.377,0.758 -11.056,0.836 -18.225,1.1 0.661,0.84 1.83,4.243 0.4,5.474 -0.372,0.311 -0.929,0.484 -1.701,0.426 l -0.024,0 c -0.011,0 -0.039,-0.002 -0.05,0 -0.006,10e-4 -0.019,0.023 -0.025,0.024 -0.021,0.007 -0.056,0.014 -0.075,0.026 -0.038,0.026 -0.089,0.083 -0.125,0.125 -0.009,0.011 -0.041,0.038 -0.05,0.05 -0.362,0.528 -0.561,1.822 -0.8,2.15 -0.003,0.003 -0.022,0.021 -0.025,0.024 -0.003,0.003 -0.022,0.023 -0.025,0.026 -0.009,0.005 -0.041,0.021 -0.051,0.024 l -0.023,0 c -0.004,0 -0.023,10e-4 -0.025,0 l 10e-4,10e-4 z m 42.832,86.72 c -0.594,-0.018 -1.22,-0.1 -2.125,-0.175 -0.98,-0.208 -1.323,-0.637 -1.5,-1.824 0.07,-1.802 1.171,-1.713 2.299,-2.425 0.654,-0.832 1.079,-1.584 -0.049,-2.95 -1.07,-0.98 -1.831,-1.521 -2.901,-2.5 -0.505,-0.862 -0.819,-2.184 0.726,-2.6 2.85,-0.801 9.449,3.485 9.449,3.575 1.069,0.801 0.715,2.325 0.625,2.325 -0.623,0.712 -2.03,0.284 -2.976,0.4 -0.45,0 -1.926,0.218 -1.224,1.525 0.587,0.812 0.803,1.298 1.2,2.3 0.445,0.979 0.054,1.639 -1.551,2.175 -0.816,0.148 -1.381,0.192 -1.974,0.175 l 10e-4,-0.001 z m -102.529,3.825 c -0.349,0.019 -0.721,-0.036 -1.099,-0.225 -0.075,0 -3.366,-2.225 -4.426,-3.775 -0.647,-0.492 -0.573,-0.919 -0.375,-1.775 0.504,-1.158 1.392,-0.795 2.4,-0.25 1.338,0.183 1.985,-0.694 1.875,-2.3 -0.617,-2.003 0.276,-2.749 0.276,-2.875 0,-0.125 1.288,-1.232 2.799,-0.35 3.192,1.219 5.181,2.404 9.65,3.375 1.174,0.023 1.105,3.163 -0.75,3.275 -2.421,-0.121 -4.654,-0.245 -7.074,-2.15 -1.491,-0.344 -1.746,0.562 -2.076,1.375 -0.377,2.017 0.852,3.439 0.6,4.95 0.067,-0.066 -0.751,0.669 -1.8,0.725 m -160.128,9.833 c -0.199,-0.007 -0.597,-0.601 -1.125,-1.275 -4.7,-7.489 -5.118,-18.666 -2.525,-22 1.378,-1.576 3.65,-2.269 5.325,-1.775 2.953,1.28 4.251,7.261 3.55,9.449 -0.985,1.543 -1.766,1.787 -2.75,0.475 -2.078,-4.219 -2.942,-1.333 -3.125,1.025 -0.318,4.471 0.115,8.588 0.6,11.849 0.259,1.672 0.25,2.257 0.05,2.25 l 0,0.002 z m 124.752,5.425 c 0.095,0.006 0.178,-0.001 0.275,0 l 0.05,0 c 3.184,-0.866 7.876,-0.955 11.951,-1.375 3.318,-0.211 4.957,-2.809 1.849,-3.9 -3.065,-1.05 -6.01,-1.871 -6.025,-6.3 0.404,-2.196 0.318,-3.347 -0.024,-3.875 -0.027,-0.041 -0.07,-0.093 -0.1,-0.125 l -0.025,-0.025 c -0.005,-0.005 -0.021,-0.021 -0.025,-0.025 -0.004,-0.005 -0.02,-0.022 -0.025,-0.025 l -0.025,-0.025 c -0.009,-0.005 -0.041,-0.021 -0.05,-0.025 -0.045,-0.029 -0.101,-0.058 -0.15,-0.075 -0.043,-0.015 -0.104,-0.018 -0.15,-0.025 -0.729,-0.107 -1.787,0.587 -2.575,1 -1.89,1.357 -7.195,4.644 -7.95,11.7 -0.108,1.592 1.085,2.965 3,3.1 l -10e-4,0 z m -51.075,6.975 c -1.242,-0.088 -2.349,-0.751 -1.85,-2.5 -0.075,-1.27 3.508,-2.813 3.725,-5.75 0.512,-1.211 -0.766,-5.09 0.3,-5.45 0.979,-0.403 2.337,2.681 2.85,5.55 0.284,1.571 -1.229,7.068 -3.8,8.049 -0.394,0.085 -0.811,0.129 -1.225,0.1 l 0,0.001 z m 170.649,7.699 c -1.406,-0.173 -2.742,-1.501 -2.125,-3.625 -0.386,-1.247 1.905,-5.609 2.5,-7.924 0.534,-1.649 -0.689,-6.311 0.424,-6.8 1.025,-0.55 3.72,2.767 3.625,6.925 0.297,2.137 -0.762,10.013 -3.45,11.35 -0.309,0.086 -0.65,0.115 -0.974,0.075 l 0,-0.001 z m -200.929,3.144 c 0.775,-0.008 1.592,-0.391 2.025,-1.474 0.39,-0.995 0.018,-2.035 -0.45,-2.551 -0.002,-0.004 0.002,-0.021 0,-0.025 -0.007,-0.011 -0.017,-0.039 -0.025,-0.049 -0.331,-0.428 -1.495,-0.25 -2.325,-0.25 -1.003,0.044 -1.498,0.209 -2.1,1.025 -0.288,0.906 0.589,1.798 0.975,2.475 0.004,0.006 0.021,0.018 0.025,0.025 0.042,0.063 0.111,0.138 0.175,0.199 0.3,0.275 0.819,0.532 1.375,0.6 0.108,0.014 0.215,0.027 0.325,0.025 m -25.6,3.551 c -7.901,-0.145 -19.47,-10.357 -19.775,-16.025 8.337,4.003 16.525,7.857 25,12 -1.368,2.041 -0.083,3.881 -5.225,4.025 m 133.529,2.75 c 0.621,0.065 1.437,-0.146 2.224,-0.601 1.139,-0.658 1.84,-1.652 1.75,-2.375 -0.003,-0.019 0.004,-0.055 0,-0.075 -0.005,-0.019 -0.045,-0.056 -0.05,-0.074 -0.006,-0.019 -0.018,-0.058 -0.025,-0.076 -0.005,-0.011 -0.02,-0.038 -0.024,-0.049 -0.006,-0.012 -0.02,-0.039 -0.026,-0.051 -0.037,-0.06 -0.098,-0.125 -0.15,-0.175 -0.547,-0.51 -1.81,-0.438 -3,0.25 -1.128,0.653 -1.824,1.655 -1.75,2.375 0.003,0.02 0.022,0.056 0.025,0.076 0.019,0.089 0.055,0.171 0.1,0.25 0.016,0.028 0.031,0.074 0.051,0.099 0.003,0.005 0.019,0.02 0.024,0.026 0.034,0.039 0.085,0.091 0.125,0.125 0.182,0.142 0.438,0.244 0.726,0.275 m 95.967,1.607 c -0.083,0.015 -0.178,0.01 -0.275,-0.025 0,0 -15.247,-10.847 -15.625,-11.225 -1.512,-1.343 -0.755,-6.07 0,-5.524 1.093,-0.42 16.443,9.982 16.151,11.2 0.668,-0.04 0.991,5.351 -0.25,5.574 l -0.001,0 z m -110.376,4.525 c -0.594,-0.103 -1.167,-0.592 -1.375,-1.4 -0.131,-0.529 0.253,-1.408 -0.225,-1.675 -0.275,-0.277 -1.343,-0.116 -1.3,1.35 0,0.467 -0.343,0.979 -0.55,1.275 -0.207,0.136 -0.323,0.175 -0.7,0.175 -0.459,-0.018 -0.473,-0.139 -0.725,-0.525 -0.106,-0.392 -0.25,-0.779 -0.25,-1.225 -0.057,-0.521 -0.241,-0.698 -0.625,-0.775 -0.429,0 -0.328,-0.046 -0.674,0.175 -0.207,0.226 -0.476,0.315 -0.476,0.7 0,0.4 -0.079,1.037 -0.2,1.3 -0.182,0.241 -0.495,0.341 -0.824,0.425 -1.798,-0.006 -1.904,-2.047 -1.801,-2.825 -0.135,-0.146 -0.226,-3.832 2.225,-4.85 3.291,-1.568 11.133,-0.645 9.225,4.425 0,0.47 -0.128,2.046 -0.175,2.475 -0.336,0.783 -0.956,1.078 -1.55,0.975 m -27.35,4.3 c -0.043,-0.015 -0.086,-0.052 -0.125,-0.075 -0.02,-0.011 -0.056,-0.036 -0.075,-0.05 -0.322,-0.241 -0.701,-0.799 -1.55,-1.4 -1.432,-1.628 -1.688,-2.761 -1.6,-6.025 0.082,-0.345 2.717,-7.673 4.949,-12.824 1.506,-5.355 2.899,-11.485 1.875,-17.276 -3.524,-7.654 -10.609,-14.52 -17.449,-18.249 -3.484,-1.116 -6.493,-0.737 -7.3,0.024 -0.006,0.008 -0.019,0.02 -0.025,0.025 -2.001,1.346 -2.047,3.741 -1.925,4.15 l 0,0.025 c 0.005,0.006 0.021,0.021 0.026,0.025 5.771,4.021 12.362,7.274 17.524,18.125 1.524,4.147 1.989,6.638 0.476,13.05 -0.591,2.389 -1.321,4.356 -2.951,6.05 0.003,0.005 0.021,0.02 0.025,0.025 0.982,0.47 3.532,-1.407 3.926,-0.225 -0.604,3.062 -2.678,7.172 -5.026,9.275 -2.056,1.868 -4.293,2.084 -6.175,0.375 -2.12,-1.18 -2.571,-5.416 -1.549,-9.125 1.132,-2.791 4.193,-3.281 6.375,-8.9 0,-0.005 -0.001,-0.023 0,-0.024 0.044,-0.353 0.748,-4.195 -0.351,-5.751 -0.892,-2.779 -12.339,-11.807 -13.15,-12.35 -0.009,-0.009 -0.067,-0.042 -0.076,-0.05 -0.004,-0.004 -0.02,-0.021 -0.025,-0.025 -0.002,-0.001 -0.019,-0.02 -0.024,-0.025 -0.003,-0.002 -0.023,-0.022 -0.025,-0.025 l -0.025,0 -0.025,0 c -0.005,0.004 -0.021,0.021 -0.025,0.025 l 0,0.025 c -0.005,0.009 -0.021,0.041 -0.025,0.05 -0.035,0.225 0.026,0.8 0,1.725 -0.076,1.692 0.625,5.518 0.575,6.175 l 0,0.025 c -0.005,0.005 -0.02,0.021 -0.025,0.025 l 0,0.025 -0.025,0 c -3.784,-2.443 -5.034,-9.933 -5.725,-12.15 -9.58,-6.62 -20.459,-11.544 -26.725,-18.25 -3.263,-5.096 22.484,5.852 25.475,7.175 0.026,-0.019 0.052,-0.05 0.076,-0.075 0.568,-0.626 0.617,-2.808 2.324,-4.775 2.677,-3.625 8.365,-5.858 13.9,-4.475 9.283,3.355 14.631,9.682 20.075,16.7 0.779,1.132 1.999,2.024 3.125,1.15 3.743,-8.376 14.529,-14.336 28.475,-14.95 3.228,3.924 1.685,5.854 0.375,6.674 -0.402,0.268 -6.936,2.815 -7.95,5.35 -0.638,2.36 0.914,4.453 4.025,6.025 8.955,1.084 17.757,2.286 26.276,5.026 0.086,2.861 1.772,7.141 2.899,9 0.785,1.289 1.288,1.417 1.477,1.599 0.005,0.008 0.019,0.018 0.023,0.026 0.004,0.003 0.023,0.021 0.025,0.025 0.006,0.004 0.022,0.021 0.026,0.025 l 0,0.049 c 0.004,0.057 0,0.155 -0.026,0.25 l -1.45,0.85 -28.575,0.125 c -0.353,0.137 -0.615,0.273 -0.774,0.4 -0.012,0.011 -0.04,0.04 -0.051,0.051 -0.004,0.004 -0.02,0.019 -0.025,0.025 -0.005,0.004 -0.02,0.019 -0.025,0.024 -0.003,0.009 -0.02,0.042 -0.024,0.051 -0.002,0.002 -0.022,0.022 -0.026,0.025 l 0,0.025 c -10e-4,0.002 -0.021,0.022 -0.025,0.024 l 0,0.025 0,0.025 0,0.025 c 0,0.005 10e-4,0.022 0,0.025 10e-4,0.001 10e-4,0.02 0,0.025 0,0.003 10e-4,0.022 0,0.025 0,0.003 10e-4,0.022 0,0.025 0,0.003 10e-4,0.022 0,0.025 0.006,0.005 0.021,0.02 0.025,0.025 0.007,0.013 0.018,0.037 0.026,0.05 0.139,0.188 0.478,0.366 0.899,0.525 6.824,0.93 18.946,2.917 19.751,14.575 -0.126,6.073 -2.599,10.049 -10.049,11.15 -5.475,-0.423 -9.381,-5.718 -8.751,-11.55 -0.262,-1.57 0.531,-4.651 -1.075,-5 -10.502,-0.959 -21.965,-7.54 -22.351,-12.249 -0.001,0 -0.022,0 -0.025,0 -0.003,-0.005 -0.02,-0.021 -0.024,-0.025 -0.008,-0.004 -0.037,-0.018 -0.051,-0.025 -0.008,0 -0.04,0 -0.05,0 -0.016,-0.006 -0.058,-0.021 -0.075,-0.026 -0.004,0 -0.018,0.001 -0.024,0 -0.015,0.001 -0.041,0 -0.05,0 -0.005,0.001 -0.019,0.001 -0.025,0 -0.01,0 -0.041,0 -0.05,0 -0.027,0.006 -0.076,0.02 -0.1,0.026 -0.683,0.189 -1.563,1.317 -1.425,2.9 -0.4,8.141 -3.05,17.354 -7.2,24.449 -1.481,1.481 -2.126,2.081 -2.55,2.15 -0.013,0.002 -0.037,0 -0.05,0 -0.018,0.001 -0.052,0 -0.075,0 -0.004,0 -0.021,0.001 -0.025,0 -0.002,0.001 -0.022,0 -0.025,0 -0.003,-0.001 -0.022,0.001 -0.025,0 l -10e-4,0.001 z m 129.296,10.776 c -1.616,0.078 -3.335,-0.968 -3.776,-3.175 0.007,-1.302 0.588,-2.018 0.476,-3.2 -0.169,-0.676 -0.865,-1.121 -2.526,-0.325 0.26,0.238 -1.075,2.125 -1.075,2.125 -1.295,0.788 -3.023,-0.043 -4.149,-0.776 -0.62,-1.125 -1.077,-3.054 -0.375,-5.024 1.858,-3.434 8.234,-9.295 11.274,-9.351 0.057,3.096 0.359,7.214 0.526,9.775 0.072,0.967 0.298,2.033 1.224,2.275 0.926,0.242 2.533,-0.931 2.551,0.075 -0.169,1.97 -0.562,4.877 -1.676,6.25 -0.57,0.845 -1.505,1.303 -2.474,1.35 l 0,0.001 z m -156.201,0.725 c -0.405,0.041 -0.937,-0.108 -1.549,-0.475 -2.91,-1.575 -4.037,-6.244 -2.225,-8.976 1.692,-2.406 4.368,-1.525 4.725,-1.525 2.851,-0.356 4.549,5.35 4.549,5.35 0,0 0.086,1.605 -3.299,-1.425 -1.425,-0.267 -1.619,0.248 -1.975,1.05 -0.297,1.485 -0.233,2.99 0.45,4.475 0.315,0.891 0.001,1.456 -0.676,1.525 l 0,0.001 z m 110.497,1.1 c -0.595,-0.103 -1.167,-0.618 -1.375,-1.426 -0.13,-0.528 0.253,-1.383 -0.225,-1.649 -0.275,-0.278 -1.344,-0.116 -1.3,1.35 0,0.466 -0.344,0.979 -0.551,1.275 -0.207,0.136 -0.347,0.175 -0.724,0.175 -0.459,-0.019 -0.448,-0.14 -0.7,-0.526 -0.107,-0.392 -0.25,-0.779 -0.25,-1.224 -0.057,-0.522 -0.242,-0.699 -0.625,-0.776 -0.429,0 -0.353,-0.046 -0.701,0.176 -0.206,0.225 -0.449,0.314 -0.449,0.699 0,0.4 -0.105,1.037 -0.225,1.301 -0.182,0.24 -0.47,0.34 -0.8,0.425 -1.798,-0.007 -1.904,-2.047 -1.8,-2.825 -0.136,-0.147 -0.227,-3.833 2.225,-4.85 3.291,-1.57 9.486,-0.881 9.224,4.425 0,0.469 -0.128,2.045 -0.175,2.475 -0.336,0.782 -0.956,1.078 -1.55,0.975 l 10e-4,0 z m -24.201,11.9 c 0.141,-0.627 0.282,-1.259 0.375,-1.9 0.316,-1.386 0.587,-2.761 0.875,-4.125 -1.213,1.67 -2.217,3.021 -2.649,3.5 -2.746,3.263 0.061,2.143 1.399,2.525 m 105.048,2.6 c -1.536,0.053 -3.212,-1.113 -2.55,-3.4 -0.384,-1.248 3.282,-5.484 3.875,-7.8 0.536,-1.648 -0.813,-6.96 0.3,-7.45 1.026,-0.549 2.466,3.67 3,7.575 0.297,2.137 -1.287,9.639 -3.974,10.975 -0.206,0.057 -0.431,0.092 -0.651,0.1 m -189.999,4.925 c 0.767,0.078 1.695,-0.628 2.15,-1.625 0.484,-1.065 0.241,-2.081 -0.55,-2.275 -0.792,-0.195 -1.816,0.51 -2.3,1.575 -0.485,1.064 -0.242,2.105 0.55,2.3 0.049,0.012 0.098,0.019 0.15,0.025 m 102.424,3.6 c -1.686,0.049 -3.552,-1.013 -2.825,-3.125 -0.424,-1.153 3.622,-5.061 4.274,-7.201 1.175,-3.286 -0.896,-6.421 0.325,-6.875 1.124,-0.507 2.689,3.394 3.276,7 0.678,2.917 -1.402,8.892 -4.351,10.125 -0.225,0.053 -0.458,0.068 -0.699,0.075 l 0,0.001 z m -131.472,0.075 c -0.477,-0.061 -1.004,-0.332 -1.625,-0.475 -2.042,-0.65 -3.953,-2.416 -3.35,-5.85 2.413,-14.666 3.987,-25.859 6.4,-40.525 0.371,-1.718 -1.069,-3.982 -2.925,-3.75 -3.156,2.135 -3.94,6.459 -9.325,6.275 -3.899,-0.047 -8.345,-4.289 -8.9,-8.375 -0.65,-3.247 -0.882,-6.769 0,-9.601 2.74,-3.294 6.022,-2.943 8.9,-2.2 2.366,0.975 4.314,3.307 5.15,2.751 0.003,-0.003 0.023,0.003 0.025,0 0.002,-0.004 -0.002,-0.022 0,-0.026 0.516,-0.901 -0.049,-8.529 -11.15,-14.425 -6.823,-3.062 -12.253,-3.795 -15.176,1.775 -1.81,3.482 0.132,16.74 -4.324,13.676 -13.181,-33.974 30.878,-38.716 35.799,-1.4 0.319,1.053 1.29,2.109 1.975,1.85 0.301,-0.128 0.577,-0.536 0.675,-1.3 -1.021,-33.788 -34.084,-36.104 -39.699,-25.476 -1.393,2.507 -1.811,8.083 -1.951,11.425 -0.254,2.022 -0.761,3.189 -1.35,3.65 -1.339,1.007 -3.139,-1.618 -3.525,-6.175 -0.557,-3.665 -0.4,-4.672 -0.4,-8.2 1.764,-26.687 44.311,-15.22 51.226,6.825 3.422,11.397 -0.071,19.995 1.074,21.05 0.01,0.009 0.04,0.018 0.051,0.025 0.01,0.007 0.038,0.019 0.049,0.025 0.012,0.005 0.037,0.021 0.05,0.025 0.039,0.01 0.105,0.025 0.151,0.025 4.223,-4.55 10.15,-0.578 11.449,1 0.557,0.79 1.951,1.296 2.925,0.275 3.295,-2.368 9.069,-1.252 10.275,2.925 0.697,4.084 1.286,8.289 1.425,12.65 -2.146,-0.667 -3.878,-1.166 -4.575,-1.9 -0.166,-0.182 -0.288,-0.383 -0.325,-0.6 -0.186,-1.207 -0.364,-2.418 -0.55,-3.625 -0.02,-0.1 -0.052,-0.192 -0.1,-0.275 -0.091,-0.149 -0.243,-0.285 -0.4,-0.375 -0.759,-0.414 -2.081,-0.178 -2.15,0.925 -1.021,4.641 -5.222,5.245 -7.775,-1.951 -1.717,-1.391 -4.849,-1.663 -5.175,0.426 0.417,4.826 -1.527,5.474 -5.425,3.199 -1.253,9.561 -2.496,18.689 -3.75,28.25 1.625,0.047 3.115,-1.131 4.6,0.725 -1.608,4.999 -5.009,15.17 -6.925,16.125 -0.015,0.007 -0.035,0.019 -0.05,0.025 -0.087,0.104 -0.19,0.201 -0.275,0.275 -0.035,0.03 -0.09,0.075 -0.125,0.1 -0.035,0.024 -0.09,0.055 -0.125,0.075 -0.077,0.042 -0.173,0.077 -0.25,0.1 -0.175,0.049 -0.344,0.073 -0.525,0.05 l 0.001,0.002 z m -33.725,0.05 c -0.93,-0.109 -1.804,-0.867 -2.225,-1.876 -0.156,-3.569 -0.177,-7.136 0.225,-10.424 1.623,-5.769 2.137,-10.843 2.925,-16.751 0.218,-7.913 -4.569,-3.423 -4.35,0.5 1.105,5.096 0.807,13.117 -0.175,15.151 -0.779,2.032 -1.681,2.534 -3.575,2.199 -1.504,0.092 -5.389,-4.14 -6.475,-11.15 0,0 -0.905,-3.597 -1.3,-6.8 -0.532,-3.619 -2.93,-6.183 -4.6,0.5 -1.444,4.858 -2.332,16.825 -4.75,14.025 -0.693,-9.345 -1.516,-25.788 6.425,-27.475 9.604,-0.924 4.299,16.235 7.775,19.35 0.657,1.54 1.875,1.567 1.975,-0.375 l 0,-14.575 c -0.088,-4.738 3.03,-6.146 5.45,-7.125 2.518,0.194 4.187,0.125 5.175,-2.325 0.393,-8.401 0.806,-16.824 1.2,-25.225 0,0 5.822,-1.673 6.1,14.175 0.279,9.306 -1.853,17.115 -0.6,18.925 0.044,1.779 2.324,1.867 3.9,1 2.51,-1.77 3.623,-3.95 7.525,-3.075 5.936,1.635 9.512,4.517 9.6,9.075 -0.347,4.332 -0.848,8.669 -2.725,13 0.262,0.788 -1.136,2.838 -0.875,3.625 1.067,-1.671 2.68,-1.532 3.05,0 -1.01,3.33 -2.583,6.52 -5.125,7.9 -2.101,1.851 -5.174,1.46 -6.3,-2.4 -0.522,-4.446 1.612,-9.717 4.85,-14.024 0.688,-1.683 1.65,-4.482 1.225,-7 -1.723,-0.984 -3.432,-0.574 -4.875,0.95 0,0 -4.725,3.537 -4.725,4.325 1.254,8.028 0.27,8.947 -0.425,11.175 -0.486,3.075 -1.943,4.049 -3.125,6.149 -1.182,1.254 -2.786,1.254 -3.55,0 -2.089,-3.62 -1.109,-11.393 0.4,-14.875 1.09,-3.201 2.762,-5.199 1.975,-5.199 -0.648,-1.81 -2,-1.389 -2.975,0.699 -1.392,4.317 -1.675,10.75 -1.675,13.65 -0.418,3.596 -0.883,11.276 -3.25,13.225 -0.631,0.86 -1.377,1.16 -2.1,1.075 l 0,0.001 z m 178.775,0.679 c -0.33,-0.032 -0.732,-0.542 -1.349,-1.85 -1.484,-2.43 -2.492,-6.662 -2.375,-10.624 3.213,-22.251 4.2,-41.724 6.299,-63.976 0.171,-2.152 -0.144,-5.278 -1.575,-6.525 -5.291,-5.525 -12.92,-12.339 -21.224,-15.475 -0.893,-1.003 2.221,-5.278 6.251,-5.275 6.736,0.783 12.657,4.564 18.149,14.525 1.469,2.323 4.05,7.295 4.125,11.15 0.514,22.598 -1.139,40.168 -4.524,56.501 -0.218,1.59 -0.07,3.472 0.2,3.949 0.435,0.521 1.915,-0.011 2.699,1.275 1.152,1.176 -3.074,10.924 -5.475,14.676 -0.479,0.942 -0.775,1.692 -1.2,1.65 l -0.001,-0.001 z m -115.399,0.05 c -1.137,-0.057 -2.141,-0.384 -3,-0.825 -2.181,-2.088 -2.693,-5.436 -0.975,-7.524 1.672,-0.789 3.339,-2.473 2.225,-3.4 -4.727,-5.05 -17.03,-13.486 -17.65,-15.025 -0.005,-0.013 -0.022,-0.038 -0.025,-0.05 -0.001,-0.011 0,-0.04 0,-0.05 10e-4,-0.005 -0.001,-0.02 0,-0.025 0.004,-0.013 0.018,-0.04 0.025,-0.05 0.003,-0.003 0.021,-0.022 0.025,-0.025 0.004,-0.002 0.021,0.002 0.025,0 0.005,-0.002 0.02,-0.023 0.025,-0.025 0.006,-0.002 0.019,0.001 0.025,0 l 0.025,-0.025 c 0.625,-0.419 8.323,-0.409 9.175,-0.025 0.006,0.003 0.02,0.022 0.025,0.025 0.002,0.001 0.023,-0.002 0.025,0 10e-4,0.001 -0.002,0.023 0,0.025 2.645,0.975 15.2,15.325 15.2,15.325 -0.65,0.557 -1.25,0.968 -1.9,1.525 -0.697,0.603 -0.627,1.196 0,1.8 3.109,1.809 2.125,5.791 0.5,7.6 -1.346,0.603 -2.613,0.808 -3.75,0.75 l 0,-0.001 z m -44.151,0.05 c -0.593,-0.103 -1.167,-0.592 -1.375,-1.399 -0.131,-0.53 0.229,-1.409 -0.25,-1.676 -0.275,-0.277 -1.318,-0.091 -1.275,1.375 0,0.467 -0.342,0.955 -0.549,1.25 -0.209,0.137 -0.349,0.176 -0.725,0.176 -0.459,-0.019 -0.449,-0.14 -0.701,-0.526 -0.111,-0.391 -0.256,-0.775 -0.256,-1.223 -0.057,-0.522 -0.266,-0.699 -0.65,-0.775 -0.429,0 -0.327,-0.047 -0.675,0.174 -0.206,0.227 -0.45,0.315 -0.45,0.701 0,0.399 -0.104,1.036 -0.225,1.299 -0.182,0.241 -0.47,0.366 -0.8,0.451 -1.797,-0.007 -1.928,-2.072 -1.825,-2.85 -0.134,-0.147 -0.201,-3.808 2.25,-4.826 3.292,-1.568 9.462,-0.905 9.2,4.401 0,0.468 -0.103,2.045 -0.15,2.474 -0.335,0.783 -0.956,1.078 -1.55,0.975 l 0.006,-0.001 z m 172.025,0.476 c -0.279,-0.049 -0.69,-0.472 -1.45,-1.476 -1.882,-6.153 -2.544,-11.178 -1.826,-15 4.834,-25.227 9.787,-48.209 9,-72.224 2.293,-0.015 4.944,5.244 6.076,10.449 0.62,7.171 -0.414,11.536 -0.6,15.751 -0.187,4.214 -4.772,38.411 -5.7,41.6 -1.121,6.029 4.459,0.793 3.849,4.3 -1.928,4.421 -6.742,10.859 -8.25,14.7 -0.566,1.028 -0.635,1.98 -1.099,1.9 m 70.649,0.375 c -0.331,-0.034 -0.733,-0.567 -1.35,-1.875 -1.484,-2.431 -1.994,-6.782 -1.4,-10.625 3.571,-24.163 6.227,-47.56 6.775,-68.976 -0.307,-2.033 -0.397,-3.114 -1.35,-5.675 -2.108,-2.702 -4.435,-6.091 -6.625,-7.725 -2.189,-1.633 -6.851,-3.189 -8.375,-4.4 -4.835,-2.794 -4.859,-6.008 -0.95,-6.125 6.737,0.782 14.709,1.336 20.2,9.625 1.47,2.323 3.199,8.621 3.275,12.475 0.514,22.598 -0.289,44.693 -3.675,61.025 -0.217,1.591 -0.919,5.248 -0.65,5.725 0.436,1.119 2.641,-0.112 3.425,1.176 1.151,1.175 -5.7,9.948 -8.1,13.699 -0.48,0.942 -0.775,1.718 -1.2,1.676 m -277.528,0.031 c -1.45,0.042 -3.049,-0.857 -2.425,-2.6 -0.363,-0.949 2.838,-4.16 3.4,-5.925 0.504,-1.256 -0.5,-5.301 0.55,-5.674 0.966,-0.419 2.294,2.8 2.8,5.775 0.28,1.629 0.068,7.206 -3.725,8.35 -0.194,0.044 -0.393,0.069 -0.6,0.075 l 0,-0.001 z m 243.624,0.25 c -0.407,0.064 -0.851,-0.136 -1.35,-0.875 -0.955,-0.837 -1.981,-2.352 -1.95,-4.299 0.232,-3.432 0.843,-6.945 1.075,-10.375 0.082,-0.46 0.168,-0.917 0.25,-1.375 -0.369,0.47 -0.69,0.837 -0.875,1.024 -6.687,7.026 3.073,1.148 -1.275,6.576 -3.677,4.037 -4.753,5.321 -7.9,7.75 -1.578,1.019 -2.531,2.968 -3.05,-0.35 -0.206,-2.917 -0.421,-6.293 -0.225,-8.751 -0.012,-1.366 1.403,-3.937 2.625,-5.45 4.462,-5.482 9.018,-11.314 13.6,-17.4 0.965,-12.413 1.221,-23.792 2.2,-36.225 -0.139,-5.318 -1.775,-12.381 -3.325,-13.049 0,0 -2.368,-1.361 -3.95,0.15 -1.151,0.461 -5.75,7.675 -5.75,7.675 -2.355,2.157 -3.924,1.541 -5.6,0 -4.62,-4.462 -6.71,-12.819 -9.85,-18.575 -0.809,-1.285 -3.09,-2.378 -5.624,0.1 -6.439,8.796 -2.675,21.318 -3.476,18.1 -5.735,-6.464 -3.195,-17.173 -1.9,-19.476 1.892,-3.782 3.421,-6.204 7.1,-8.075 3.351,-2.466 5.961,-0.927 7.4,0.8 3.372,3.494 3.417,12.432 5,14.2 1.111,3.247 3.893,2.689 5.25,1.25 1.316,-1.891 2.868,-3.121 4.8,-4.15 3.147,-2.774 6.9,-3.279 10.6,-0.75 2.529,1.418 4.17,3.262 5.65,6.9 1.589,4.248 0.803,26.513 0.45,38.9 2.376,-3.346 4.721,-6.766 7.05,-10.225 1.023,-10.873 1.486,-21.58 1.15,-31.849 -0.241,-2.042 7.125,6.095 7.076,9.95 -0.034,3.372 0.007,6.429 0,9.275 3.573,-5.705 7.03,-11.504 10.299,-17.375 2.026,1.073 1.333,12.542 0.051,14.125 -3.423,5.743 -7.805,11.948 -11.2,16.75 -0.671,6.06 -1.585,13.21 -2,15.4 -0.647,3.416 -1.297,8.546 -2.276,12.6 -0.268,1.583 -1.078,6.639 -0.825,7.125 0.399,1.132 1.908,-0.036 2.651,1.275 1.111,1.212 -3.855,14.079 -6.376,17.751 -0.906,1.645 -2.545,1.076 -4.575,-1.601 -1.882,-1.76 -1.193,-5.778 -0.475,-9.6 1.866,-9.738 3.532,-19.657 4.85,-29.55 -2.44,3.628 -5.418,8.017 -8.35,12.25 -0.079,0.408 -0.375,1.904 -0.375,1.925 0,0.175 -0.404,7.967 -0.75,9.825 -0.06,0.754 -0.24,0.97 0.55,0.875 0.838,-0.705 0.952,-0.743 1.475,-0.975 0.846,-0.155 1.585,1.275 1.075,2.6 -2.617,4.826 -5.234,9.673 -7.85,14.5 -0.314,0.31 -0.668,0.636 -1.075,0.699 m -94.4,0.975 c -0.835,-0.075 -1.501,-0.565 -1.75,-1.799 -0.334,-2.904 -0.164,-4.483 0.325,-6.901 0.375,-1.611 2.72,-4.31 3.875,-5.875 5.516,-7.415 10.825,-14.866 15.951,-22.574 0.806,-5.725 1.395,-11.324 1.775,-16.9 0.83,-12.228 1.082,-27.449 0.324,-40.325 2.291,-0.091 5.961,3.698 7.25,9.249 0.838,7.678 -0.297,23.344 -0.375,27.875 -0.054,1.881 -0.169,4.126 -0.299,6.476 5.962,-9.744 11.746,-20.066 17.424,-31.4 2.071,0.983 1.612,12.637 0.4,14.275 -4.544,9.781 -10.822,19.437 -12.824,23.15 -0.723,1.341 -3.184,5.084 -6.1,9.4 -0.538,6.159 -1.12,11.375 -1.5,12.95 -0.937,6.511 2.675,-0.734 2.175,3.051 -1.173,6.501 -4.761,10.92 -9,16.875 -1.367,1.936 -1.34,2.332 -3.45,-0.475 -1.262,-2.862 -1.244,-5.243 -0.875,-7.475 -0.556,0.806 -1.242,1.763 -2.225,2.95 -3.661,3.14 -3.887,3.312 -6.925,5.875 -0.958,0.679 -2.783,1.726 -4.176,1.599 l 0,-0.001 z m -31.849,0.576 c -0.814,-0.071 -1.716,-1.019 -2.45,-2.85 -0.631,-1.393 -1.402,-8.676 -1.275,-8.676 -0.503,-2.167 2.264,-3.086 3.525,-0.3 1.889,5.108 1.898,7.284 2.025,9.45 -0.295,1.65 -1.012,2.446 -1.825,2.375 l 0,0.001 z m 8.623,0.671 c -0.523,-0.07 -1.162,-0.74 -2.05,-2.349 -0.636,-1.687 -3.379,-4.238 -1.4,-9.5 1.621,-3.337 2.286,-8.76 1.55,-14.8 -1.122,-1.717 -1.378,-2.309 -2.85,-4.025 -2.067,-2.223 -4.306,-1.655 -6.025,-0.826 -1.604,1.083 -2.867,1.638 -3.6,5.076 0.133,5.479 0.452,14.447 -0.55,16.35 -1.476,2.948 -3.909,1.89 -4.95,1 -4.997,-4.57 -7.465,-12.285 -8.975,-18.425 -1.385,-4.474 -2.862,-3.18 -3.9,-1.375 -2.525,2.366 -2.701,20.867 -5.75,17.825 -4.881,-13.952 2.802,-29.236 8.125,-27.75 3.841,-1.591 6.278,5.72 7.85,13.724 1.075,2.247 1.898,2.505 2.45,1.35 -0.142,-10.644 0.763,-13.019 3.5,-16.249 6.105,-4.71 11.155,-0.597 11.55,-0.2 l 4.75,4.75 c 1.058,1.112 2.457,1.18 3.95,0.2 1.453,-1.32 1.266,-3.594 4.375,-5.175 2.617,-1.047 8.205,-0.255 9.501,2 1.744,2.989 2.167,4.016 2.974,5.149 1.245,1.658 3.375,0.924 3.375,0.401 -0.198,-0.924 -1.45,-1.836 -0.599,-3.5 1.48,-1.11 1.824,-0.397 2.699,-0.151 3.098,1.481 5.426,8.201 5.426,8.201 0.136,2.506 -1.289,2.316 -2.201,1.799 -1.188,-0.726 -1.26,-0.973 -2.45,-1.699 -1.513,-0.225 -4.447,-1.224 -5.9,1.025 -1.483,2.704 -1.49,6.473 -2.625,9.2 0,0.198 -1.981,4.287 -0.15,4.55 0.925,-0.172 2.912,-0.685 3.225,0.975 0.97,1.618 -2.091,6.209 -4.175,8.525 -1.807,1.985 -4.305,2.227 -6.725,0.2 -1.694,-1.559 -1.442,-3.3 -1.775,-4.95 -0.431,-1.896 -0.348,-4.244 1.575,-6.75 1.691,-3.335 4.764,-7.613 3.75,-13.65 0,0 -1.784,-2.873 -4.925,-2.5 -1.307,0.285 -3.44,0.852 -4.575,9.225 -0.857,6.338 0.216,15.217 -2.475,19.375 -0.607,1.569 -1.128,3.092 -2,2.975 l 0,-0.001 z m -27.25,0.151 c -0.309,0.009 -0.773,-0.164 -1.424,-0.55 -1.463,-0.981 -4.362,-4.001 -4.45,-7.476 -0.089,-1.96 -0.459,-1.952 0.824,-3.199 0.928,-1.338 1.854,-1.206 3.725,-0.225 1.075,0.792 1.439,1.297 1.8,2.625 0.447,2.227 -2.343,-1.054 -2.7,1.424 -0.622,2.302 1.158,3.249 2.85,5.476 0.039,1.048 0.058,1.904 -0.625,1.924 l 0,0.001 z" /></g></g></g></g></svg>