<?xml version="1.0" encoding="UTF-8" standalone="no"?>
<svg
   xmlns:dc="http://purl.org/dc/elements/1.1/"
   xmlns:cc="http://creativecommons.org/ns#"
   xmlns:rdf="http://www.w3.org/1999/02/22-rdf-syntax-ns#"
   xmlns:svg="http://www.w3.org/2000/svg"
   xmlns="http://www.w3.org/2000/svg"
   viewBox="0 0 800 533.33331"
   height="533.33331"
   width="800"
   xml:space="preserve"
   version="1.1"
   id="svg2"><metadata
     id="metadata8"><rdf:RDF><cc:Work
         rdf:about=""><dc:format>image/svg+xml</dc:format><dc:type
           rdf:resource="http://purl.org/dc/dcmitype/StillImage" /></cc:Work></rdf:RDF></metadata><defs
     id="defs6" /><g
     transform="matrix(1.3333333,0,0,-1.3333333,0,533.33333)"
     id="g10"><path
       id="path12"
       style="fill:#1f8847;fill-opacity:1;fill-rule:nonzero;stroke:none"
       d="M 0,0 200,0 200,400 0,400 0,0 Z" /><path
       id="path14"
       style="fill:#fbec50;fill-opacity:1;fill-rule:nonzero;stroke:none"
       d="m 200,0 200,0 0,400 -200,0 0,-400 z" /><path
       id="path16"
       style="fill:#e32d30;fill-opacity:1;fill-rule:nonzero;stroke:none"
       d="m 400,0 200.001,0 0,400 L 400,400 400,0 Z" /><g
       transform="translate(300,266.6665)"
       id="g18"><path
         id="path20"
         style="fill:#1f8847;fill-opacity:1;fill-rule:nonzero;stroke:none"
         d="M 0,0 -20.602,-63.403 11.101,-73.705 0,0 Z" /></g><g
       transform="translate(300,266.6665)"
       id="g22"><path
         id="path24"
         style="fill:#1f8847;fill-opacity:1;fill-rule:nonzero;stroke:none"
         d="M 0,0 20.601,-63.403 -11.101,-73.705 0,0 Z" /></g><g
       transform="translate(363.4033,220.6016)"
       id="g26"><path
         id="path28"
         style="fill:#1f8847;fill-opacity:1;fill-rule:nonzero;stroke:none"
         d="m 0,0 -66.667,0 0,-33.334 L 0,0 Z" /></g><g
       transform="translate(363.4033,220.6016)"
       id="g30"><path
         id="path32"
         style="fill:#1f8847;fill-opacity:1;fill-rule:nonzero;stroke:none"
         d="M 0,0 -53.934,-39.187 -73.527,-12.219 0,0 Z" /></g><g
       transform="translate(339.1855,146.0654)"
       id="g34"><path
         id="path36"
         style="fill:#1f8847;fill-opacity:1;fill-rule:nonzero;stroke:none"
         d="M 0,0 -20.601,63.404 -52.303,53.103 0,0 Z" /></g><g
       transform="translate(339.1855,146.0654)"
       id="g38"><path
         id="path40"
         style="fill:#1f8847;fill-opacity:1;fill-rule:nonzero;stroke:none"
         d="M 0,0 -53.934,39.186 -34.342,66.153 0,0 Z" /></g><g
       transform="translate(260.8145,146.0654)"
       id="g42"><path
         id="path44"
         style="fill:#1f8847;fill-opacity:1;fill-rule:nonzero;stroke:none"
         d="M 0,0 53.935,39.186 34.342,66.153 0,0 Z" /></g><g
       transform="translate(260.8145,146.0654)"
       id="g46"><path
         id="path48"
         style="fill:#1f8847;fill-opacity:1;fill-rule:nonzero;stroke:none"
         d="M 0,0 20.601,63.404 52.303,53.103 0,0 Z" /></g><g
       transform="translate(236.5962,220.6016)"
       id="g50"><path
         id="path52"
         style="fill:#1f8847;fill-opacity:1;fill-rule:nonzero;stroke:none"
         d="M 0,0 53.935,-39.187 73.528,-12.219 0,0 Z" /></g><g
       transform="translate(236.5962,220.6016)"
       id="g54"><path
         id="path56"
         style="fill:#1f8847;fill-opacity:1;fill-rule:nonzero;stroke:none"
         d="m 0,0 66.667,0 0,-33.334 L 0,0 Z" /></g></g></svg>