<?xml version="1.0" encoding="UTF-8" standalone="no"?>
<svg
   xmlns:dc="http://purl.org/dc/elements/1.1/"
   xmlns:cc="http://creativecommons.org/ns#"
   xmlns:rdf="http://www.w3.org/1999/02/22-rdf-syntax-ns#"
   xmlns:svg="http://www.w3.org/2000/svg"
   xmlns="http://www.w3.org/2000/svg"
   viewBox="0 0 800 533.33331"
   height="533.33331"
   width="800"
   xml:space="preserve"
   version="1.1"
   id="svg2"><metadata
     id="metadata8"><rdf:RDF><cc:Work
         rdf:about=""><dc:format>image/svg+xml</dc:format><dc:type
           rdf:resource="http://purl.org/dc/dcmitype/StillImage" /></cc:Work></rdf:RDF></metadata><defs
     id="defs6" /><g
     transform="matrix(1.3333333,0,0,-1.3333333,0,533.33333)"
     id="g10"><path
       id="path12"
       style="fill:#1d1d1d;fill-opacity:1;fill-rule:nonzero;stroke:none"
       d="m 0.516,0 599.485,0 0,400 -599.485,0 0,-400 z" /><path
       id="path14"
       style="fill:#dd2226;fill-opacity:1;fill-rule:nonzero;stroke:none"
       d="m 0.516,0 599.485,0 0,266.666 -599.485,0 L 0.516,0 Z" /><path
       id="path16"
       style="fill:#ffcf1f;fill-opacity:1;fill-rule:nonzero;stroke:none"
       d="m 0.516,0 599.485,0 0,133.335 -599.485,0 L 0.516,0 Z" /><path
       id="path18"
       style="fill:#d6372c;fill-opacity:1;fill-rule:nonzero;stroke:none"
       d="m 0,0 599.484,0 0,400 L 0,400 0,0 Z" /><path
       id="path20"
       style="fill:#ffffff;fill-opacity:1;fill-rule:nonzero;stroke:none"
       d="m 178.646,236 239.793,0 0,-72 -239.793,0 0,72 z" /><path
       id="path22"
       style="fill:#ffffff;fill-opacity:1;fill-rule:nonzero;stroke:none"
       d="m 262.574,320 71.938,0 0,-240 -71.938,0 0,240 z" /></g></svg>