<?xml version="1.0" encoding="UTF-8" standalone="no"?>
<svg
   xmlns:dc="http://purl.org/dc/elements/1.1/"
   xmlns:cc="http://creativecommons.org/ns#"
   xmlns:rdf="http://www.w3.org/1999/02/22-rdf-syntax-ns#"
   xmlns:svg="http://www.w3.org/2000/svg"
   xmlns="http://www.w3.org/2000/svg"
   viewBox="0 0 800 533.33331"
   height="533.33331"
   width="800"
   xml:space="preserve"
   version="1.1"
   id="svg2"><metadata
     id="metadata8"><rdf:RDF><cc:Work
         rdf:about=""><dc:format>image/svg+xml</dc:format><dc:type
           rdf:resource="http://purl.org/dc/dcmitype/StillImage" /></cc:Work></rdf:RDF></metadata><defs
     id="defs6"><clipPath
       id="clipPath18"
       clipPathUnits="userSpaceOnUse"><path
         id="path20"
         d="M 0,400 600,400 600,0 0,0 0,400 Z" /></clipPath></defs><g
     transform="matrix(1.3333333,0,0,-1.3333333,0,533.33333)"
     id="g10"><path
       id="path12"
       style="fill:#e42229;fill-opacity:1;fill-rule:nonzero;stroke:none"
       d="M 0,0 600,0 600,400 0,400 0,0 Z" /><g
       id="g14"><g
         clip-path="url(#clipPath18)"
         id="g16"><g
           transform="translate(300,300)"
           id="g22"><path
             id="path24"
             style="fill:#ffffff;fill-opacity:1;fill-rule:nonzero;stroke:none"
             d="m 0,0 c 55.229,0 100,-44.771 100,-100 0,-55.229 -44.771,-100 -100,-100 -55.229,0 -100,44.771 -100,100 0,55.229 44.771,100 100,100" /></g><g
           transform="translate(300,275)"
           id="g26"><path
             id="path28"
             style="fill:#e42229;fill-opacity:1;fill-rule:nonzero;stroke:none"
             d="m 0,0 c 41.422,0 75,-33.579 75,-75 0,-41.422 -33.578,-75 -75,-75 -41.421,0 -75,33.578 -75,75 0,41.421 33.579,75 75,75" /></g><g
           transform="translate(320,260)"
           id="g30"><path
             id="path32"
             style="fill:#ffffff;fill-opacity:1;fill-rule:nonzero;stroke:none"
             d="m 0,0 c 33.137,0 60,-26.863 60,-60 0,-33.137 -26.863,-60 -60,-60 -33.137,0 -60,26.863 -60,60 0,33.137 26.863,60 60,60" /></g><g
           transform="translate(275,200)"
           id="g34"><path
             id="path36"
             style="fill:#e42229;fill-opacity:1;fill-rule:nonzero;stroke:none"
             d="m 0,0 81.406,26.451 -50.312,-69.249 0,85.596 L 81.406,-26.451 0,0 Z" /></g></g></g></g></svg>