<?xml version="1.0" encoding="UTF-8" standalone="no"?>
<svg
   xmlns:dc="http://purl.org/dc/elements/1.1/"
   xmlns:cc="http://creativecommons.org/ns#"
   xmlns:rdf="http://www.w3.org/1999/02/22-rdf-syntax-ns#"
   xmlns:svg="http://www.w3.org/2000/svg"
   xmlns="http://www.w3.org/2000/svg"
   viewBox="0 0 800 533.33331"
   height="533.33331"
   width="800"
   xml:space="preserve"
   version="1.1"
   id="svg2"><metadata
     id="metadata8"><rdf:RDF><cc:Work
         rdf:about=""><dc:format>image/svg+xml</dc:format><dc:type
           rdf:resource="http://purl.org/dc/dcmitype/StillImage" /></cc:Work></rdf:RDF></metadata><defs
     id="defs6"><clipPath
       id="clipPath26"
       clipPathUnits="userSpaceOnUse"><path
         id="path28"
         d="M 0,400 600,400 600,0 0,0 0,400 Z" /></clipPath></defs><g
     transform="matrix(1.3333333,0,0,-1.3333333,0,533.33333)"
     id="g10"><path
       id="path12"
       style="fill:#ffffff;fill-opacity:1;fill-rule:nonzero;stroke:none"
       d="M 0,0 600,0 600,400 0,400 0,0 Z" /><path
       id="path14"
       style="fill:#2c4997;fill-opacity:1;fill-rule:nonzero;stroke:none"
       d="m 222.223,311.111 377.778,0 0,44.445 -377.778,0 0,-44.445 z" /><path
       id="path16"
       style="fill:#2c4997;fill-opacity:1;fill-rule:nonzero;stroke:none"
       d="m 222.223,222.223 377.778,0 0,44.444 -377.778,0 0,-44.444 z" /><path
       id="path18"
       style="fill:#2c4997;fill-opacity:1;fill-rule:nonzero;stroke:none"
       d="m 0,133.333 600,0 0,44.445 -600,0 0,-44.445 z" /><path
       id="path20"
       style="fill:#2c4997;fill-opacity:1;fill-rule:nonzero;stroke:none"
       d="m 0,44.445 600,0 0,44.444 -600,0 0,-44.444 z" /><g
       id="g22"><g
         clip-path="url(#clipPath26)"
         id="g24"><g
           transform="translate(106.0796,267.1606)"
           id="g30"><path
             id="path32"
             style="fill:#fdd228;fill-opacity:1;fill-rule:nonzero;stroke:#1d1d1d;stroke-width:0.60000002;stroke-linecap:square;stroke-linejoin:miter;stroke-miterlimit:20;stroke-dasharray:none;stroke-opacity:1"
             d="m 0,0 7.356,-10.985 c -30.227,-21.875 -11.773,-34.811 -33.194,-41.813 13.323,13.002 -2.098,14.098 9.127,41.198" /></g><g
           transform="translate(100.8213,264.0469)"
           id="g34"><path
             id="path36"
             style="fill:none;stroke:#1d1d1d;stroke-width:0.60000002;stroke-linecap:butt;stroke-linejoin:miter;stroke-miterlimit:20;stroke-dasharray:none;stroke-opacity:1"
             d="M 0,0 C -16.678,-27.488 -5.74,-42.602 -20.58,-49.684" /></g><g
           transform="translate(111.1108,288.8892)"
           id="g38"><path
             id="path40"
             style="fill:#fdd228;fill-opacity:1;fill-rule:nonzero;stroke:#1d1d1d;stroke-width:0.60000002;stroke-linecap:butt;stroke-linejoin:miter;stroke-miterlimit:20;stroke-dasharray:none;stroke-opacity:1"
             d="M 0,0 14.667,0 0,-80.667 -14.667,0 0,0 0,-80.667" /></g><g
           transform="translate(92.189,277.0825)"
           id="g42"><path
             id="path44"
             style="fill:#fdd228;fill-opacity:1;fill-rule:nonzero;stroke:#1d1d1d;stroke-width:0.60000002;stroke-linecap:square;stroke-linejoin:miter;stroke-miterlimit:20;stroke-dasharray:none;stroke-opacity:1"
             d="m 0,0 -2.565,-12.969 c -36.843,5.906 -32.941,-16.291 -53.039,-6.094 18.615,-0.228 8.485,11.452 35.586,22.677" /></g><g
           transform="translate(86.269,278.5991)"
           id="g46"><path
             id="path48"
             style="fill:none;stroke:#1d1d1d;stroke-width:0.60000002;stroke-linecap:butt;stroke-linejoin:miter;stroke-miterlimit:20;stroke-dasharray:none;stroke-opacity:1"
             d="M 0,0 C -31.229,-7.645 -34.183,-26.065 -49.684,-20.58" /></g><g
           transform="translate(111.1108,288.8892)"
           id="g50"><path
             id="path52"
             style="fill:#fdd228;fill-opacity:1;fill-rule:nonzero;stroke:#1d1d1d;stroke-width:0.60000002;stroke-linecap:butt;stroke-linejoin:miter;stroke-miterlimit:20;stroke-dasharray:none;stroke-opacity:1"
             d="M 0,0 10.371,-10.371 -57.04,-57.04 -10.371,10.371 0,0 -57.04,-57.04" /></g><g
           transform="translate(89.3823,293.9204)"
           id="g54"><path
             id="path56"
             style="fill:#fdd228;fill-opacity:1;fill-rule:nonzero;stroke:#1d1d1d;stroke-width:0.60000002;stroke-linecap:square;stroke-linejoin:miter;stroke-miterlimit:20;stroke-dasharray:none;stroke-opacity:1"
             d="m 0,0 -10.984,-7.356 c -21.875,30.228 -34.811,11.773 -41.813,33.194 13.002,-13.323 14.098,2.098 41.198,-9.127" /></g><g
           transform="translate(86.269,299.1787)"
           id="g58"><path
             id="path60"
             style="fill:none;stroke:#1d1d1d;stroke-width:0.60000002;stroke-linecap:butt;stroke-linejoin:miter;stroke-miterlimit:20;stroke-dasharray:none;stroke-opacity:1"
             d="M 0,0 C -27.488,16.678 -42.602,5.74 -49.684,20.58" /></g><g
           transform="translate(111.1108,288.8892)"
           id="g62"><path
             id="path64"
             style="fill:#fdd228;fill-opacity:1;fill-rule:nonzero;stroke:#1d1d1d;stroke-width:0.60000002;stroke-linecap:butt;stroke-linejoin:miter;stroke-miterlimit:20;stroke-dasharray:none;stroke-opacity:1"
             d="M 0,0 0,-14.667 -80.667,0 0,14.667 0,0 -80.667,0" /></g><g
           transform="translate(99.3047,307.811)"
           id="g66"><path
             id="path68"
             style="fill:#fdd228;fill-opacity:1;fill-rule:nonzero;stroke:#1d1d1d;stroke-width:0.60000002;stroke-linecap:square;stroke-linejoin:miter;stroke-miterlimit:20;stroke-dasharray:none;stroke-opacity:1"
             d="m 0,0 -12.969,2.565 c 5.906,36.843 -16.29,32.941 -6.094,53.039 -0.228,-18.615 11.452,-8.485 22.677,-35.586" /></g><g
           transform="translate(100.8213,313.731)"
           id="g70"><path
             id="path72"
             style="fill:none;stroke:#1d1d1d;stroke-width:0.60000002;stroke-linecap:butt;stroke-linejoin:miter;stroke-miterlimit:20;stroke-dasharray:none;stroke-opacity:1"
             d="M 0,0 C -7.644,31.229 -26.065,34.183 -20.58,49.684" /></g><g
           transform="translate(111.1108,288.8892)"
           id="g74"><path
             id="path76"
             style="fill:#fdd228;fill-opacity:1;fill-rule:nonzero;stroke:#1d1d1d;stroke-width:0.60000002;stroke-linecap:butt;stroke-linejoin:miter;stroke-miterlimit:20;stroke-dasharray:none;stroke-opacity:1"
             d="M 0,0 -10.371,-10.371 -57.04,57.04 10.371,10.371 0,0 -57.04,57.04" /></g><g
           transform="translate(116.1426,310.6177)"
           id="g78"><path
             id="path80"
             style="fill:#fdd228;fill-opacity:1;fill-rule:nonzero;stroke:#1d1d1d;stroke-width:0.60000002;stroke-linecap:square;stroke-linejoin:miter;stroke-miterlimit:20;stroke-dasharray:none;stroke-opacity:1"
             d="M 0,0 -7.356,10.984 C 22.872,32.859 4.417,45.795 25.838,52.797 12.515,39.795 27.936,38.699 16.711,11.599" /></g><g
           transform="translate(121.4009,313.731)"
           id="g82"><path
             id="path84"
             style="fill:none;stroke:#1d1d1d;stroke-width:0.60000002;stroke-linecap:butt;stroke-linejoin:miter;stroke-miterlimit:20;stroke-dasharray:none;stroke-opacity:1"
             d="M 0,0 C 16.678,27.488 5.74,42.602 20.58,49.684" /></g><g
           transform="translate(111.1108,288.8892)"
           id="g86"><path
             id="path88"
             style="fill:#fdd228;fill-opacity:1;fill-rule:nonzero;stroke:#1d1d1d;stroke-width:0.60000002;stroke-linecap:butt;stroke-linejoin:miter;stroke-miterlimit:20;stroke-dasharray:none;stroke-opacity:1"
             d="M 0,0 -14.667,0 0,80.667 14.667,0 0,0 0,80.667" /></g><g
           transform="translate(130.0332,300.6958)"
           id="g90"><path
             id="path92"
             style="fill:#fdd228;fill-opacity:1;fill-rule:nonzero;stroke:#1d1d1d;stroke-width:0.60000002;stroke-linecap:square;stroke-linejoin:miter;stroke-miterlimit:20;stroke-dasharray:none;stroke-opacity:1"
             d="M 0,0 2.566,12.969 C 39.408,7.062 35.506,29.259 55.604,19.063 36.989,19.29 47.119,7.61 20.018,-3.615" /></g><g
           transform="translate(135.9531,299.1787)"
           id="g94"><path
             id="path96"
             style="fill:none;stroke:#1d1d1d;stroke-width:0.60000002;stroke-linecap:butt;stroke-linejoin:miter;stroke-miterlimit:20;stroke-dasharray:none;stroke-opacity:1"
             d="M 0,0 C 31.23,7.644 34.183,26.065 49.684,20.58" /></g><g
           transform="translate(111.1108,288.8892)"
           id="g98"><path
             id="path100"
             style="fill:#fdd228;fill-opacity:1;fill-rule:nonzero;stroke:#1d1d1d;stroke-width:0.60000002;stroke-linecap:butt;stroke-linejoin:miter;stroke-miterlimit:20;stroke-dasharray:none;stroke-opacity:1"
             d="M 0,0 -10.371,10.371 57.04,57.04 10.371,-10.371 0,0 57.04,57.04" /></g><g
           transform="translate(132.8394,283.8574)"
           id="g102"><path
             id="path104"
             style="fill:#fdd228;fill-opacity:1;fill-rule:nonzero;stroke:#1d1d1d;stroke-width:0.60000002;stroke-linecap:square;stroke-linejoin:miter;stroke-miterlimit:20;stroke-dasharray:none;stroke-opacity:1"
             d="M 0,0 10.985,7.356 C 32.86,-22.872 45.796,-4.417 52.798,-25.838 39.796,-12.515 38.7,-27.936 11.6,-16.711" /></g><g
           transform="translate(135.9531,278.5991)"
           id="g106"><path
             id="path108"
             style="fill:none;stroke:#1d1d1d;stroke-width:0.60000002;stroke-linecap:butt;stroke-linejoin:miter;stroke-miterlimit:20;stroke-dasharray:none;stroke-opacity:1"
             d="M 0,0 C 27.488,-16.678 42.602,-5.74 49.684,-20.58" /></g><g
           transform="translate(111.1108,288.8892)"
           id="g110"><path
             id="path112"
             style="fill:#fdd228;fill-opacity:1;fill-rule:nonzero;stroke:#1d1d1d;stroke-width:0.60000002;stroke-linecap:butt;stroke-linejoin:miter;stroke-miterlimit:20;stroke-dasharray:none;stroke-opacity:1"
             d="M 0,0 0,14.667 80.667,0 0,-14.667 0,0 80.667,0" /></g><g
           transform="translate(122.9175,269.9668)"
           id="g114"><path
             id="path116"
             style="fill:#fdd228;fill-opacity:1;fill-rule:nonzero;stroke:#1d1d1d;stroke-width:0.60000002;stroke-linecap:square;stroke-linejoin:miter;stroke-miterlimit:20;stroke-dasharray:none;stroke-opacity:1"
             d="m 0,0 12.969,-2.566 c -5.906,-36.842 16.29,-32.94 6.094,-53.038 0.228,18.615 -11.452,8.485 -22.677,35.586" /></g><g
           transform="translate(121.4009,264.0469)"
           id="g118"><path
             id="path120"
             style="fill:none;stroke:#1d1d1d;stroke-width:0.60000002;stroke-linecap:butt;stroke-linejoin:miter;stroke-miterlimit:20;stroke-dasharray:none;stroke-opacity:1"
             d="M 0,0 C 7.645,-31.23 26.065,-34.183 20.58,-49.684" /></g><g
           transform="translate(111.1108,288.8892)"
           id="g122"><path
             id="path124"
             style="fill:#fdd228;fill-opacity:1;fill-rule:nonzero;stroke:#1d1d1d;stroke-width:0.60000002;stroke-linecap:butt;stroke-linejoin:miter;stroke-miterlimit:20;stroke-dasharray:none;stroke-opacity:1"
             d="M 0,0 10.371,10.371 57.04,-57.04 -10.371,-10.371 0,0 57.04,-57.04" /></g><g
           transform="translate(111.1108,315.7778)"
           id="g126"><path
             id="path128"
             style="fill:#fdd228;fill-opacity:1;fill-rule:nonzero;stroke:none"
             d="m 0,0 c 14.851,0 26.889,-12.039 26.889,-26.889 0,-14.85 -12.038,-26.889 -26.889,-26.889 -14.85,0 -26.889,12.039 -26.889,26.889 C -26.889,-12.039 -14.85,0 0,0" /></g><g
           transform="translate(111.1108,315.7778)"
           id="g130"><path
             id="path132"
             style="fill:none;stroke:#1d1d1d;stroke-width:0.60000002;stroke-linecap:butt;stroke-linejoin:miter;stroke-miterlimit:20;stroke-dasharray:none;stroke-opacity:1"
             d="m 0,0 c 14.851,0 26.889,-12.039 26.889,-26.889 0,-14.85 -12.038,-26.889 -26.889,-26.889 -14.85,0 -26.889,12.039 -26.889,26.889 C -26.889,-12.039 -14.85,0 0,0 Z" /></g><g
           transform="translate(123.8223,297.4443)"
           id="g134"><path
             id="path136"
             style="fill:#1d1d1d;fill-opacity:1;fill-rule:nonzero;stroke:none"
             d="m 0,0 c 1.711,-1.466 0.245,-4.644 -1.467,-4.644 -1.711,0 -4.888,2.933 -3.422,4.889 M 7.089,2.2 C 5.377,0.245 4.4,3.667 -1.711,3.667 -7.822,3.667 -8.8,0 -9.778,0.733 -10.755,1.467 -4.645,5.867 -2.689,6.111 -0.733,6.356 4.889,4.4 7.089,2.2" /></g><g
           transform="translate(116.4888,294.5112)"
           id="g138"><path
             id="path140"
             style="fill:#1d1d1d;fill-opacity:1;fill-rule:nonzero;stroke:none"
             d="m 0,0 c 0.978,1.467 2.2,-1.467 4.889,-1.467 2.689,0 4.155,0.734 5.867,1.956 C 12.467,1.711 8.312,-2.444 5.622,-2.444 2.934,-2.444 -0.733,-0.978 0,0 m -0.733,0.733 c 0.244,2.934 2.689,3.422 6.6,3.422 3.911,0 5.622,-2.933 7.089,-3.666 -1.711,0 -3.178,2.444 -7.089,2.444 -3.911,0 -3.911,0 -6.6,-2.444" /></g><g
           transform="translate(111.1108,281.5557)"
           id="g142"><path
             id="path144"
             style="fill:#1d1d1d;fill-opacity:1;fill-rule:nonzero;stroke:none"
             d="m 0,0 c 1.711,0 2.2,1.222 4.156,1.222 1.955,0 4.644,-0.733 5.866,-1.711 0.245,-0.244 -0.733,1.955 -2.689,2.2 C 5.378,1.956 6.111,5.133 3.911,5.622 3.911,4.644 4.645,4.889 4.889,3.422 4.889,2.2 2.689,2.2 2.2,3.422 2.689,1.466 1.223,1.466 0,1.466 m 0,-10.51 c 6.111,0 5.134,1.222 13.2,4.644 C 7.333,-5.133 6.111,-7.089 0,-7.089 l -1.222,0 m 15.4,0.489 c -0.978,1.711 -0.733,1.222 -2.689,3.911 1.956,-1.467 2.445,-2.2 2.689,-3.911 M 0,-3.178 c 1.467,0 1.956,0.489 3.911,0.489 1.956,0 6.601,-2.689 9.289,-1.711 C 7.578,-6.6 9.778,-5.133 0,-5.133 l -1.222,0 m 14.911,16.622 c 3.178,1.711 1.222,4.155 0,4.644 0.489,-0.489 2.445,-2.933 0,-4.644" /></g><g
           transform="translate(98.3999,297.4443)"
           id="g146"><path
             id="path148"
             style="fill:#1d1d1d;fill-opacity:1;fill-rule:nonzero;stroke:none"
             d="m 0,0 c -1.711,-1.466 -0.244,-4.644 1.467,-4.644 1.711,0 4.888,2.933 3.422,4.889 M -7.089,2.2 C -5.378,0.245 -4.4,3.667 1.711,3.667 7.822,3.667 8.8,0 9.778,0.733 10.756,1.467 4.645,5.867 2.689,6.111 0.733,6.356 -4.889,4.4 -7.089,2.2" /></g><g
           transform="translate(105.7334,294.5112)"
           id="g150"><path
             id="path152"
             style="fill:#1d1d1d;fill-opacity:1;fill-rule:nonzero;stroke:none"
             d="m 0,0 c -0.978,1.467 -2.2,-1.467 -4.889,-1.467 -2.689,0 -4.155,0.734 -5.866,1.956 -1.712,1.222 2.444,-2.933 5.132,-2.933 2.69,0 6.356,1.466 5.623,2.444 m 0.733,0.733 c -0.244,2.934 -2.689,3.422 -6.6,3.422 -3.911,0 -5.622,-2.933 -7.089,-3.666 1.711,0 3.178,2.444 7.089,2.444 3.911,0 3.911,0 6.6,-2.444" /></g><g
           transform="translate(111.1108,281.5557)"
           id="g154"><path
             id="path156"
             style="fill:#1d1d1d;fill-opacity:1;fill-rule:nonzero;stroke:none"
             d="m 0,0 c -1.711,0 -2.2,1.222 -4.155,1.222 -1.956,0 -4.645,-0.733 -5.867,-1.711 -0.245,-0.244 0.733,1.955 2.689,2.2 1.956,0.245 1.222,3.422 3.422,3.911 0,-0.978 -0.733,-0.733 -0.978,-2.2 0,-1.222 2.201,-1.222 2.689,0 C -2.688,1.466 -1.222,1.466 0,1.466 m 0,-10.51 c -6.111,0 -5.133,1.222 -13.2,4.644 5.867,-0.733 7.089,-2.689 13.2,-2.689 l 1.223,0 M -14.178,-6.6 c 0.978,1.711 0.734,1.222 2.69,3.911 -1.956,-1.467 -2.445,-2.2 -2.69,-3.911 M 0,-3.178 c -1.466,0 -1.955,0.489 -3.911,0.489 -1.955,0 -6.6,-2.689 -9.289,-1.711 5.622,-2.2 3.423,-0.733 13.2,-0.733 l 1.223,0 m -14.911,16.622 c -3.178,1.711 -1.223,4.155 0,4.644 -0.49,-0.489 -2.445,-2.933 0,-4.644" /></g><g
           transform="translate(111.1108,270.311)"
           id="g158"><path
             id="path160"
             style="fill:#1d1d1d;fill-opacity:1;fill-rule:nonzero;stroke:none"
             d="M 0,0 C -1.222,0 -4.399,-0.733 0,-0.733 4.4,-0.733 1.223,0 0,0" /></g></g></g></g></svg>