<?xml version="1.0" encoding="UTF-8" standalone="no"?>
<svg
   xmlns:dc="http://purl.org/dc/elements/1.1/"
   xmlns:cc="http://creativecommons.org/ns#"
   xmlns:rdf="http://www.w3.org/1999/02/22-rdf-syntax-ns#"
   xmlns:svg="http://www.w3.org/2000/svg"
   xmlns="http://www.w3.org/2000/svg"
   viewBox="0 0 800 533.33331"
   height="533.33331"
   width="800"
   xml:space="preserve"
   version="1.1"
   id="svg2"><metadata
     id="metadata8"><rdf:RDF><cc:Work
         rdf:about=""><dc:format>image/svg+xml</dc:format><dc:type
           rdf:resource="http://purl.org/dc/dcmitype/StillImage" /></cc:Work></rdf:RDF></metadata><defs
     id="defs6"><clipPath
       id="clipPath16"
       clipPathUnits="userSpaceOnUse"><path
         id="path18"
         d="M 0,400 600,400 600,0 0,0 0,400 Z" /></clipPath><clipPath
       id="clipPath40"
       clipPathUnits="userSpaceOnUse"><path
         id="path42"
         d="M 0,400 600,400 600,0 0,0 0,400 Z" /></clipPath></defs><g
     transform="matrix(1.3333333,0,0,-1.3333333,0,533.33333)"
     id="g10"><g
       id="g12"><g
         clip-path="url(#clipPath16)"
         id="g14"><path
           id="path20"
           style="fill:none;stroke:#1d1d1d;stroke-width:1;stroke-linecap:butt;stroke-linejoin:miter;stroke-miterlimit:10;stroke-dasharray:none;stroke-opacity:1"
           d="M 0,400 600,400 600,0 0,0 0,400 Z" /><g
           transform="translate(0,400)"
           id="g22"><path
             id="path24"
             style="fill:none;stroke:#1d1d1d;stroke-width:1;stroke-linecap:butt;stroke-linejoin:miter;stroke-miterlimit:10;stroke-dasharray:none;stroke-opacity:1"
             d="M 0,0 600,-400" /></g><g
           transform="translate(600,400)"
           id="g26"><path
             id="path28"
             style="fill:none;stroke:#1d1d1d;stroke-width:1;stroke-linecap:butt;stroke-linejoin:miter;stroke-miterlimit:10;stroke-dasharray:none;stroke-opacity:1"
             d="M 0,0 -600,-400" /></g></g></g><path
       id="path30"
       style="fill:#c92835;fill-opacity:1;fill-rule:nonzero;stroke:none"
       d="m 240.178,369.261 359.822,0 0,30.595 -359.822,0 0,-30.595 z m 0,-61.465 359.822,0 0,30.294 -359.822,0 0,-30.294 z m 0,-61.466 359.822,0 0,30.282 -359.822,0 0,-30.282 z m 0,-61.476 359.822,0 0,30.293 -359.822,0 0,-30.293 z M 0.145,123.088 l 599.855,0 0,30.581 -599.855,0 0,-30.581 z m 0,-61.467 599.855,0 0,30.282 -599.855,0 0,-30.282 z m 0,-61.476 599.855,0 0,30.294 -599.855,0 0,-30.294 z" /><path
       id="path32"
       style="fill:#ffffff;fill-opacity:1;fill-rule:nonzero;stroke:none"
       d="m 240.178,338.679 359.822,0 0,30.294 -359.822,0 0,-30.294 z m 0,-61.466 359.822,0 0,30.283 -359.822,0 0,-30.283 z m 0,-61.766 359.822,0 0,30.282 -359.822,0 0,-30.282 z M 0.145,153.969 l 599.855,0 0,30.295 -599.855,0 0,-30.295 z m 0,-61.465 599.855,0 0,30.284 -599.855,0 0,-30.284 z m 0,-61.477 599.855,0 0,30.294 -599.855,0 0,-30.294 z" /><path
       id="path34"
       style="fill:#2e3c65;fill-opacity:1;fill-rule:nonzero;stroke:none"
       d="m 0.445,184.108 304.402,0 0,215.592 -304.402,0 0,-215.592 z" /><g
       id="g36"><g
         clip-path="url(#clipPath40)"
         id="g38"><g
           transform="translate(29.4902,382.0303)"
           id="g44"><path
             id="path46"
             style="fill:#ffffff;fill-opacity:1;fill-rule:nonzero;stroke:none"
             d="M 0,0 8.335,0 C 5.954,-1.778 3.572,-3.568 1.479,-5.346 l 2.394,-7.423 c -2.093,1.189 -6.254,4.456 -6.856,4.456 -0.89,0 -4.462,-3.267 -6.855,-4.156 l 2.393,7.123 C -9.237,-3.268 -12.521,-1.49 -14,0 l 8.035,0 c 1.19,2.678 2.092,5.345 2.982,8.024 C -2.093,5.345 -1.191,2.678 0,0 m 252.878,0 8.335,0 c -2.081,-1.189 -5.954,-3.568 -6.856,-5.346 l 2.394,-7.423 c -2.394,1.189 -6.254,4.456 -6.855,4.456 -0.89,0 -4.462,-2.967 -6.855,-4.456 l 2.393,7.423 c -2.093,1.778 -4.474,3.568 -6.555,5.346 l 8.034,0 c 1.191,2.678 2.093,5.345 2.983,8.024 0.89,-2.679 1.791,-5.346 2.982,-8.024 M 50.633,0 58.968,0 c -2.081,-1.49 -5.953,-3.568 -6.843,-5.346 l 2.381,-7.423 c -2.381,1.189 -6.254,4.456 -6.855,4.456 -0.891,0 -4.462,-2.967 -6.843,-4.756 0.588,2.378 2.381,7.135 2.381,7.723 0,0.889 -4.475,3.568 -6.555,5.346 l 8.034,0 C 45.57,2.378 46.46,5.045 47.35,7.724 48.541,5.345 49.442,2.678 50.633,0 m 50.333,0 8.635,0 c -2.381,-1.49 -7.143,-4.457 -7.143,-5.045 0,-0.889 1.792,-5.346 2.381,-8.024 -2.081,1.489 -5.953,4.756 -6.844,4.756 -0.601,0 -3.872,-2.678 -6.266,-4.156 l -0.289,0.288 2.382,7.136 C 91.729,-3.568 89.348,-1.778 87.268,0 l 8.045,0 c 1.191,2.378 1.479,6.534 3.272,7.724 0.602,-2.379 1.491,-5.046 2.381,-7.724 m 50.633,0 8.347,0 c -2.382,-1.778 -6.855,-4.457 -6.855,-5.045 0,-0.889 1.491,-5.045 2.092,-7.724 -2.092,1.489 -5.664,4.456 -6.554,4.456 -0.602,0 -4.474,-3.267 -6.856,-4.456 0.891,2.378 1.792,5.045 2.682,7.724 L 137.6,0 l 8.347,0 c 0.889,2.378 1.78,5.045 2.682,7.724 1.19,-2.379 1.78,-5.046 2.97,-7.724 m 50.646,0 8.335,0 c -2.382,-1.778 -6.855,-4.457 -6.855,-5.346 0,-0.588 1.791,-5.045 2.38,-7.723 -2.08,1.489 -6.253,4.756 -6.842,4.756 -0.891,0 -4.475,-3.267 -6.856,-4.156 l 2.381,7.123 c -1.78,2.679 -5.063,3.568 -6.542,5.346 l 8.033,0 c 1.191,2.678 2.093,5.345 3.284,7.724 0.589,-2.379 1.479,-5.046 2.682,-7.724 m -176.929,-21.682 8.335,0 c -2.381,-1.478 -4.762,-3.267 -6.843,-5.345 l 2.381,-7.424 c -2.093,1.19 -6.254,4.456 -6.856,4.456 -2.08,0 -3.872,-4.155 -6.854,-4.155 0.902,2.378 2.393,6.534 2.393,7.123 0,0.901 -4.173,3.567 -6.555,5.345 l 8.034,0 c 1.191,2.679 2.093,5.346 2.982,8.024 0.891,-2.678 1.793,-5.345 2.983,-8.024 m 202.246,0 8.334,0 c -2.381,-1.778 -6.855,-4.444 -6.855,-5.345 0,-0.589 1.492,-4.745 2.394,-7.123 -2.093,0.3 -5.966,4.155 -6.856,4.155 -0.891,0 -4.475,-2.966 -6.856,-4.456 l 2.381,7.424 c -1.779,1.789 -4.161,3.567 -6.542,5.345 l 8.034,0 c 1.191,2.679 2.092,5.346 2.983,8.024 0.89,-2.678 1.792,-5.345 2.983,-8.024 m -151.612,0 8.046,0 -6.855,-5.045 c 0.889,-2.378 1.792,-5.045 2.682,-7.724 -2.093,1.19 -6.255,4.456 -6.856,4.456 -2.08,0 -4.462,-3.555 -6.843,-3.855 l 2.381,7.123 c -2.092,1.489 -4.474,3.267 -6.555,5.045 l 8.047,0 c 0.89,2.379 1.78,5.057 2.67,7.724 1.202,-2.378 2.093,-5.045 3.283,-7.724 m 50.633,0 8.046,0 c -2.381,-1.778 -6.855,-4.444 -6.855,-5.045 0,-0.889 1.792,-5.345 2.382,-8.012 -2.082,1.478 -5.954,4.744 -6.844,4.744 -0.602,0 -4.474,-3.266 -6.855,-4.456 0.89,2.379 2.682,6.835 2.682,7.724 0,0.601 -4.474,3.267 -6.555,5.045 l 7.745,0 c 1.191,2.379 2.081,5.057 2.983,7.724 1.191,-2.378 2.081,-5.045 3.271,-7.724 m 50.334,0 8.346,0 c -2.381,-1.778 -4.763,-3.556 -6.856,-5.045 l 2.382,-7.423 c -1.479,0.3 -5.653,4.155 -6.844,4.155 -0.902,0 -4.473,-2.966 -6.855,-4.456 0.89,2.379 1.792,5.057 2.682,7.724 -2.08,1.489 -4.461,3.267 -6.555,5.045 l 7.746,0 c 1.191,2.379 2.08,5.057 2.982,7.724 1.191,-2.378 1.781,-5.045 2.972,-7.724 M 0,-43.063 8.034,-43.352 c -2.381,-1.79 -4.763,-3.567 -6.555,-5.056 l 2.394,-7.424 -0.301,-0.289 -6.555,4.746 c -1.792,-1.19 -4.763,-3.856 -6.855,-4.457 0.901,2.378 2.393,6.535 2.393,7.424 0,1.188 -5.364,3.867 -6.266,5.345 l 8.046,0 c 0.89,2.678 1.491,5.646 2.983,7.724 0.589,-2.379 1.491,-5.046 2.682,-7.724 m 50.333,0 8.334,-0.289 c -2.381,-1.79 -6.542,-4.456 -6.542,-5.056 0,-0.889 1.479,-5.046 2.08,-7.713 l -6.554,4.746 -6.555,-4.746 c 0,0 -0.288,0.289 -0.288,0.589 l 2.381,7.124 c -2.093,2.378 -4.174,2.679 -6.254,5.345 l 7.733,0 c 1.203,2.378 2.092,5.057 2.682,7.724 1.491,-2.078 1.491,-5.046 2.983,-7.724 m 151.912,0 8.034,-0.289 c -2.081,-1.489 -4.462,-3.267 -6.554,-5.056 l 2.38,-7.424 -0.288,-0.289 -6.554,4.746 c -1.793,-1.19 -4.764,-3.856 -6.856,-4.457 0.902,2.378 2.381,6.535 2.381,7.424 0,0.6 -4.161,3.266 -6.254,5.345 l 8.047,0 c 1.19,2.678 1.19,5.646 2.982,7.724 0.589,-2.379 1.479,-5.046 2.682,-7.724 m 50.332,0 8.335,-0.289 c -2.381,-1.79 -6.555,-4.456 -6.555,-5.056 0,-0.889 1.492,-5.046 2.093,-7.713 l -6.554,4.746 -6.555,-4.746 c 0,0 -0.3,0.289 -0.3,0.589 l 2.393,7.124 c -1.203,1.489 -4.775,3.266 -6.267,5.345 l 7.746,0 c 1.191,2.378 2.093,5.057 2.682,7.724 1.191,-2.078 1.792,-5.046 2.982,-7.724 m -151.611,0 8.347,-0.289 c -2.093,-1.489 -6.855,-4.155 -6.855,-5.056 0,-0.589 1.792,-5.046 2.681,-7.713 -2.381,1.478 -6.253,4.746 -7.144,4.746 -0.601,0 -4.474,-3.268 -6.855,-4.746 0.89,2.367 2.682,6.824 2.682,7.713 0,0.6 -4.474,3.266 -6.554,5.345 l 8.045,0 c 0.891,2.378 1.78,5.057 2.682,7.423 1.192,-2.078 2.081,-4.745 2.971,-7.423 m 50.633,0 8.347,-0.289 c -2.382,-1.79 -6.855,-4.456 -6.855,-5.056 0,-0.889 1.792,-5.346 2.682,-7.713 -2.381,1.478 -6.254,4.746 -7.144,4.746 -0.602,0 -4.474,-3.268 -6.856,-4.746 0.891,2.367 2.682,7.124 2.682,7.713 0,0.901 -4.474,3.266 -6.554,5.345 l 8.046,0 c 0.889,2.378 1.78,5.057 2.682,7.423 0.89,-2.078 1.78,-4.745 2.97,-7.423 m -126.283,-21.67 8.035,-0.3 c -2.382,-1.778 -4.763,-3.267 -6.543,-5.045 l 2.381,-7.424 c -2.381,1.189 -4.774,2.967 -7.156,4.457 l -6.254,-4.757 c 0,0 -0.3,0.3 -0.3,0.588 l 2.393,7.136 c -1.792,1.477 -4.173,3.267 -6.254,5.345 l 7.733,0 c 1.191,2.667 2.093,5.345 2.982,8.012 0.891,-2.667 1.793,-5.345 2.983,-8.012 m 202.246,0 8.034,-0.3 c -2.382,-1.778 -4.763,-3.568 -6.555,-5.045 l 2.394,-7.424 -0.301,-0.3 -6.555,4.757 c -2.081,-0.901 -4.763,-3.568 -6.856,-4.169 l 2.381,7.136 c -1.779,1.778 -4.161,3.267 -6.253,5.345 l 7.745,0 c 1.191,2.667 2.092,5.345 2.983,8.012 0.89,-2.667 1.792,-5.345 2.983,-8.012 m -151.913,0 8.347,-0.3 c -0.601,-0.3 -6.555,-4.156 -6.555,-5.345 0,-0.589 1.492,-4.757 2.081,-7.424 -2.081,1.489 -5.954,4.757 -6.855,4.757 -0.589,0 -4.462,-3.268 -6.543,-4.757 0.89,2.967 2.381,7.123 2.381,7.724 0,0.588 -5.063,3.556 -6.254,5.345 l 7.746,0 c 0.89,2.379 1.78,5.045 2.67,7.724 1.202,-2.091 1.792,-5.057 2.982,-7.724 m 101.268,0 8.045,-0.3 c -2.08,-1.489 -6.555,-4.156 -6.555,-5.045 0,-0.601 1.492,-4.757 2.382,-7.724 -2.081,1.489 -5.954,4.757 -6.844,4.757 -0.601,0 -4.473,-3.268 -6.855,-4.457 0.89,2.367 2.382,6.535 2.382,7.124 0,1.489 -5.954,5.045 -6.255,5.645 l 8.046,0 c 0.891,2.667 1.492,5.633 2.983,7.724 0.589,-2.379 1.48,-5.057 2.671,-7.724 m -50.634,0 8.046,-0.3 c -2.081,-1.489 -6.555,-4.156 -6.555,-5.045 0,-0.601 1.792,-4.757 2.382,-7.724 l -6.844,4.757 -6.555,-4.757 c 0.59,2.378 2.382,7.123 2.382,7.724 0,1.477 -5.063,3.556 -6.254,5.345 l 7.745,0 c 0.89,2.379 1.78,5.045 2.682,7.423 1.191,-2.078 2.081,-4.756 2.971,-7.423 M 0,-86.415 l 8.335,0 C 5.954,-88.192 3.572,-89.982 1.479,-91.76 l 2.394,-7.423 c -2.093,1.189 -6.254,4.456 -6.856,4.456 -0.89,0 -4.462,-2.967 -6.855,-4.156 l 2.393,7.123 c -1.792,2.678 -5.076,3.568 -6.555,5.345 l 8.035,0 c 1.19,2.679 2.092,5.346 2.982,8.024 0.89,-2.678 1.792,-5.345 2.983,-8.024 m 252.878,0 8.335,0 c -2.081,-1.489 -5.954,-3.567 -6.856,-5.345 l 2.394,-7.423 c -2.394,1.489 -6.254,4.456 -6.855,4.456 -0.89,0 -4.462,-2.967 -6.855,-4.456 l 2.393,7.423 c -2.093,1.778 -4.474,3.568 -6.555,5.345 l 8.034,0 c 1.191,2.679 2.093,5.346 2.983,8.024 0.89,-2.678 1.791,-5.345 2.982,-8.024 m -202.245,0 8.335,0 c -2.081,-1.489 -5.953,-3.567 -6.843,-5.345 l 2.381,-7.423 c -2.381,1.489 -6.254,4.456 -6.855,4.456 -0.891,0 -4.462,-2.967 -6.843,-4.756 0.588,2.378 2.381,7.134 2.381,7.723 0,0.889 -4.475,3.568 -6.555,5.345 l 8.034,0 c 0.902,2.379 1.792,5.045 2.682,7.724 1.191,-2.378 2.092,-5.045 3.283,-7.724 m 50.333,0 8.635,0 -7.143,-5.045 c 0.89,-2.378 1.792,-5.044 2.381,-8.023 -2.081,1.489 -5.953,4.756 -6.555,4.756 -1.492,0 -5.352,-3.567 -6.844,-3.868 l 2.382,7.135 c -2.093,1.478 -4.474,3.268 -6.554,5.045 l 8.045,0 c 0.89,2.379 1.78,5.045 2.682,7.724 1.192,-2.078 1.78,-5.045 2.971,-7.724 m 50.633,0 8.347,0 c -2.382,-1.777 -6.855,-4.456 -6.855,-5.045 0,-0.889 1.491,-5.044 2.092,-7.723 -2.092,1.489 -5.965,4.456 -6.554,4.456 -0.902,0 -4.474,-3.267 -6.856,-4.456 0.891,2.378 1.792,5.044 2.682,7.723 l -6.855,5.045 8.347,0 c 0.889,2.379 1.78,5.045 2.682,7.724 1.19,-2.378 1.78,-5.045 2.97,-7.724 m 50.646,0 8.335,0 c -2.382,-1.777 -6.855,-4.456 -6.855,-5.345 0,-0.589 1.791,-5.045 2.38,-7.723 -2.08,1.489 -6.253,4.756 -6.842,4.756 -0.891,0 -4.475,-2.967 -6.856,-4.156 l 2.381,7.123 c -1.78,2.678 -5.063,3.568 -6.542,5.345 l 8.033,0 c 1.191,2.679 2.093,5.346 3.284,7.724 0.589,-2.378 1.479,-5.045 2.682,-7.724 m -176.929,-21.682 8.335,0 c -2.381,-1.477 -6.843,-4.444 -6.843,-5.344 0,-0.589 1.479,-4.746 2.381,-7.124 -2.093,0.3 -4.774,2.967 -6.856,4.457 -2.08,-1.189 -4.762,-3.568 -6.854,-4.457 0.902,2.378 2.393,6.535 2.393,7.124 0,0.9 -4.173,3.566 -6.555,5.344 l 8.034,0 c 1.191,2.679 2.093,5.346 2.982,8.025 0.891,-2.679 1.793,-5.346 2.983,-8.025 m 202.246,0 8.334,0 c -2.381,-1.477 -6.855,-4.444 -6.855,-5.344 0,-0.589 1.492,-4.746 2.093,-7.424 l -6.555,4.757 -6.254,-4.457 c 0,0 -0.301,-0.3 -0.602,0 0.902,2.378 2.381,6.535 2.381,7.124 0,0.9 -4.161,3.566 -6.542,5.344 l 8.034,0 c 1.191,2.679 2.092,5.346 2.983,8.025 0.89,-2.679 1.792,-5.346 2.983,-8.025 m -151.612,0 8.046,0 -6.855,-5.044 c 0.889,-2.379 1.792,-5.046 2.682,-7.724 -2.382,1.49 -6.255,4.456 -7.156,4.456 -1.191,0 -4.763,-3.555 -6.543,-3.856 l 2.381,7.124 c -2.092,1.778 -4.474,3.266 -6.555,5.044 l 8.047,0 c 0.89,2.379 1.78,5.057 2.67,7.724 1.202,-2.378 2.093,-5.045 3.283,-7.724 m 50.633,0 8.046,0 c -2.381,-1.778 -6.855,-4.444 -6.855,-5.044 0,-0.889 1.792,-5.346 2.382,-8.012 -2.082,1.778 -5.954,4.744 -6.844,4.744 -0.602,0 -4.474,-2.966 -6.855,-4.456 0.89,2.378 2.682,6.835 2.682,7.724 0,0.6 -4.474,3.266 -6.555,5.044 l 7.745,0 c 1.191,2.379 2.081,5.057 2.983,7.724 1.191,-2.378 2.081,-5.045 3.271,-7.724 m 50.334,0 8.346,0 c -2.381,-1.778 -6.856,-4.444 -6.856,-5.044 0,-0.889 1.492,-5.046 2.093,-7.724 -2.093,1.49 -5.665,4.456 -6.555,4.456 -0.601,0 -4.473,-2.966 -6.855,-4.456 0.89,2.378 1.792,5.057 2.682,7.724 -2.08,1.489 -4.461,3.266 -6.555,5.044 l 7.746,0 c 1.191,2.379 2.08,5.057 2.982,7.724 1.191,-2.378 1.781,-5.045 2.972,-7.724 M 0,-129.478 l 8.034,-0.288 c -2.381,-1.79 -4.763,-3.567 -6.555,-5.057 l 2.394,-7.424 -0.301,-0.288 -6.555,4.745 c -2.08,-0.889 -4.763,-3.856 -6.855,-4.457 0.901,2.379 2.393,6.535 2.393,7.424 0,0.6 -4.173,3.267 -6.266,5.345 l 8.046,0 c 0.89,2.679 1.491,5.646 2.983,7.724 0.589,-2.378 1.491,-5.045 2.682,-7.724 m 50.333,0 8.334,-0.288 c -2.381,-1.79 -6.542,-4.457 -6.542,-5.057 0,-0.889 1.479,-5.045 2.08,-7.712 l -6.554,4.745 -6.555,-4.745 c 0.601,2.967 2.093,7.123 2.093,7.712 0,0.6 -5.064,3.568 -6.254,5.345 l 7.733,0 c 1.203,2.378 1.792,5.057 2.682,7.724 1.491,-2.078 1.491,-5.045 2.983,-7.724 m 151.912,0 8.034,-0.288 c -2.081,-1.489 -6.554,-4.156 -6.554,-5.057 0,-0.589 1.49,-5.045 2.092,-7.712 l -6.554,4.745 c -1.793,-1.189 -4.763,-3.856 -6.856,-4.457 0.902,2.379 2.381,6.535 2.381,7.424 0,0.6 -4.161,3.267 -6.254,5.345 l 8.047,0 c 1.19,2.679 1.19,5.646 2.982,7.724 0.589,-2.378 1.479,-5.045 2.682,-7.724 m 50.332,0 8.335,-0.288 c -2.381,-1.79 -6.555,-4.457 -6.555,-5.057 0,-0.889 1.492,-5.045 2.093,-7.712 l -6.554,4.745 -6.555,-4.745 c 0,0 -0.3,0.288 -0.3,0.589 l 2.393,7.123 c -1.203,2.09 -4.775,2.979 -6.267,5.345 l 7.746,0 c 1.191,2.378 2.093,5.057 2.682,7.724 1.191,-2.078 1.792,-5.045 2.982,-7.724 m -100.978,0 8.347,-0.288 c -2.382,-1.489 -6.855,-4.457 -6.855,-5.057 0,-0.889 1.792,-5.345 2.682,-7.712 -2.381,1.477 -6.254,4.745 -7.144,4.745 -0.602,0 -4.474,-3.268 -6.555,-4.745 0.59,2.967 2.381,7.123 2.381,7.712 0,0.901 -4.474,3.267 -6.554,5.345 l 8.046,0 c 0.889,2.378 1.78,5.057 2.682,7.424 0.89,-2.078 1.78,-4.745 2.97,-7.424 m -41.998,0 -8.334,0 8.334,0 z m -84.285,-21.669 8.035,-0.301 c -2.382,-1.778 -4.763,-3.267 -6.543,-5.045 l 2.381,-7.423 c -2.381,1.189 -6.254,4.457 -6.856,4.457 -0.889,0 -4.461,-3.268 -6.854,-4.169 l 2.393,7.135 c -1.792,1.778 -4.173,3.267 -6.254,5.346 l 7.733,0 c 1.191,2.667 2.093,5.345 2.982,8.011 0.891,-2.666 1.793,-5.344 2.983,-8.011 m 202.246,0 8.034,-0.301 c -2.382,-1.778 -4.763,-3.267 -6.555,-5.045 l 2.394,-7.423 c -2.394,1.189 -6.267,4.457 -6.856,4.457 -0.601,0 -5.364,-3.869 -6.856,-4.169 l 2.381,7.135 c -1.779,1.778 -4.161,3.267 -6.253,5.346 l 7.745,0 c 1.191,2.667 2.092,5.345 2.983,8.011 0.89,-2.666 1.792,-5.344 2.983,-8.011 m -151.913,0 8.347,-0.301 c -0.902,-0.3 -6.555,-4.156 -6.555,-5.045 0,-0.889 1.492,-5.045 2.081,-7.723 -2.081,1.489 -5.954,4.757 -6.855,4.757 -0.589,0 -4.462,-3.268 -6.543,-4.757 0.89,2.966 2.381,7.122 2.381,7.723 0,0.589 -5.063,3.556 -6.254,5.346 l 7.746,0 c 0.89,2.378 1.78,5.045 2.67,7.724 1.491,-2.091 1.491,-5.057 2.982,-7.724 m 101.268,0 8.045,-0.301 c -2.08,-1.489 -6.555,-4.156 -6.555,-5.045 0,-0.601 1.492,-4.757 2.382,-7.723 -2.081,1.489 -5.954,4.757 -6.844,4.757 -0.601,0 -4.473,-3.268 -6.855,-4.457 0.89,2.378 2.382,6.534 2.382,7.423 0,0.589 -4.161,3.556 -6.255,5.346 l 8.046,0 c 1.191,2.667 1.191,5.633 2.983,7.724 0.589,-2.379 1.48,-5.057 2.671,-7.724 m -50.634,0 8.046,-0.301 c -2.081,-1.489 -6.555,-4.156 -6.555,-4.745 0,-0.901 1.792,-5.057 2.382,-8.023 l -6.844,4.757 -6.555,-4.757 c 0.59,2.678 2.382,7.122 2.382,8.023 0,0.889 -5.063,3.556 -6.254,5.046 l 7.745,0 c 0.89,2.378 1.78,5.045 2.682,7.423 1.191,-2.078 2.081,-4.756 2.971,-7.423 M 0,-172.829 l 8.335,0 c -2.381,-1.777 -6.856,-4.456 -6.856,-5.345 0,-0.589 1.792,-5.046 2.394,-7.424 -2.093,1.189 -6.254,4.457 -6.856,4.457 -0.89,0 -4.462,-2.968 -6.855,-4.457 l 2.393,7.424 c -1.792,2.678 -5.076,3.568 -6.555,5.345 l 8.035,0 c 1.19,2.679 2.092,5.345 2.982,8.024 0.89,-2.679 1.792,-5.345 2.983,-8.024 m 50.633,0 8.335,0 c -2.081,-1.49 -5.953,-3.567 -6.843,-5.345 l 2.381,-7.424 c -2.381,1.489 -6.254,4.457 -6.855,4.457 -0.891,0 -4.462,-2.968 -6.843,-4.756 0.588,2.376 2.381,7.134 2.381,7.723 0,0.889 -4.475,3.568 -6.555,5.345 l 8.034,0 c 1.203,2.679 2.092,5.345 2.983,8.024 0.89,-2.679 1.791,-5.345 2.982,-8.024 m 151.612,0 8.335,0 c -2.382,-1.777 -6.855,-4.456 -6.855,-5.345 0,-0.589 1.49,-4.745 2.38,-7.723 -2.08,1.488 -6.253,4.756 -6.842,4.756 -0.891,0 -4.475,-2.968 -6.856,-4.156 l 2.381,7.123 c -1.479,2.078 -4.462,3.568 -6.542,5.345 l 8.033,0 c 1.191,2.679 2.093,5.345 2.984,8.024 0.889,-2.679 1.779,-5.345 2.982,-8.024 m 50.633,0 8.335,0 c -2.081,-1.49 -5.954,-3.567 -6.856,-5.345 l 2.394,-7.424 c -2.093,1.189 -6.254,4.457 -6.855,4.457 -0.89,0 -4.462,-2.968 -6.855,-4.457 0.601,2.378 2.393,6.835 2.393,7.424 0,0.889 -4.474,3.568 -6.555,5.345 l 8.034,0 c 1.191,2.679 2.093,5.345 2.983,8.024 0.89,-2.679 1.791,-5.345 2.982,-8.024 m -151.912,0 8.635,0 c -2.381,-1.49 -4.762,-3.267 -7.143,-5.045 0.89,-2.378 1.792,-5.045 2.381,-8.023 -2.081,1.488 -5.953,4.756 -6.555,4.756 -2.081,0 -3.572,-3.569 -6.844,-3.856 l 2.382,7.123 c -2.093,1.478 -4.474,3.268 -6.554,5.045 l 8.045,0 c 0.89,2.378 1.78,5.045 2.682,7.724 1.192,-2.079 1.78,-5.045 2.971,-7.724 m 50.633,0 8.347,0 c -2.382,-1.777 -6.855,-4.456 -6.855,-5.045 0,-0.889 1.491,-5.045 2.092,-7.724 -2.092,1.489 -5.965,4.457 -6.554,4.457 -0.902,0 -4.474,-3.268 -6.856,-4.457 0.891,2.378 1.792,5.045 2.682,7.724 l -6.855,5.045 8.347,0 c 0.889,2.378 1.78,5.045 2.682,7.724 1.19,-2.379 2.08,-5.045 2.97,-7.724" /></g><g
           transform="translate(130.4565,252.5527)"
           id="g48"><path
             id="path50"
             style="fill:#ffffff;fill-opacity:1;fill-rule:nonzero;stroke:none"
             d="M 0,0 8.347,-0.289 C 6.253,-1.778 1.491,-4.445 1.491,-5.346 c 0,-0.588 1.792,-4.744 2.382,-7.712 -2.081,1.478 -5.954,4.745 -6.844,4.745 -0.601,0 -4.474,-3.267 -6.856,-4.745 0.891,2.367 2.682,6.824 2.682,7.712 0,0.601 -4.473,3.568 -6.554,5.346 l 8.046,0 c 0.89,2.378 1.78,5.057 2.682,7.423 C -1.78,5.345 -0.89,2.679 0,0" /></g></g></g></g></svg>